<svg width="1152" height="490" viewBox="0 0 1152 490" fill="none" xmlns="http://www.w3.org/2000/svg">
<rect width="360" height="208" fill="#FFEDD5"/>
<mask id="mask0_426_2" style="mask-type:alpha" maskUnits="userSpaceOnUse" x="0" y="0" width="1152" height="490">
<path d="M0 8.00001C0 3.58173 3.58172 0 8 0H1144C1148.42 0 1152 3.58172 1152 8V482C1152 486.418 1148.42 490 1144 490H7.99997C3.58169 490 0 486.418 0 482V8.00001Z" fill="#FFEDD5"/>
</mask>
<g mask="url(#mask0_426_2)">
<path d="M131.035 96.2076C129.956 94.8432 128.651 93.6282 127.449 92.3694C122.203 86.8708 116.956 81.3748 111.71 75.8762C101.277 64.9433 90.8459 54.0079 80.4099 43.0751C69.9764 32.1422 59.5456 21.2094 49.1121 10.2765C38.6504 -0.689812 28.186 -11.6535 17.7243 -22.6173C16.4423 -23.9585 15.1603 -25.3048 13.8783 -26.646C13.8166 -26.7103 13.7496 -26.7593 13.6801 -26.8004C13.5282 -26.9317 13.3403 -27.0115 13.137 -26.9986C9.19839 -26.7438 5.2984 -26.0204 1.53227 -24.8672C-3.93543 -23.3715 -9.10196 -20.7896 -13.5915 -17.2937C-13.7279 -17.1882 -13.8566 -17.0775 -13.9905 -16.9694C-14.6701 -16.4597 -15.3394 -15.9371 -15.9933 -15.3939C-16.0962 -15.309 -16.1606 -15.1983 -16.2018 -15.0747C-22.0685 -9.63796 -26.2516 -2.50467 -28.2493 5.25927C-28.656 6.83729 -28.9701 8.44361 -29.1914 10.0629C-29.6754 12.3128 -29.9457 14.609 -29.9998 16.9078C-30.0023 17.0236 -29.9843 17.124 -29.9508 17.2167C-29.9689 18.0585 -29.9534 18.9003 -29.8968 19.7421C-29.8916 19.8167 -29.8762 19.8939 -29.853 19.9634C-29.9097 20.2775 -29.817 20.6199 -29.4823 20.849C-29.3768 20.9185 -29.2713 20.9906 -29.1657 21.0601C-29.037 21.2789 -28.8336 21.4359 -28.5582 21.4694C-20.4956 26.9216 -12.3636 32.2735 -4.16455 37.5173C4.29959 42.9309 12.8358 48.2312 21.4415 53.4209C25.9001 56.1085 30.3793 58.7625 34.8739 61.3882C35.3244 63.1516 35.9422 64.8738 36.7222 66.5188C38.7919 70.8847 42.0561 74.6199 46.023 77.3692C47.8404 78.628 49.8123 79.6577 51.8743 80.4455C50.6412 81.1173 49.6707 82.178 49.1147 83.5784C48.2806 85.6841 48.5767 88.1605 49.2872 90.2585C50.0491 92.5109 51.2874 94.5729 52.8705 96.3414C56.2557 100.128 61.1056 102.252 66.1331 102.618C70.9289 102.965 76.2113 101.76 79.8049 98.4086C81.7897 96.5551 83.0819 93.9113 83.2827 91.2135C83.8645 91.4375 84.4772 91.5868 85.113 91.6357C88.0065 91.8648 90.4469 89.6561 91.0982 86.9351C91.2449 86.3148 91.299 85.6789 91.2629 85.0482C96.378 88.9379 101.709 92.529 107.252 95.7777C110.238 97.5256 113.283 99.1757 116.377 100.728C117.922 101.5 119.477 102.262 121.052 102.97C122.612 103.67 124.213 104.293 125.933 104.432C128.615 104.651 131.771 103.125 132.307 100.257C132.582 98.7484 131.952 97.3711 131.035 96.2076Z" fill="#FFA498"/>
<path d="M36.6945 60.9844C35.2452 56.7189 34.8848 52.1239 35.7188 47.691C35.8063 47.2302 35.5901 46.754 35.1139 46.6227C34.6891 46.5068 34.1331 46.7669 34.043 47.2277C33.1523 51.9643 33.4663 56.8785 35.0186 61.4427C35.3764 62.4981 37.0574 62.0476 36.6945 60.9844Z" fill="#18181B"/>
<path d="M66.0835 90.4855C65.875 89.8291 65.6794 89.1726 65.4915 88.511C65.633 88.3308 65.6948 88.0837 65.5996 87.7903C65.3087 86.8841 64.9843 85.9651 64.5982 85.0693C63.5891 80.7703 62.9687 76.3863 62.7679 71.9663C62.7164 70.8517 60.9788 70.844 61.0303 71.9663C61.1667 74.955 61.4911 77.9334 61.9853 80.8835C61.7099 80.5926 61.419 80.312 61.1075 80.0546C59.1022 78.3968 56.3117 77.6914 53.8018 78.5641C52.4709 79.0249 51.3176 79.9053 50.6715 81.1744C50.1618 82.1681 51.6626 83.0485 52.1723 82.0522C53.063 80.3095 55.143 79.7096 56.9913 79.9954C59.3519 80.3661 61.0612 82.1192 62.2093 84.14C62.4796 84.6188 62.7241 85.1104 62.9455 85.6124C63.3703 87.4067 63.8542 89.1881 64.4129 90.9463C64.7449 92.0069 66.4233 91.5564 66.0835 90.4855Z" fill="#18181B"/>
<path d="M81.8419 87.8026C80.9307 81.4236 80.0194 75.0497 79.1055 68.6733C79.0386 68.2074 78.4491 67.9525 78.0372 68.0658C77.5378 68.2048 77.3628 68.6681 77.4297 69.1341C78.341 75.5131 79.2522 81.8869 80.1661 88.2659C80.233 88.7319 80.8225 88.9842 81.2344 88.8709C81.7364 88.7319 81.9089 88.2659 81.8419 87.8026Z" fill="#18181B"/>
<path d="M89.3866 64.8529C89.088 63.7769 87.4122 64.2351 87.7108 65.3162C89.1832 70.6398 89.5333 76.2646 88.6761 81.7246C88.604 82.1879 88.7945 82.659 89.2836 82.7928C89.6955 82.9061 90.2799 82.6513 90.352 82.1879C91.2581 76.4062 90.9466 70.4931 89.3866 64.8529Z" fill="#18181B"/>
<path d="M160.644 409.111C158.927 409.399 157.233 409.958 155.552 410.406C148.208 412.357 140.863 414.311 133.519 416.262C118.915 420.147 104.309 424.031 89.7027 427.911C75.099 431.795 60.4927 435.68 45.889 439.562C31.2415 443.457 16.5966 447.349 1.94908 451.244C0.15483 451.722 -1.63942 452.199 -3.43368 452.678C-3.52377 452.701 -3.59585 452.734 -3.66536 452.775C-3.85071 452.845 -4.01288 452.971 -4.09783 453.156C-5.77109 456.729 -7.01446 460.498 -7.81505 464.354C-9.13564 469.868 -9.35703 475.64 -8.45604 481.254C-8.42772 481.424 -8.39426 481.592 -8.36337 481.761C-8.24238 482.601 -8.10594 483.44 -7.94633 484.276C-7.92059 484.408 -7.85366 484.518 -7.76871 484.611C-5.82515 492.372 -1.58794 499.47 4.25818 504.961C5.44749 506.078 6.7063 507.126 8.0166 508.099C9.75679 509.607 11.6386 510.948 13.6285 512.104C13.7289 512.161 13.8267 512.194 13.9219 512.21C14.6504 512.632 15.397 513.023 16.1641 513.378C16.2336 513.412 16.3057 513.432 16.3778 513.448C16.6275 513.649 16.9698 513.731 17.3328 513.548C17.4435 513.492 17.5568 513.432 17.67 513.376C17.9223 513.368 18.1591 513.263 18.3213 513.039C26.9811 508.593 35.5868 504.044 44.1282 499.38C52.9476 494.563 61.7026 489.634 70.3933 484.585C74.8956 481.97 79.3748 479.324 83.8411 476.646C85.6045 477.099 87.4091 477.385 89.2265 477.493C94.0506 477.782 98.8979 476.716 103.212 474.564C105.192 473.575 107.04 472.342 108.729 470.914C108.724 472.317 109.187 473.681 110.145 474.839C111.592 476.585 113.903 477.517 116.084 477.903C118.424 478.317 120.825 478.224 123.14 477.689C128.087 476.543 132.283 473.315 135.022 469.083C137.635 465.047 139.121 459.837 137.913 455.074C137.247 452.446 135.55 450.036 133.282 448.564C133.758 448.165 134.183 447.696 134.533 447.164C136.124 444.739 135.365 441.534 133.293 439.654C132.819 439.227 132.286 438.872 131.717 438.602C137.586 435.989 143.301 433.046 148.818 429.749C151.788 427.975 154.703 426.101 157.55 424.132C158.971 423.148 160.387 422.152 161.766 421.112C163.133 420.085 164.446 418.978 165.399 417.539C166.881 415.292 167.062 411.791 164.807 409.942C163.612 408.977 162.106 408.866 160.644 409.111Z" fill="#FFA498"/>
<path d="M84.3651 474.849C79.9271 474.069 75.7259 472.172 72.2429 469.309C71.8799 469.01 71.3599 468.969 71.015 469.327C70.7087 469.641 70.6675 470.254 71.033 470.558C74.7528 473.616 79.214 475.706 83.9635 476.543C85.0575 476.736 85.4694 475.047 84.3651 474.849Z" fill="#18181B"/>
<path d="M124.364 463.291C123.69 463.157 123.018 463.013 122.349 462.861C122.256 462.647 122.071 462.477 121.767 462.418C120.833 462.238 119.87 462.078 118.899 461.986C114.647 460.802 110.502 459.236 106.533 457.285C105.531 456.793 104.689 458.312 105.696 458.809C108.381 460.13 111.148 461.278 113.972 462.264C113.584 462.364 113.2 462.485 112.822 462.637C110.404 463.595 108.443 465.703 107.997 468.324C107.761 469.711 107.977 471.148 108.777 472.324C109.406 473.246 110.899 472.357 110.268 471.431C109.169 469.811 109.645 467.701 110.785 466.22C112.242 464.328 114.605 463.677 116.93 463.641C117.481 463.633 118.029 463.656 118.575 463.703C120.351 464.194 122.145 464.627 123.958 464.982C125.057 465.196 125.466 463.507 124.364 463.291Z" fill="#18181B"/>
<path d="M129.601 448.183C123.572 445.915 117.543 443.645 111.517 441.374C111.077 441.209 110.569 441.606 110.469 442.02C110.351 442.522 110.672 442.901 111.113 443.065C117.142 445.336 123.17 447.604 129.197 449.874C129.637 450.039 130.144 449.643 130.244 449.228C130.365 448.726 130.041 448.348 129.601 448.183Z" fill="#18181B"/>
<path d="M113.115 430.526C112.028 430.269 111.622 431.96 112.713 432.217C118.088 433.486 123.188 435.888 127.564 439.266C127.935 439.551 128.439 439.613 128.792 439.248C129.091 438.941 129.147 438.308 128.774 438.017C124.143 434.444 118.809 431.872 113.115 430.526Z" fill="#18181B"/>
<path d="M1011.07 113.254C1011.6 116.125 1014.76 117.649 1017.44 117.43C1019.16 117.291 1020.76 116.67 1022.32 115.97C1023.9 115.262 1025.45 114.5 1027 113.725C1030.09 112.176 1033.14 110.526 1036.12 108.775C1041.67 105.529 1047 101.935 1052.11 98.0482C1052.08 98.6763 1052.13 99.3147 1052.28 99.9325C1052.92 102.659 1055.37 104.865 1058.26 104.636C1058.9 104.584 1059.51 104.437 1060.09 104.211C1060.29 106.911 1061.58 109.555 1063.57 111.406C1067.16 114.758 1072.44 115.965 1077.24 115.617C1082.27 115.252 1087.12 113.128 1090.5 109.341C1092.08 107.57 1093.32 105.511 1094.08 103.258C1094.79 101.163 1095.09 98.684 1094.26 96.5757C1093.7 95.1778 1092.73 94.1147 1091.5 93.4454C1093.56 92.6525 1095.53 91.6254 1097.35 90.3692C1101.32 87.6225 1104.58 83.8821 1106.65 79.5162C1107.43 77.8686 1108.05 76.149 1108.5 74.3882C1112.99 71.7599 1117.47 69.1084 1121.93 66.4209C1130.54 61.2312 1139.07 55.9308 1147.54 50.5172C1155.74 45.2709 1163.87 39.919 1171.93 34.4693C1172.21 34.4332 1172.41 34.2788 1172.54 34.06C1172.65 33.9905 1172.75 33.9184 1172.86 33.8489C1173.19 33.6198 1173.28 33.2774 1173.23 32.9634C1173.25 32.8913 1173.27 32.8166 1173.27 32.742C1173.33 31.8976 1173.34 31.0559 1173.32 30.2167C1173.36 30.124 1173.38 30.0236 1173.37 29.9078C1173.32 27.6038 1173.05 25.3101 1172.57 23.0628C1172.34 21.4436 1172.03 19.8373 1171.62 18.2567C1169.63 10.4902 1165.44 3.36201 1159.57 -2.07738C1159.53 -2.19837 1159.47 -2.30902 1159.36 -2.39397C1158.71 -2.93714 1158.04 -3.45971 1157.36 -3.96941C1157.23 -4.07753 1157.1 -4.19083 1156.96 -4.29638C1152.47 -7.78964 1147.31 -10.3742 1141.84 -11.8672C1138.07 -13.0205 1134.17 -13.7438 1130.23 -13.9986C1130.03 -14.0115 1129.84 -13.9317 1129.69 -13.803C1129.62 -13.7618 1129.56 -13.7155 1129.49 -13.646C1128.21 -12.3048 1126.93 -10.961 1125.65 -9.61732C1115.19 1.34641 1104.72 12.3127 1094.26 23.2765C1083.83 34.2093 1073.4 45.1421 1062.96 56.075C1052.53 67.0078 1042.09 77.9407 1031.66 88.8735C1026.41 94.3721 1021.17 99.8682 1015.92 105.367C1014.72 106.626 1013.42 107.841 1012.34 109.208C1011.42 110.371 1010.79 111.746 1011.07 113.254Z" fill="#FFA498"/>
<path d="M1106.67 73.9783C1108.12 69.7154 1108.48 65.1204 1107.65 60.6875C1107.56 60.2267 1107.77 59.7504 1108.25 59.6192C1108.68 59.5007 1109.23 59.7633 1109.32 60.2241C1110.22 64.9607 1109.9 69.8749 1108.35 74.4391C1107.99 75.4945 1106.31 75.0415 1106.67 73.9783Z" fill="#18181B"/>
<path d="M1077.29 103.483C1077.5 102.826 1077.69 102.167 1077.88 101.508C1077.74 101.325 1077.68 101.081 1077.77 100.787C1078.06 99.8812 1078.39 98.9622 1078.77 98.0663C1079.78 93.7647 1080.4 89.3808 1080.6 84.9634C1080.65 83.8462 1082.39 83.841 1082.34 84.9634C1082.2 87.9521 1081.88 90.9305 1081.39 93.8806C1081.66 93.5871 1081.95 93.3091 1082.26 93.0517C1084.27 91.3913 1087.06 90.6885 1089.57 91.5612C1090.9 92.022 1092.05 92.9023 1092.7 94.1689C1093.21 95.1651 1091.71 96.0455 1091.2 95.0467C1090.31 93.3065 1088.23 92.7067 1086.38 92.9924C1084.02 93.3606 1082.31 95.1162 1081.16 97.137C1080.89 97.6158 1080.65 98.1075 1080.43 98.6069C1080 100.401 1079.52 102.185 1078.96 103.943C1078.62 105.006 1076.94 104.551 1077.29 103.483Z" fill="#18181B"/>
<path d="M1061.53 100.8C1062.44 94.4209 1063.35 88.047 1064.26 81.668C1064.33 81.2021 1064.92 80.9498 1065.33 81.063C1065.83 81.1995 1066.01 81.6654 1065.94 82.1314C1065.03 88.5104 1064.11 94.8842 1063.2 101.261C1063.14 101.727 1062.55 101.981 1062.13 101.868C1061.63 101.732 1061.46 101.266 1061.53 100.8Z" fill="#18181B"/>
<path d="M1053.98 77.8509C1054.28 76.7749 1055.95 77.2331 1055.65 78.3143C1054.18 83.6353 1053.83 89.2626 1054.69 94.7225C1054.76 95.1859 1054.57 95.657 1054.08 95.7909C1053.67 95.9042 1053.09 95.6493 1053.01 95.186C1052.1 89.4068 1052.42 83.4937 1053.98 77.8509Z" fill="#18181B"/>
<path d="M1000.58 415.043C998.386 416.964 998.677 420.457 1000.23 422.655C1001.23 424.064 1002.57 425.127 1003.97 426.115C1005.38 427.112 1006.83 428.061 1008.28 428.998C1011.19 430.875 1014.16 432.656 1017.18 434.337C1022.8 437.46 1028.6 440.222 1034.55 442.65C1033.99 442.935 1033.47 443.309 1033.01 443.751C1030.99 445.695 1030.34 448.921 1032 451.297C1032.37 451.817 1032.81 452.272 1033.3 452.656C1031.08 454.2 1029.45 456.661 1028.87 459.31C1027.81 464.106 1029.46 469.267 1032.2 473.219C1035.07 477.361 1039.37 480.46 1044.35 481.446C1046.68 481.91 1049.08 481.928 1051.41 481.439C1053.57 480.983 1055.86 479.979 1057.25 478.187C1058.17 477.001 1058.59 475.621 1058.54 474.22C1060.27 475.595 1062.16 476.769 1064.17 477.696C1068.55 479.711 1073.43 480.625 1078.24 480.185C1080.05 480.023 1081.85 479.678 1083.6 479.168C1088.14 481.701 1092.71 484.208 1097.29 486.682C1106.13 491.452 1115.04 496.107 1124 500.642C1132.69 505.037 1141.43 509.313 1150.23 513.483C1150.4 513.702 1150.63 513.799 1150.89 513.799C1151 513.853 1151.12 513.908 1151.23 513.962C1151.6 514.134 1151.94 514.039 1152.18 513.83C1152.25 513.812 1152.32 513.787 1152.39 513.756C1153.15 513.377 1153.88 512.96 1154.59 512.517C1154.69 512.497 1154.79 512.463 1154.88 512.402C1156.84 511.184 1158.68 509.781 1160.37 508.221C1161.65 507.207 1162.87 506.123 1164.03 504.967C1169.7 499.296 1173.71 492.068 1175.41 484.25C1175.49 484.154 1175.55 484.041 1175.57 483.91C1175.71 483.071 1175.82 482.229 1175.91 481.384C1175.94 481.215 1175.97 481.045 1175.99 480.875C1176.71 475.235 1176.31 469.471 1174.82 464.003C1173.9 460.173 1172.54 456.442 1170.75 452.923C1170.66 452.743 1170.49 452.622 1170.3 452.555C1170.24 452.517 1170.16 452.486 1170.07 452.465C1168.26 452.046 1166.45 451.624 1164.65 451.204C1149.89 447.772 1135.12 444.338 1120.36 440.907C1105.64 437.483 1090.92 434.059 1076.2 430.638C1061.48 427.214 1046.76 423.793 1032.04 420.37C1024.64 418.65 1017.24 416.928 1009.84 415.206C1008.14 414.812 1006.44 414.307 1004.71 414.076C1003.24 413.875 1001.74 414.034 1000.58 415.043Z" fill="#FFA498"/>
<path d="M1083.02 477.387C1087.43 476.468 1091.57 474.437 1094.96 471.466C1095.32 471.157 1095.84 471.098 1096.19 471.445C1096.51 471.749 1096.57 472.362 1096.21 472.676C1092.59 475.85 1088.2 478.082 1083.48 479.065C1082.39 479.294 1081.92 477.616 1083.02 477.387Z" fill="#18181B"/>
<path d="M1042.67 467.087C1043.34 466.933 1044.01 466.768 1044.67 466.595C1044.76 466.382 1044.94 466.204 1045.24 466.135C1046.17 465.926 1047.12 465.738 1048.09 465.615C1052.31 464.294 1056.4 462.6 1060.31 460.525C1061.29 460.003 1062.18 461.496 1061.19 462.021C1058.54 463.427 1055.82 464.66 1053.03 465.733C1053.42 465.821 1053.81 465.931 1054.19 466.068C1056.63 466.953 1058.66 468.997 1059.19 471.6C1059.46 472.98 1059.29 474.421 1058.53 475.623C1057.93 476.566 1056.41 475.724 1057.01 474.779C1058.06 473.126 1057.52 471.031 1056.33 469.584C1054.81 467.738 1052.43 467.164 1050.11 467.2C1049.56 467.208 1049.01 467.252 1048.47 467.314C1046.71 467.862 1044.93 468.351 1043.13 468.763C1042.04 469.015 1041.58 467.339 1042.67 467.087Z" fill="#18181B"/>
<path d="M1036.97 452.153C1042.92 449.698 1048.88 447.239 1054.83 444.783C1055.26 444.603 1055.79 444.982 1055.9 445.393C1056.03 445.893 1055.72 446.282 1055.29 446.459C1049.33 448.918 1043.38 451.374 1037.42 453.832C1036.99 454.01 1036.47 453.631 1036.36 453.219C1036.22 452.717 1036.53 452.334 1036.97 452.153Z" fill="#18181B"/>
<path d="M1052.89 433.985C1053.97 433.697 1054.43 435.372 1053.34 435.663C1048.01 437.102 1042.99 439.664 1038.73 443.175C1038.36 443.474 1037.86 443.551 1037.5 443.196C1037.19 442.9 1037.11 442.269 1037.47 441.968C1041.99 438.25 1047.24 435.511 1052.89 433.985Z" fill="#18181B"/>
<path d="M493.325 157.782C493.284 157.826 493.236 157.878 493.183 157.937C492.959 158.186 492.635 158.563 492.247 159.065C491.47 160.068 490.434 161.57 489.408 163.552C487.357 167.514 485.348 173.397 485.535 181.062C485.721 188.73 488.816 198.364 491.89 206.121C493.424 209.991 494.947 213.378 496.085 215.797C496.655 217.006 497.128 217.974 497.459 218.638C497.624 218.97 497.754 219.226 497.842 219.399C497.886 219.486 497.92 219.552 497.942 219.596L497.968 219.645L497.974 219.657L497.976 219.66C497.976 219.66 497.976 219.661 497.533 219.892L497.976 219.66L498.024 219.752L498.031 219.855C498.785 230.04 500.282 246.708 519.044 261.155C528.432 268.383 538.053 271.339 545.327 272.489C548.964 273.064 552.013 273.187 554.149 273.166C555.217 273.156 556.057 273.11 556.627 273.067C556.913 273.045 557.131 273.024 557.276 273.009C557.349 273.001 557.404 272.995 557.439 272.991L557.479 272.986L557.488 272.985L557.49 272.984H557.491L557.964 272.921L558.049 273.391V287L568 306L577 312.686L588.5 299.5L594.271 284.5L593.305 272.305L605.372 261.155L641.5 185.5L594.5 134L493.325 157.782Z" fill="#FFA498"/>
<path d="M493.325 157.782C493.284 157.826 493.236 157.878 493.183 157.937C492.959 158.186 492.635 158.563 492.247 159.065C491.47 160.068 490.434 161.57 489.408 163.552C487.357 167.514 485.348 173.397 485.535 181.062C485.721 188.73 488.816 198.364 491.89 206.121C493.424 209.991 494.947 213.378 496.085 215.797C496.655 217.006 497.128 217.974 497.459 218.638C497.624 218.97 497.754 219.226 497.842 219.399C497.886 219.486 497.92 219.552 497.942 219.596L497.968 219.645L497.974 219.657L497.976 219.66M493.325 157.782C493.388 157.799 493.46 157.819 493.541 157.841C493.885 157.931 494.399 158.052 495.094 158.179C496.483 158.432 498.593 158.707 501.503 158.802C507.323 158.993 516.342 158.467 529.193 155.62C542.05 152.771 550.584 149.204 555.915 146.34C558.58 144.908 560.444 143.652 561.646 142.749C562.089 142.416 562.443 142.13 562.713 141.902C562.746 142.068 562.785 142.255 562.829 142.463C563.029 143.387 563.352 144.709 563.847 146.306C564.837 149.501 566.519 153.807 569.287 158.25C574.829 167.148 584.726 176.594 602.088 178.773L602.428 178.815L602.59 178.514V178.513L602.592 178.51L602.6 178.497C602.607 178.484 602.618 178.464 602.632 178.438C602.662 178.386 602.707 178.308 602.766 178.207C602.886 178.006 603.065 177.715 603.301 177.359C603.773 176.647 604.471 175.68 605.372 174.663C607.183 172.62 609.773 170.42 612.96 169.623C616.112 168.834 619.776 169.841 622.831 171.694C625.898 173.554 628.206 176.175 628.756 178.446C629.927 183.293 630.763 193.901 623.381 201.996L623.218 202.175L623.257 202.414L623.258 202.415V202.419L623.261 202.436C623.263 202.451 623.267 202.475 623.272 202.508C623.281 202.572 623.295 202.67 623.311 202.8C623.344 203.059 623.388 203.446 623.432 203.949C623.518 204.955 623.6 206.428 623.584 208.28M493.325 157.782L594.5 134L641.5 185.5L605.372 261.155L593.305 272.305L594.271 284.5L588.5 299.5L577 312.686L568 306L558.049 287V273.391L557.964 272.921L557.491 272.984H557.49L557.488 272.985L557.479 272.986L557.439 272.991C557.404 272.995 557.349 273.001 557.276 273.009C557.131 273.024 556.913 273.045 556.627 273.067C556.057 273.11 555.217 273.156 554.149 273.166C552.013 273.187 548.964 273.064 545.327 272.489C538.053 271.339 528.432 268.383 519.044 261.155C500.282 246.708 498.785 230.04 498.031 219.855L498.024 219.752L497.976 219.66M497.976 219.66C497.976 219.66 497.976 219.661 497.533 219.892L497.976 219.66ZM592.026 264.291L591.767 264.479L591.829 264.793L594.603 278.916C594.604 278.92 594.604 278.924 594.604 278.929C594.605 278.938 594.606 278.948 594.607 278.96C594.61 279.009 594.615 279.082 594.619 279.178C594.629 279.37 594.639 279.654 594.641 280.017C594.643 280.743 594.612 281.781 594.474 283.025C594.198 285.514 593.496 288.808 591.799 292.05C590.082 295.331 586.536 300.642 583.403 305.153C581.839 307.404 580.384 309.449 579.32 310.931C578.787 311.671 578.353 312.271 578.052 312.686" stroke="#18181B"/>
<path d="M626.394 124.593C614.182 111.99 595.936 102.638 578.341 108.597C575.429 101.907 569.287 96.6628 562.21 94.5879C551.862 91.5477 540.947 94.6678 532.138 100.434C520.121 102.599 509.173 108.963 501.226 118.073C492.24 120.93 484.53 127.525 479.888 135.799C472.853 148.338 472.526 163.465 475.852 177.165C477.852 185.402 481.142 193.277 484.857 200.876C485.907 203.023 488.875 201.582 488.679 199.54C488.721 199.288 488.718 199.02 488.656 198.729C485.904 185.547 487.33 171.612 492.731 159.276C495.509 160.041 498.51 160.105 501.383 159.995C506.828 159.789 512.278 159.392 517.689 158.756C528.189 157.523 538.545 155.281 548.289 151.1C553.002 149.077 557.492 146.596 561.659 143.617C563.819 151.435 569.328 158.55 574.363 164.538C577.839 168.67 581.88 172.22 586.694 174.717C591.454 177.185 596.605 178.766 601.72 180.308C602.459 180.532 603.074 180.359 603.519 179.981C604.243 179.713 604.855 179.106 604.969 178.158C605.486 173.911 609.082 170.438 613.144 169.463C617.755 168.356 622.7 170.364 625.825 173.777C632.75 181.34 630.824 193.498 624.028 200.403C623.181 201.262 623.31 202.331 623.879 203.072C626.204 230.372 609.772 248.281 593.001 264.231C592.308 264.888 592.236 265.68 592.517 266.352C592.525 266.409 592.535 266.468 592.548 266.525L593.006 268.512C592.599 269.997 594.265 271.902 596.1 270.973C621.596 258.045 641.623 233.963 648.165 205.966C654.809 177.499 646.854 145.71 626.394 124.593Z" fill="#18181B"/>
<path d="M515.022 208.625C514.468 205.021 510.81 202.46 507.364 203.113C506.918 203.121 506.465 203.193 505.991 203.358C505.09 203.672 504.28 204.143 503.68 204.838C503.523 204.964 503.379 205.129 503.26 205.34C500.815 209.595 502.516 214.152 507.127 215.869C511.598 217.534 515.683 212.932 515.022 208.625Z" fill="#18181B"/>
<path d="M565.739 191.924C565.186 188.32 561.528 185.758 558.081 186.41C557.635 186.417 557.18 186.489 556.709 186.657C555.808 186.971 554.997 187.439 554.397 188.134C554.24 188.263 554.096 188.428 553.975 188.636C551.532 192.892 553.231 197.45 557.844 199.167C562.315 200.833 566.401 196.23 565.739 191.924Z" fill="#18181B"/>
<path d="M625.463 171.88C621.957 168.989 617.244 167.684 612.78 168.724C608.525 169.717 604.712 172.74 602.812 176.678C602.56 177.198 602.341 177.734 602.151 178.279C601.994 178.722 602.326 179.229 602.756 179.348C603.235 179.479 603.67 179.186 603.827 178.74C605.124 175.033 608.265 172.024 611.977 170.76C614.031 170.062 616.186 169.952 618.255 170.34C612.989 174.524 609.315 180.622 608.077 187.246C607.706 189.23 607.544 191.259 607.621 193.277C607.451 193.55 607.441 193.946 607.595 194.209C607.858 194.654 608.352 194.706 608.785 194.52C610.177 193.921 612.039 194.193 613.2 195.226C614.412 196.307 614.914 197.99 614.536 199.507C614.265 200.59 615.939 201.056 616.211 199.97C616.747 197.826 616.054 195.378 614.35 193.928C612.945 192.734 611.109 192.286 609.351 192.59C609.3 187.457 610.824 182.347 613.596 178.035C617.707 180.504 620.642 184.893 621.221 189.673C621.278 190.142 621.579 190.543 622.088 190.543C622.516 190.543 623.015 190.144 622.956 189.673C622.307 184.311 619.2 179.412 614.577 176.604C615.043 175.975 615.534 175.365 616.054 174.781C617.311 173.368 618.716 172.088 620.256 170.989C620.289 170.966 620.317 170.938 620.348 170.912C621.411 171.301 622.433 171.821 623.381 172.469C625.036 173.599 626.421 175.121 627.373 176.887C628.516 179 629.054 181.417 629.217 183.801C629.538 188.53 628.424 193.357 625.808 197.334C623.185 201.322 619.048 204.269 614.376 205.301C613.285 205.543 613.745 207.217 614.839 206.977C619.427 205.963 623.522 203.208 626.38 199.507C629.505 195.457 631.055 190.304 631.008 185.209C630.967 180.22 629.42 175.144 625.463 171.88Z" fill="#18181B"/>
<path d="M541.706 223.342C540.475 224.57 538.522 224.755 536.897 224.379C535.312 224.014 533.896 223.146 532.799 221.954C531.718 220.778 530.958 219.226 530.843 217.619C530.727 216.018 531.149 214.437 531.973 213.065C532.905 211.518 534.349 210.277 536.073 209.714C536.478 209.58 536.866 209.096 536.681 208.645C534.74 203.96 532.799 199.273 530.855 194.587C530.675 194.152 530.279 193.843 529.787 193.98C529.378 194.093 528.999 194.613 529.18 195.048C531.023 199.499 532.866 203.947 534.709 208.398C531.37 209.914 529.048 213.433 529.084 217.135C529.123 221.215 532.194 224.889 536.079 225.967C538.395 226.611 541.168 226.336 542.936 224.572C543.729 223.779 542.499 222.549 541.706 223.342Z" fill="#18181B"/>
<path d="M560.911 232.025C555.458 232.212 550.166 234.761 546.564 238.854C545.548 240.01 544.659 241.279 543.944 242.643C543.424 243.634 544.925 244.515 545.445 243.521C547.767 239.096 551.945 235.778 556.746 234.421C558.107 234.035 559.495 233.814 560.911 233.762C562.025 233.724 562.031 231.986 560.911 232.025Z" fill="#18181B"/>
<path d="M565.841 134.131C564.127 137.294 562.415 140.456 560.701 143.619C560.168 144.605 561.668 145.483 562.201 144.497C563.916 141.333 565.628 138.172 567.342 135.008C567.875 134.025 566.374 133.145 565.841 134.131Z" fill="#18181B"/>
<path d="M497.463 159.042C493.216 158.375 489.177 156.797 485.606 154.398C484.677 153.772 483.804 155.278 484.731 155.898C488.407 158.37 492.624 160.028 497.003 160.715C497.466 160.787 497.937 160.596 498.071 160.11C498.184 159.695 497.929 159.114 497.463 159.042Z" fill="#18181B"/>
<path d="M594.844 138.621C590.488 134.641 585.559 131.289 580.238 128.736C578.703 128.002 577.138 127.333 575.553 126.725C575.115 126.558 574.6 126.911 574.484 127.33C574.35 127.819 574.652 128.231 575.092 128.398C580.4 130.432 585.42 133.256 589.917 136.729C591.194 137.715 592.424 138.76 593.616 139.846C594.44 140.6 595.673 139.375 594.844 138.621Z" fill="#18181B"/>
<path d="M612.791 144.142C609.779 139.586 606.005 135.588 601.678 132.265C597.376 128.959 592.539 126.367 587.411 124.604C584.546 123.618 581.591 122.91 578.589 122.49C578.126 122.426 577.655 122.603 577.521 123.095C577.41 123.502 577.66 124.099 578.126 124.163C583.326 124.892 588.392 126.493 593.07 128.877C597.752 131.266 602.038 134.391 605.719 138.144C607.792 140.255 609.658 142.554 611.29 145.02C611.905 145.952 613.411 145.082 612.791 144.142Z" fill="#18181B"/>
<path d="M562.939 137.869C558.952 132.131 553.394 127.512 547.002 124.681C545.182 123.875 543.308 123.203 541.385 122.691C540.304 122.403 539.84 124.076 540.924 124.364C547.352 126.084 553.242 129.587 557.855 134.381C559.163 135.74 560.362 137.199 561.438 138.747C561.706 139.13 562.198 139.31 562.628 139.058C563.009 138.837 563.207 138.255 562.939 137.869Z" fill="#18181B"/>
<path d="M565.675 117.633C563.36 113.8 560.217 110.471 556.508 107.959C554.412 106.538 552.126 105.41 549.732 104.586C549.287 104.434 548.782 104.759 548.661 105.194C548.53 105.67 548.824 106.108 549.269 106.262C553.246 107.624 556.85 109.961 559.813 112.932C562.758 115.887 565.098 119.481 566.537 123.402C567.356 125.633 567.901 127.966 568.105 130.337C568.146 130.805 568.475 131.204 568.975 131.204C569.412 131.204 569.884 130.808 569.842 130.337C569.459 125.845 568.004 121.491 565.675 117.633Z" fill="#18181B"/>
<path d="M630.482 196.85C630.394 196.389 629.838 196.126 629.411 196.245C628.927 196.379 628.716 196.85 628.806 197.313C630.5 206.289 629.38 215.814 625.714 224.18C624.661 226.587 623.402 228.896 621.956 231.087C621.338 232.022 622.841 232.894 623.456 231.965C628.716 224.008 631.455 214.432 631.308 204.904C631.264 202.201 630.981 199.504 630.482 196.85Z" fill="#18181B"/>
<path d="M575.296 312.981C569.919 308.614 565.416 303.758 562.156 297.494C559.288 291.982 557.538 285.921 557.355 279.676C556.305 280.19 555.267 280.728 554.239 281.289C554.236 281.291 554.234 281.292 554.231 281.294C554.211 281.306 554.186 281.321 554.156 281.336L554.104 281.362L554.049 281.382C550.375 282.712 547.211 285.072 544.659 288.041L544.503 288.223L544.282 288.314C523.084 297.053 503.288 309.012 485.673 323.695C467.736 338.646 452.177 356.389 439.725 376.142C427.015 396.307 417.504 418.51 411.707 441.632C406.104 463.992 401.761 490.331 415.623 510.069C428.971 529.079 452.283 536.374 474.661 539.217L475.522 539.326L475.535 540.194C475.553 541.402 475.583 542.608 475.627 543.818V543.832V543.845C475.635 544.65 475.653 545.458 475.678 546.266L475.679 546.297L475.678 546.328C475.552 550.432 475.452 554.536 475.385 558.639C475.267 565.793 475.236 572.946 475.29 580.102C475.32 583.984 475.373 587.868 475.453 591.749L476.125 590.486L476.995 592.206C477.307 592.823 477.678 593.404 478.097 593.937L479.882 596.214C495.973 601.658 512.483 605.843 529.225 608.739C547.792 611.95 566.627 613.603 585.469 613.685C604.313 613.767 623.161 612.273 641.759 609.237C660.434 606.185 678.853 601.552 696.728 595.347C714.262 589.261 731.851 582.053 746.668 570.903C748.393 569.608 750.077 568.255 751.721 566.854L751.636 566.764L751.597 566.431L750.006 552.878L750.004 552.861L750.003 552.845C749.791 550.339 749.485 547.835 749.119 545.335L749.117 545.321L749.115 545.307L748.075 536.437V536.436L780 491.572L785.979 479.5L789.943 467L791.807 454L791.608 441.632L784.877 413L771.258 385.018L754.5 360.761L735.863 340L695.599 307.5L649.604 283.16L618.5 273.578L595.646 271.242L594.652 284L592.5 293.5L580.5 309.5L575.296 312.981ZM575.296 312.981C575.93 313.496 576.704 313.766 577.497 313.67C578.296 313.574 578.99 313.121 579.477 312.426L575.296 312.981Z" fill="#FC9045"/>
<path d="M649.985 282.236L649.604 283.16M649.604 283.16C632.111 275.952 612.986 270.971 594.101 271.254C594.785 273.414 595.389 275.646 595.646 277.987L594.652 278.096M649.604 283.16C674.478 293.409 697.931 307.442 718.711 324.526C739.016 341.222 756.798 361.088 770.403 383.592M649.604 283.16L695.599 307.5L735.863 340L754.5 360.761L771.258 385.018L784.877 413L791.608 441.632L791.807 454L789.943 467L785.979 479.5L780 491.572L748.075 536.436M649.604 283.16L618.5 273.578L595.646 271.242L594.652 284L592.5 293.5L580.5 309.5L575.296 312.981M770.403 383.592L771.258 383.074M770.403 383.592C785.169 408.014 796.319 436.965 790.264 465.552M790.264 465.552L791.242 465.759M790.264 465.552C785.062 490.128 768.469 511.093 748.365 525.773L747.967 526.064L747.955 526.558L747.785 533.876L747.784 533.945L747.792 534.014C747.884 534.821 747.98 535.63 748.075 536.436M748.075 536.436V536.437L749.115 545.307L749.117 545.321L749.119 545.335C749.485 547.835 749.791 550.339 750.003 552.845L750.004 552.861L750.006 552.878L751.597 566.431L751.636 566.764L751.721 566.854C750.077 568.255 748.393 569.608 746.668 570.903C731.851 582.053 714.262 589.261 696.728 595.347C678.853 601.552 660.434 606.185 641.759 609.237C623.161 612.273 604.313 613.767 585.469 613.685C566.627 613.603 547.792 611.95 529.225 608.739C512.483 605.843 495.973 601.658 479.882 596.214L478.097 593.937C477.678 593.404 477.307 592.823 476.995 592.206L476.125 590.486L475.453 591.749C475.373 587.868 475.32 583.984 475.29 580.102C475.236 572.946 475.267 565.793 475.385 558.639C475.452 554.536 475.552 550.432 475.678 546.328L475.679 546.297L475.678 546.266C475.653 545.458 475.635 544.65 475.627 543.845V543.832V543.818C475.583 542.608 475.553 541.402 475.535 540.194L475.522 539.326L474.661 539.217C452.283 536.374 428.971 529.079 415.623 510.069M575.296 312.981C569.919 308.614 565.416 303.758 562.156 297.494C559.288 291.982 557.538 285.921 557.355 279.676C556.305 280.19 555.267 280.728 554.239 281.289C554.236 281.291 554.234 281.292 554.231 281.294C554.211 281.306 554.186 281.321 554.156 281.336L554.104 281.362L554.049 281.382C550.375 282.712 547.211 285.072 544.659 288.041L544.503 288.223L544.282 288.314C523.084 297.053 503.288 309.012 485.673 323.695C467.736 338.646 452.177 356.389 439.725 376.142C427.015 396.307 417.504 418.51 411.707 441.632C406.104 463.992 401.761 490.331 415.623 510.069M575.296 312.981C575.93 313.496 576.704 313.766 577.497 313.67C578.296 313.574 578.99 313.121 579.477 312.426L575.296 312.981ZM415.623 510.069L414.804 510.644M474.182 594.51H474.184" stroke="#18181B" stroke-width="2"/>
<path d="M587.609 528.031C586.553 522.602 585.565 517.16 584.648 511.707C583.691 506.016 582.81 500.314 582.005 494.599C581.549 491.368 581.119 488.132 580.712 484.891C580.653 484.425 580.355 484.024 579.842 484.024C579.536 484.024 579.191 484.232 579.044 484.526C577.636 484.907 576.207 485.301 574.745 485.391C573.265 485.481 571.854 485.156 570.402 484.953C569.795 484.868 569.19 484.809 568.58 484.806C568.503 484.752 568.418 484.709 568.32 484.685C566.263 484.201 564.206 483.717 562.149 483.236C561.763 483.146 561.357 483.311 561.163 483.648C559.861 482.886 558.566 482.109 557.269 481.341C556.571 480.93 555.927 481.596 555.981 482.214C553.466 481.241 550.99 480.168 548.56 479.03C546.223 477.931 543.916 476.772 541.63 475.57C539.432 474.417 537.251 473.222 534.986 472.2C532.69 471.165 530.308 470.277 527.814 469.865C525.384 469.461 522.938 469.513 520.529 470.038C515.172 471.207 510.502 474.391 506.072 477.472C505.879 477.609 505.74 477.797 505.678 478.008C504.965 478.608 504.347 479.321 503.858 480.116C503.418 480.209 502.98 480.307 502.545 480.41C500.373 480.924 498.228 481.452 495.996 481.622C491.589 481.957 487.138 481.509 482.778 482.389C480.911 482.765 479.078 483.398 477.444 484.376C476.646 484.508 475.85 484.652 475.065 484.835C473.387 485.223 471.703 486.016 470.972 487.679C470.228 489.365 470.596 491.198 470.522 492.982C470.321 493.204 470.207 493.513 470.326 493.788C470.452 494.087 470.861 494.849 470.485 495.075C470.249 495.219 469.868 495.222 469.6 495.286C469.27 495.366 468.943 495.5 468.65 495.672C468.102 495.997 467.656 496.473 467.1 496.787C466.508 497.122 465.772 496.988 465.146 497.271C463.785 497.878 463.046 499.469 462.871 500.872C462.84 501.122 462.832 501.369 462.837 501.616C462.678 501.691 462.523 501.784 462.377 501.897C462.024 502.17 462.055 502.847 462.377 503.127C462.765 503.462 463.151 503.797 463.538 504.134C463.679 504.376 463.834 504.613 464.014 504.832C464.683 505.65 465.615 506.234 466.629 506.528C466.84 506.626 467.059 506.7 467.283 506.752C467.206 506.919 467.136 507.092 467.072 507.262C466.766 507.215 466.439 507.318 466.225 507.655C465.458 508.87 465.37 510.392 465.759 511.754C466.171 513.198 467.098 514.418 468.089 515.515C469.072 516.601 470.097 517.685 471.289 518.547C472.565 519.471 473.976 519.821 475.518 520.02C476.208 520.11 476.898 520.192 477.588 520.282C477.384 522.527 477.817 524.805 478.888 526.81C479.624 528.185 480.659 529.408 481.884 530.378C482.615 531.061 483.457 531.599 484.404 531.895C484.693 531.985 484.955 531.902 485.154 531.735C488.461 532.821 491.975 532.973 495.415 533.344C497.216 533.54 498.988 533.843 500.743 534.302C502.592 534.783 504.422 535.282 506.314 535.563C510.165 536.134 514.068 536.407 517.942 536.796C520.511 537.053 523.077 537.308 525.644 537.566C525.644 538.073 526.046 538.387 526.511 538.433C530.697 538.835 534.896 539.082 539.1 539.18C539.105 539.435 539.233 539.679 539.535 539.834C541.017 540.588 542.652 540.624 544.269 540.413C545.988 540.189 547.698 539.852 549.391 539.486C550.038 539.345 550.679 539.195 551.322 539.041C552.303 538.992 553.284 538.94 554.264 538.879C554.62 538.855 554.931 538.649 555.065 538.338C555.104 538.346 555.137 538.356 555.178 538.359C556.728 538.451 558.262 538.122 559.737 537.671C561.279 537.203 562.803 536.665 564.335 536.155L573.584 533.074C575.33 532.492 577.075 531.91 578.823 531.328C579.142 531.22 579.32 530.994 579.389 530.739C579.536 530.765 579.683 530.783 579.829 530.785C580.169 530.793 580.53 530.734 580.846 530.605C580.959 530.577 581.06 530.525 581.142 530.448C581.186 530.42 581.219 530.389 581.253 530.353C582.918 529.781 584.697 529.3 586.417 529.75C586.631 529.897 586.914 529.956 587.158 529.889C587.166 529.887 587.174 529.884 587.181 529.882C587.503 529.817 587.81 529.573 587.869 529.259C587.951 528.785 587.864 528.37 587.609 528.031Z" fill="#FFA498"/>
<path d="M741.686 416.073L709.732 428.728C703.893 431.04 698.055 433.352 692.216 435.663L692.103 435.318C696.153 430.618 700.361 426.053 704.743 421.657C706.099 420.295 707.474 418.949 708.862 417.618C709.67 416.84 708.439 415.615 707.631 416.387C702.714 421.106 697.985 426.015 693.46 431.112C692.791 431.866 692.124 432.626 691.462 433.39C688.288 423.778 685.112 414.163 681.938 404.551L671.692 373.536C669.766 367.706 667.841 361.877 665.915 356.049C665.568 354.991 663.887 355.444 664.24 356.513C667.674 366.905 671.105 377.297 674.539 387.689C677.955 398.03 681.369 408.366 684.785 418.704C686.571 424.113 688.358 429.518 690.144 434.93C689.99 435.11 689.833 435.29 689.678 435.47C689.382 435.82 689.331 436.325 689.66 436.677L677.778 441.383C667.125 445.6 656.476 449.816 645.823 454.036C635.256 458.221 624.684 462.389 614.127 466.59C608.973 468.642 603.824 470.732 598.761 473.005C599.077 472.627 599.111 472.024 598.55 471.734C589.579 467.108 580.486 462.711 571.237 458.667C570.328 458.27 569.417 457.876 568.506 457.485C569.78 439.257 571.052 421.026 572.323 402.795C573.621 384.196 574.918 365.6 576.218 347.001L578.404 315.688C578.409 315.608 578.404 315.536 578.391 315.466C579.567 313.515 580.842 311.597 582.546 310.071C583.465 309.244 584.536 308.554 585.712 308.163C587.159 307.682 588.703 307.633 590.199 307.895C593.442 308.467 596.436 310.071 599.361 311.512C602.416 313.018 605.431 314.604 608.404 316.267C611.761 318.143 615.064 320.118 618.307 322.182C618.832 322.517 619.334 322.203 619.517 321.753C619.939 321.729 620.395 321.343 620.346 320.888C619.664 314.336 618.83 307.8 617.846 301.29C616.886 294.942 615.9 288.558 614.454 282.3C613.658 278.86 612.644 275.486 611.249 272.239C611.063 271.807 610.43 271.712 610.062 271.928C609.616 272.188 609.565 272.682 609.75 273.117C612.17 278.75 613.308 284.846 614.376 290.851C615.509 297.212 616.497 303.596 617.334 310.001C617.779 313.422 618.181 316.849 618.541 320.28C612.762 316.63 606.803 313.27 600.681 310.233C597.628 308.717 594.485 307.012 591.123 306.312C589.46 305.962 587.743 305.882 586.078 306.258C585.104 306.48 584.173 306.868 583.31 307.375C584.301 306.096 585.287 304.814 586.25 303.514C589.558 299.05 592.583 294.288 594.23 288.939C595.149 285.958 595.615 282.809 595.42 279.689C595.35 278.577 593.612 278.569 593.682 279.689C594.318 289.827 588.016 298.479 582.123 306.086C581.233 307.236 580.34 308.387 579.449 309.538L578.095 311.283C577.93 311.497 577.768 311.739 577.58 311.942C577.425 311.618 577.06 311.396 576.7 311.409C576.682 311.396 576.666 311.381 576.646 311.368C569.355 306.858 563.921 299.557 561.514 291.348C560.84 289.052 560.402 286.691 560.227 284.307C560.193 283.839 559.851 283.437 559.359 283.437C558.917 283.437 558.456 283.836 558.492 284.307C558.819 288.828 560.011 293.235 561.949 297.331C563.867 301.375 566.531 305.095 569.754 308.202C570.138 308.572 570.532 308.928 570.931 309.28C569.366 309.098 567.769 309.319 566.264 309.957C563.375 311.185 561.161 313.51 559.274 315.948C557.035 318.841 554.999 321.902 552.919 324.911C550.767 328.023 548.632 331.151 546.504 334.281C545.505 328.379 544.66 322.45 543.999 316.501C543.309 310.297 542.637 304.019 542.954 297.771C543.126 294.357 543.636 290.967 544.637 287.695C544.964 286.624 543.288 286.166 542.961 287.234C541.126 293.232 540.93 299.581 541.293 305.802C541.669 312.302 542.462 318.8 543.355 325.251C543.868 328.935 544.442 332.608 545.08 336.271C545.121 336.506 545.286 336.686 545.492 336.794C545.842 337.175 546.555 337.286 546.939 336.722C551.057 330.67 555.151 324.592 559.424 318.645C561.051 316.38 562.832 314.063 565.188 312.506C566.269 311.793 567.479 311.208 568.768 311.002C569.808 310.835 570.964 310.948 572.009 311.265C574.262 311.942 576.234 313.687 576.164 316.066C576.154 316.414 576.339 316.663 576.594 316.802C575.322 335.031 574.051 353.261 572.779 371.49L568.884 427.284L566.827 456.777C559.032 453.48 551.127 450.432 543.108 447.724C533.419 444.454 523.562 441.672 513.561 439.525C503.49 437.362 493.278 435.833 483.005 435.071C482.92 435.066 482.837 435.061 482.752 435.053C484.166 426.571 485.857 418.135 487.829 409.764C489.806 401.374 492.058 393.057 494.586 384.819C496.015 380.17 497.531 375.547 499.13 370.954C499.284 370.509 498.955 370.004 498.525 369.883C498.046 369.752 497.611 370.046 497.454 370.491C494.609 378.654 492.035 386.909 489.741 395.242C487.453 403.552 485.445 411.931 483.712 420.375C482.737 425.14 481.851 429.923 481.053 434.721C481.043 434.793 481.04 434.868 481.04 434.937C480.896 434.93 480.749 434.917 480.605 434.909C480.986 434.623 481.179 434.039 480.765 433.578C476.569 428.944 471.724 424.895 466.426 421.577C464.92 420.635 463.376 419.752 461.803 418.931C460.812 418.416 459.932 419.914 460.925 420.431C466.365 423.271 471.402 426.841 475.864 431.055C477.138 432.257 478.361 433.511 479.537 434.809C479.55 434.824 479.565 434.834 479.578 434.847C470.44 434.325 461.262 434.422 452.144 435.241C450.86 435.357 449.578 435.488 448.298 435.63C447.199 435.753 447.186 437.493 448.298 437.367C458.49 436.23 468.769 435.993 479.007 436.551C489.232 437.11 499.405 438.451 509.447 440.449C519.417 442.428 529.251 445.049 538.922 448.171C548.336 451.212 557.596 454.723 566.701 458.595V458.597C566.642 459.442 567.62 459.642 568.138 459.21C576.996 463.02 585.717 467.157 594.315 471.52C595.44 472.091 596.562 472.663 597.682 473.242C597.803 473.304 597.922 473.335 598.038 473.345C593.62 475.345 589.27 477.492 585.045 479.881C583.877 480.543 582.721 481.222 581.575 481.92C581.248 482.118 581.14 482.424 581.171 482.723C580.981 482.643 580.767 482.617 580.587 482.669C580.213 482.772 580.018 483.058 579.974 483.392C579.804 483.328 579.608 483.31 579.413 483.341C574.13 484.244 568.706 483.817 563.517 482.576C558.183 481.302 553.073 479.23 548.164 476.815C543.319 474.429 538.722 471.42 533.612 469.605C531.12 468.719 528.494 468.197 525.843 468.225C523.297 468.251 520.761 468.747 518.354 469.561C513.383 471.234 508.914 474.099 504.639 477.078C504.106 477.448 503.578 477.819 503.05 478.195C502.759 478.401 502.587 478.733 502.628 479.07C501.57 479.165 500.512 479.271 499.457 479.384C495.829 479.768 492.21 480.229 488.591 480.697C485.128 481.148 481.627 481.485 478.191 482.098C475.377 482.6 472.288 483.565 470.419 485.874C468.771 487.91 467.943 490.801 469.083 493.277C469.235 493.607 469.415 493.906 469.618 494.181C467.744 493.89 465.963 495.09 464.56 496.246C463.121 497.427 461.587 498.792 461.072 500.655C460.539 502.581 461.365 504.573 462.771 505.914C463.463 506.573 464.272 507.05 465.134 507.408C463.327 509.464 463.739 512.803 465.291 514.978C467.217 517.681 470.226 519.2 473.364 520.039C474.746 520.41 476.154 520.667 477.575 520.871C476.517 522.678 476.463 524.99 477.21 527.023C477.599 528.089 478.175 529.008 478.878 529.798C477.246 530.362 475.549 530.712 473.822 530.813C473.354 530.841 472.952 531.194 472.952 531.683C472.952 532.133 473.351 532.579 473.822 532.553C476.049 532.424 478.242 531.95 480.312 531.109C481.566 532.053 483.043 532.743 484.59 533.222C486.338 533.765 488.148 534.061 489.955 534.334C492.138 534.661 494.321 534.978 496.501 535.3C500.96 535.956 505.419 536.605 509.877 537.238C514.38 537.876 518.884 538.494 523.395 539.086C527.786 539.663 532.183 540.255 536.59 540.672C541.008 541.089 545.471 541.282 549.891 540.803C553.181 540.448 556.391 539.689 559.545 538.723C559.632 539.06 559.717 539.398 559.805 539.735C559.81 539.756 559.82 539.771 559.825 539.789C559.661 539.928 559.547 540.137 559.54 540.409C559.256 548.85 559.19 557.299 559.347 565.743C559.501 574.16 559.874 582.57 560.464 590.965C560.796 595.694 561.197 600.418 561.666 605.134C561.712 605.602 562.031 606.004 562.533 606.004C562.966 606.004 563.447 605.605 563.401 605.134C562.564 596.729 561.947 588.306 561.545 579.87C561.148 571.463 560.966 563.045 561.004 554.627C561.025 549.888 561.115 545.149 561.275 540.412C561.277 540.304 561.262 540.211 561.233 540.124C561.455 539.913 561.56 539.601 561.478 539.277L561.203 538.198C561.282 538.172 561.365 538.147 561.445 538.121C568.776 535.678 575.961 532.28 583.704 531.356C584.672 531.24 585.645 531.168 586.621 531.132C586.809 531.124 586.963 531.067 587.089 530.98C587.344 532.669 587.599 534.36 587.854 536.054C587.923 536.517 588.508 536.772 588.922 536.659C589.275 536.561 589.465 536.296 589.522 535.984C589.627 536.038 589.746 536.069 589.885 536.077C609.333 537.138 628.82 537.48 648.295 537.091C667.668 536.708 687.029 535.603 706.323 533.783C717.218 532.756 728.089 531.495 738.931 530.017C740.033 529.865 739.565 528.192 738.468 528.341C719.246 530.965 699.926 532.864 680.563 534.048C661.22 535.233 641.833 535.699 622.454 535.446C611.591 535.302 600.733 534.934 589.882 534.342C589.666 534.329 589.494 534.388 589.36 534.486C588.392 528.05 587.421 521.617 586.453 515.184C585.429 508.378 584.404 501.577 583.377 494.773C582.811 491.01 582.244 487.246 581.676 483.482C581.894 483.591 582.165 483.598 582.443 483.428C591.566 477.878 601.374 473.602 611.261 469.615C621.723 465.396 632.231 461.295 642.721 457.14L706.334 431.949C716.934 427.75 727.538 423.551 738.139 419.353C739.477 418.822 740.813 418.295 742.152 417.764C743.179 417.342 742.728 415.661 741.686 416.073ZM583.045 504.138C584.07 510.942 585.094 517.743 586.119 524.547C586.363 526.164 586.605 527.783 586.85 529.399C586.778 529.384 586.703 529.374 586.618 529.379C579.003 529.647 571.891 532.514 564.822 535.081C561.239 536.383 557.619 537.619 553.884 538.409C549.806 539.269 545.633 539.447 541.479 539.269C537.187 539.084 532.924 538.546 528.667 538.013C524.344 537.47 520.025 536.896 515.708 536.301C507.128 535.117 498.548 533.889 489.986 532.584C486.696 532.082 483.012 531.446 480.505 529.054C478.729 527.361 477.717 524.223 478.911 521.929C479.066 521.633 479.259 521.355 479.483 521.108C481.053 521.285 482.626 521.429 484.186 521.597C488.616 522.076 493.047 522.552 497.48 523.031C502.427 523.566 507.378 524.099 512.325 524.632C512.794 524.683 513.193 524.197 513.193 523.764C513.193 523.252 512.794 522.946 512.325 522.894C503.923 521.988 495.523 521.082 487.121 520.176C484.868 519.931 482.603 519.743 480.345 519.478C480.338 519.46 480.332 519.445 480.322 519.427C480.103 519.051 479.514 518.837 479.133 519.115C479.053 519.172 478.981 519.236 478.906 519.295C478.021 519.177 477.135 519.043 476.26 518.886C473.387 518.371 470.35 517.537 468.12 515.55C466.952 514.51 466.058 513.246 465.749 511.696C465.502 510.458 465.693 508.965 466.756 508.198C466.846 508.136 466.923 508.056 466.988 507.971C467.428 508.069 467.873 508.149 468.318 508.213C470.617 508.53 472.947 508.666 475.261 508.823C477.632 508.986 480.006 509.109 482.382 509.199C487.134 509.377 491.888 509.413 496.643 509.3C501.969 509.176 507.29 508.867 512.596 508.381C513.061 508.337 513.463 508.01 513.463 507.51C513.463 507.075 513.064 506.599 512.596 506.643C503.696 507.459 494.751 507.771 485.818 507.565C481.352 507.464 476.888 507.233 472.435 506.875C470.447 506.713 468.385 506.643 466.47 506.048C464.931 505.57 463.384 504.563 462.83 502.972C462.174 501.09 463.412 499.564 464.735 498.362C465.492 497.672 466.282 496.995 467.168 496.475C467.994 495.991 468.88 495.677 469.817 496.009C470.259 496.166 470.769 495.834 470.888 495.404C470.89 495.391 470.89 495.381 470.893 495.37C472.363 496.354 474.296 496.686 476.062 496.727C477.655 496.763 479.254 496.647 480.842 496.578C482.69 496.503 484.539 496.423 486.387 496.349C493.749 496.042 501.112 495.736 508.477 495.432C509.401 495.394 510.325 495.355 511.249 495.316C512.364 495.27 512.369 493.532 511.249 493.579L489.94 494.464C486.39 494.611 482.837 494.758 479.285 494.907C476.87 495.007 473.799 495.409 471.724 493.852C469.835 492.428 470.012 489.828 471.075 487.946C472.414 485.573 475.048 484.53 477.588 483.972C479.022 483.655 480.482 483.477 481.936 483.287C483.694 483.055 485.455 482.829 487.213 482.6C490.717 482.144 494.221 481.688 497.732 481.294C504.739 480.507 511.792 479.963 518.848 480.164C519.708 480.19 520.568 480.223 521.428 480.272C522.545 480.332 522.542 478.594 521.428 478.532C515.986 478.239 510.536 478.416 505.107 478.844C508.927 476.161 512.874 473.538 517.221 471.808C519.531 470.889 521.968 470.207 524.455 470.014C527.014 469.816 529.534 470.14 531.982 470.889C537.108 472.46 541.664 475.492 546.424 477.883C551.333 480.347 556.432 482.512 561.751 483.92C566.953 485.297 572.411 485.941 577.776 485.313C578.473 485.23 579.171 485.13 579.868 485.012C579.974 484.994 580.067 484.95 580.146 484.888C581.112 491.303 582.077 497.721 583.045 504.138Z" fill="#18181B"/>
</g>
</svg>
