<svg width="1152" height="490" viewBox="0 0 1152 490" fill="none" xmlns="http://www.w3.org/2000/svg">
<rect width="360" height="208" fill="#FFEDD5"/>
<mask id="mask0_427_2" style="mask-type:alpha" maskUnits="userSpaceOnUse" x="0" y="0" width="1152" height="490">
<path d="M0 8.00001C0 3.58173 3.58172 0 8 0H1144C1148.42 0 1152 3.58172 1152 8V482C1152 486.418 1148.42 490 1144 490H7.99997C3.58169 490 0 486.418 0 482V8.00001Z" fill="#FFEDD5"/>
</mask>
<g mask="url(#mask0_427_2)">
<path d="M519.045 258.12C520.857 253.022 521.236 247.398 520.044 242.09C517.88 232.459 510.204 225.115 500.834 222.414C495.92 220.996 490.625 220.909 485.706 222.316C484.173 218.242 481.916 214.435 479.033 211.184C470.494 201.551 456.85 198.5 444.692 202.128C438.923 203.848 433.741 206.983 429.64 211.31C428.607 210.287 427.478 209.343 426.231 208.504C419.929 204.256 412.461 204.708 406.119 208.614C394.96 215.49 388.513 228.648 387.663 241.458C387.211 248.303 388.421 255.176 391.225 261.424C390.144 262.536 389.207 263.794 388.463 265.154C384.644 272.124 386.316 280.865 390.512 287.265C395.058 294.199 402.391 298.661 409.857 301.878C418.032 305.402 426.618 307.857 435.456 308.977C445.142 310.203 455.048 309.653 464.444 306.936C473.861 310.093 484.073 310.771 493.976 308.606C502.52 306.741 510.617 302.84 517.38 297.298C523.596 292.203 528.87 285.108 529.567 276.872C530.209 269.236 526.221 261.14 519.045 258.12Z" fill="#F8F7F5"/>
<path d="M344.794 113.48C346.212 109.492 346.509 105.096 345.575 100.945C343.881 93.4144 337.878 87.6694 330.553 85.5572C326.709 84.4497 322.569 84.3813 318.721 85.4809C317.521 82.2954 315.756 79.3177 313.502 76.774C306.826 69.243 296.157 66.8545 286.647 69.6928C282.136 71.0396 278.085 73.4912 274.876 76.874C274.068 76.0717 273.185 75.3352 272.209 74.6776C267.279 71.3553 261.44 71.7077 256.481 74.7617C247.756 80.1384 242.713 90.4288 242.05 100.446C241.695 105.799 242.642 111.173 244.833 116.06C243.989 116.931 243.258 117.915 242.674 118.977C239.686 124.43 240.993 131.264 244.276 136.27C247.829 141.691 253.564 145.179 259.401 147.694C265.793 150.451 272.509 152.371 279.419 153.247C286.992 154.205 294.741 153.776 302.086 151.65C309.451 154.118 317.437 154.649 325.179 152.958C331.86 151.498 338.191 148.449 343.481 144.114C348.342 140.129 352.467 134.579 353.012 128.142C353.522 122.171 350.405 115.842 344.794 113.48Z" fill="#F8F7F5"/>
<path d="M895.246 129.416C897.94 121.838 898.507 113.487 896.732 105.595C893.511 91.2826 882.087 80.3683 868.145 76.3473C860.831 74.2395 852.955 74.1158 845.632 76.2059C843.354 70.1478 839.991 64.4963 835.699 59.6578C822.992 45.3455 802.691 40.8075 784.595 46.1983C776.011 48.7567 768.299 53.4141 762.197 59.8478C760.657 58.3277 758.976 56.9226 757.122 55.6765C747.742 49.3621 736.632 50.0338 727.194 55.84C710.588 66.0605 700.991 85.6134 699.73 104.649C699.058 114.821 700.854 125.037 705.027 134.321C703.42 135.978 702.027 137.843 700.916 139.866C695.23 150.228 697.722 163.215 703.965 172.729C710.73 183.033 721.645 189.661 732.751 194.442C744.919 199.678 757.693 203.328 770.847 204.994C785.263 206.815 800.006 205.997 813.983 201.958C827.996 206.651 843.194 207.659 857.933 204.442C870.649 201.671 882.697 195.874 892.763 187.637C902.015 180.068 909.86 169.521 910.9 157.281C911.856 145.933 905.922 133.906 895.246 129.416Z" fill="#F8F7F5"/>
<path d="M663.863 283.249C659.372 252.075 660.196 207.909 650.571 177.761C638.799 140.89 629.474 123.637 605.558 109.222C593.153 101.746 580.145 105.494 565.654 107.344C565.604 107.349 565.557 107.359 565.509 107.37C563.137 105.587 560.169 104.487 557.242 104.014C550.75 102.964 543.96 104.371 537.987 106.954C524.787 112.66 513.031 126.591 507.691 139.614C501.641 154.369 498.811 160.713 494.239 179.661C490.344 195.812 489.649 211.997 486.603 233.677C483.999 252.201 480.595 275.076 479.795 292.647C479.772 293.165 479.698 293.576 479.882 293.92C479.787 294.891 480.445 290.819 481.692 290.743C504.908 289.278 528.122 287.815 551.339 286.35C574.555 284.887 597.769 283.422 620.986 281.96C634.138 281.131 650.768 287.171 663.92 286.342C665.194 286.26 664.034 284.448 663.863 283.249Z" fill="#27272A"/>
<path d="M551.132 259.105L551.558 259.041V258.61V238.932V238.553L551.194 238.45L551.191 238.449L551.176 238.445L551.115 238.427C551.061 238.411 550.979 238.386 550.871 238.352C550.655 238.284 550.334 238.18 549.921 238.036C549.095 237.748 547.899 237.301 546.428 236.666C543.485 235.396 539.442 233.377 535.052 230.381C526.323 224.426 516.234 214.622 510.675 199.189C510.766 199.08 510.888 198.931 511.036 198.745C511.383 198.313 511.875 197.681 512.462 196.881C513.636 195.281 515.19 193.003 516.713 190.289C519.692 184.978 522.59 177.928 522.206 170.999C522.239 170.989 522.274 170.978 522.311 170.966C522.625 170.864 523.085 170.712 523.671 170.507C524.843 170.098 526.518 169.478 528.538 168.635C532.577 166.949 537.999 164.37 543.528 160.792C554.182 153.9 565.323 143.244 567.604 128.072C567.648 128.16 567.694 128.251 567.742 128.346C568.321 129.486 569.182 131.116 570.315 133.085C572.579 137.021 575.933 142.315 580.286 147.742C588.891 158.471 601.471 169.803 617.344 172.091C617.326 172.265 617.305 172.481 617.283 172.738C617.219 173.46 617.143 174.498 617.092 175.761C616.989 178.286 616.985 181.72 617.379 185.347C617.773 188.97 618.568 192.81 620.077 196.135C621.52 199.314 623.632 202.052 626.698 203.654C626.62 203.83 626.515 204.058 626.382 204.334C626.038 205.051 625.508 206.088 624.766 207.363C623.283 209.914 620.956 213.414 617.587 217.195C610.852 224.756 599.951 233.448 583.288 237.944L582.916 238.044L582.918 238.43L583.05 257.73L583.054 258.264L583.586 258.225L583.55 257.726C583.586 258.225 583.586 258.225 583.587 258.225H583.588L583.595 258.224L583.625 258.222C583.652 258.22 583.693 258.218 583.747 258.215C583.856 258.208 584.018 258.199 584.232 258.189C584.661 258.169 585.296 258.146 586.118 258.132C587.763 258.103 590.156 258.111 593.141 258.259C599.114 258.554 607.454 259.407 616.922 261.637C635.701 266.06 658.887 275.896 676.833 297.521C676.437 297.661 675.867 297.859 675.134 298.107C673.586 298.631 671.309 299.376 668.398 300.258C662.576 302.022 654.218 304.337 644.082 306.535C623.807 310.932 596.433 314.861 568.01 313.001C539.55 311.139 517.13 307.197 501.83 303.721C494.18 301.983 488.309 300.362 484.354 299.176C482.376 298.583 480.877 298.099 479.874 297.763C479.454 297.623 479.121 297.509 478.876 297.423C478.974 297.221 479.107 296.958 479.278 296.64C479.722 295.817 480.426 294.625 481.461 293.163C483.53 290.238 486.923 286.232 492.205 281.939C502.764 273.357 520.894 263.613 551.132 259.105Z" fill="#FFA498" stroke="#27272A"/>
<path d="M547.865 168.921C547.386 165.806 544.227 163.597 541.25 164.157C540.866 164.165 540.474 164.228 540.063 164.37C539.285 164.641 538.585 165.046 538.067 165.646C537.93 165.756 537.806 165.898 537.704 166.082C535.591 169.757 537.062 173.695 541.044 175.179C544.906 176.615 548.436 172.64 547.865 168.921Z" fill="#27272A"/>
<path d="M599.043 168.921C598.564 165.806 595.405 163.597 592.43 164.157C592.046 164.165 591.654 164.228 591.244 164.37C590.465 164.641 589.765 165.046 589.247 165.646C589.11 165.756 588.987 165.898 588.884 166.082C586.772 169.757 588.242 173.695 592.228 175.179C596.086 176.615 599.617 172.64 599.043 168.921Z" fill="#27272A"/>
<path d="M572.621 189.528C570.366 190.006 568.088 189.088 566.205 187.902C564.419 186.779 562.693 185.229 562.583 182.975C562.475 180.76 563.667 178.816 565.313 177.43C565.718 177.088 566.158 176.794 566.607 176.512C567.068 176.228 567.539 175.904 567.783 175.405C568.07 174.818 568.033 174.174 568.028 173.54C568.023 172.869 568.015 172.201 568.009 171.53C567.981 168.479 567.954 165.427 567.925 162.376C567.917 161.411 566.415 161.408 566.423 162.376C566.45 165.204 566.476 168.031 566.502 170.862C566.507 171.58 566.515 172.301 566.521 173.019C566.523 173.361 566.529 173.705 566.531 174.05C566.531 174.297 566.555 174.587 566.405 174.8C566.152 175.155 565.611 175.363 565.258 175.605C564.763 175.944 564.29 176.32 563.851 176.73C562.096 178.374 560.894 180.721 561.094 183.172C561.302 185.727 562.983 187.557 565.027 188.931C567.36 190.496 570.187 191.579 573.021 190.98C573.965 190.774 573.565 189.328 572.621 189.528Z" fill="#27272A"/>
<path d="M581.775 198.483C579.307 200.966 576.054 202.655 572.605 203.265C568.907 203.92 565.153 203.22 561.644 201.979C559.771 201.319 557.959 200.38 556.63 198.864C556.362 198.559 556.33 198.102 556.63 197.804C556.904 197.531 557.425 197.497 557.693 197.804C558.737 198.999 560.118 199.801 561.589 200.364C563.256 201.003 565.029 201.463 566.784 201.784C569.977 202.368 573.328 201.932 576.267 200.543C577.919 199.764 579.423 198.717 580.71 197.42C581.393 196.736 582.456 197.796 581.775 198.483Z" fill="#27272A"/>
<path d="M614.661 161.355C610.649 160.003 606.814 158.177 603.203 155.97C599.58 153.758 596.192 151.177 593.065 148.31C589.85 145.364 586.904 142.126 584.242 138.675C581.48 135.095 579.01 131.286 576.793 127.348C574.554 123.371 572.568 119.251 570.793 115.045C570.577 114.538 570.366 114.025 570.159 113.514C570.006 113.138 569.659 112.873 569.235 112.988C568.88 113.088 568.557 113.535 568.712 113.912C570.469 118.22 572.418 122.447 574.633 126.54C576.832 130.605 579.292 134.534 582.048 138.243C584.726 141.847 587.67 145.251 590.918 148.352C594.062 151.356 597.484 154.084 601.138 156.444C604.783 158.795 608.677 160.766 612.749 162.265C613.248 162.449 613.753 162.628 614.261 162.796C615.179 163.109 615.574 161.663 614.661 161.355Z" fill="#27272A"/>
<path d="M633.673 236.24C633.342 227.849 632.863 219.463 632.242 211.087C631.627 202.815 630.943 194.531 629.946 186.295C629.007 178.541 627.547 170.839 624.412 163.644C621.602 157.207 617.596 151.284 612.68 146.27C612.072 145.649 611.446 145.042 610.809 144.45C610.102 143.792 609.039 144.85 609.749 145.51C614.85 150.268 619.045 155.94 622.102 162.208C625.453 169.081 627.139 176.552 628.165 184.094C629.265 192.203 629.914 200.395 630.551 208.554C631.195 216.811 631.698 225.079 632.056 233.354C632.416 241.669 632.634 249.987 632.711 258.307C632.719 259.349 632.726 260.388 632.732 261.427C632.737 262.392 634.236 262.395 634.234 261.427C634.186 253.028 634.002 244.631 633.673 236.24Z" fill="#27272A"/>
<path d="M597.662 132.835C594.737 129.907 591.485 127.311 587.99 125.104C587.169 124.586 586.417 125.885 587.232 126.401C590.625 128.545 593.764 131.06 596.602 133.898C597.283 134.579 598.346 133.519 597.662 132.835Z" fill="#27272A"/>
<path d="M639.088 243.331C638.738 237.321 638.541 231.302 638.501 225.284C638.478 221.89 638.504 218.494 638.58 215.101C638.601 214.136 637.099 214.136 637.078 215.101C636.944 221.143 636.965 227.191 637.141 233.233C637.318 239.251 637.649 245.262 638.133 251.262C638.407 254.645 638.73 258.022 639.101 261.397C639.146 261.8 639.414 262.147 639.851 262.147C640.222 262.147 640.645 261.802 640.6 261.397C639.945 255.392 639.438 249.365 639.088 243.331Z" fill="#27272A"/>
<path d="M520.186 161.355C524.197 160.003 528.033 158.177 531.647 155.97C535.269 153.758 538.655 151.177 541.785 148.31C544.999 145.364 547.945 142.126 550.607 138.675C553.369 135.095 555.839 131.286 558.057 127.348C560.295 123.371 562.281 119.251 564.057 115.045C564.273 114.538 564.483 114.025 564.691 113.514C564.844 113.138 565.191 112.873 565.614 112.988C565.969 113.088 566.293 113.535 566.138 113.912C564.381 118.22 562.431 122.447 560.217 126.54C558.017 130.605 555.558 134.534 552.801 138.243C550.123 141.847 547.18 145.251 543.931 148.352C540.788 151.356 537.368 154.084 533.712 156.444C530.066 158.795 526.173 160.766 522.101 162.265C521.599 162.449 521.094 162.628 520.586 162.796C519.668 163.109 519.273 161.663 520.186 161.355Z" fill="#27272A"/>
<path d="M501.175 236.24C501.504 227.849 501.982 219.463 502.606 211.087C503.221 202.815 503.905 194.531 504.905 186.295C505.844 178.541 507.301 170.839 510.439 163.644C513.249 157.207 517.255 151.284 522.171 146.27C522.779 145.649 523.405 145.042 524.042 144.45C524.749 143.792 525.812 144.85 525.102 145.51C520.004 150.268 515.806 155.94 512.749 162.208C509.398 169.081 507.709 176.552 506.686 184.094C505.584 192.203 504.934 200.395 504.3 208.554C503.655 216.811 503.156 225.079 502.795 233.354C502.432 241.669 502.214 249.987 502.14 258.307C502.132 259.349 502.124 260.388 502.119 261.427C502.114 262.392 500.615 262.395 500.617 261.427C500.662 253.028 500.843 244.631 501.175 236.24Z" fill="#27272A"/>
<path d="M537.184 132.835C540.109 129.907 543.36 127.311 546.859 125.104C547.677 124.586 548.432 125.885 547.616 126.401C544.223 128.545 541.085 131.06 538.247 133.898C537.56 134.579 536.5 133.519 537.184 132.835Z" fill="#27272A"/>
<path d="M495.763 243.331C496.113 237.321 496.308 231.302 496.347 225.284C496.371 221.89 496.345 218.494 496.268 215.101C496.247 214.136 497.749 214.136 497.768 215.101C497.902 221.143 497.881 227.191 497.705 233.233C497.528 239.251 497.197 245.262 496.713 251.262C496.439 254.645 496.116 258.022 495.745 261.397C495.7 261.8 495.432 262.147 494.995 262.147C494.624 262.147 494.201 261.802 494.245 261.397C494.903 255.392 495.411 249.365 495.763 243.331Z" fill="#27272A"/>
<path d="M625 310.5L627.873 308.762C632.314 307.984 636.73 307.021 641.134 306.06C643.742 305.492 646.346 304.924 648.948 304.396C651.124 303.954 653.309 303.59 655.504 303.225C656.609 303.041 657.716 302.857 658.826 302.662C662.129 302.082 665.431 301.412 668.662 300.389C671.963 299.346 675.13 298.015 678.159 296.419C685.41 309.267 692.189 322.38 698.462 335.731C710.003 360.301 719.885 385.656 727.996 411.563C736.17 437.666 742.536 464.333 747.043 491.315C747.047 491.341 747.065 491.461 747.088 491.633C737.609 501.643 727.187 511.267 715.649 518.625C709.731 522.398 703.428 525.349 697.095 528.314C694.248 529.646 691.396 530.982 688.57 532.396C684.561 533.822 680.57 535.305 676.593 536.845C654.851 542.055 632.782 545.933 610.518 547.931C585.263 550.198 559.756 550.027 534.616 546.645C511.905 543.59 489.524 537.934 468.267 529.357C448.651 521.444 430.108 511.09 413.334 498.223C412.802 497.692 412.263 497.163 411.712 496.646C411.373 496.277 411.033 495.911 410.692 495.546C410.694 494.245 410.697 492.943 410.702 491.642L418.389 459.5L424.902 427.5L431.946 395.5L440.896 363.236L449.835 342L460.5 321.634L474.495 301.792L478.511 297.137L505.5 304.5L526.5 308.364L548 311.5L566 313.5H586L601 313L625 310.5ZM420.575 448.979C417.664 463.275 414.567 477.558 410.702 491.642L420.575 448.979ZM410.702 491.642L420.575 448.979Z" fill="#FC9045"/>
<path d="M410.702 491.642C410.697 492.943 410.694 494.245 410.692 495.546C411.033 495.911 411.373 496.277 411.712 496.646C412.263 497.163 412.802 497.692 413.334 498.223C430.108 511.09 448.651 521.444 468.267 529.357C489.524 537.934 511.905 543.59 534.616 546.645C559.756 550.027 585.263 550.198 610.518 547.931C632.782 545.933 654.851 542.055 676.593 536.845C680.57 535.305 684.561 533.822 688.57 532.396C691.396 530.982 694.248 529.646 697.095 528.314C703.428 525.349 709.731 522.398 715.649 518.625C727.187 511.267 737.609 501.643 747.088 491.633C747.065 491.461 747.047 491.341 747.043 491.315C742.536 464.333 736.17 437.666 727.996 411.563C719.885 385.656 710.003 360.301 698.462 335.731C692.189 322.38 685.41 309.267 678.159 296.419C675.13 298.015 671.963 299.346 668.662 300.389C665.431 301.412 662.129 302.082 658.826 302.662C657.716 302.857 656.609 303.041 655.504 303.225C653.309 303.59 651.124 303.954 648.948 304.396C646.346 304.924 643.742 305.492 641.134 306.06C636.73 307.021 632.314 307.984 627.873 308.762L625 310.5L601 313L586 313.5H566L548 311.5L526.5 308.364L505.5 304.5L478.511 297.137L474.495 301.792L460.5 321.634L449.835 342L440.896 363.236M410.702 491.642C414.567 477.558 417.664 463.275 420.575 448.979M410.702 491.642L420.575 448.979M410.702 491.642L418.389 459.5L424.902 427.5L431.946 395.5L440.896 363.236M420.575 448.979C421.339 445.226 422.092 441.469 422.845 437.713C427.873 412.635 432.905 387.538 441.316 363.382M441.316 363.382L440.896 363.236M441.316 363.382C449.789 339.046 461.656 315.64 479.062 296.529C479.368 296.845 479.786 297.075 480.314 297.137C481.897 297.324 483.44 297.772 484.985 298.312C485.7 298.561 486.409 298.828 487.124 299.097L487.299 299.163C488.071 299.453 488.848 299.743 489.629 300.007M489.629 300.007L489.76 299.621M489.629 300.007C491.867 300.766 494.204 301.283 496.505 301.792C497.581 302.029 498.648 302.265 499.694 302.524C500.92 302.827 502.145 303.134 503.37 303.442C509.058 304.869 514.748 306.297 520.558 307.326C527.502 308.554 534.503 309.763 541.504 310.701L541.57 310.206" stroke="#27272A"/>
<path d="M488.21 358.136C482.565 365.793 478.288 374.421 475.486 383.509C472.672 392.637 471.34 402.238 471.567 411.787C471.798 421.483 473.75 430.89 477.054 439.988C477.996 442.582 478.948 445.226 479.279 447.982C479.632 450.913 479.34 453.877 478.998 456.794C478.303 462.734 477.577 468.671 476.867 474.608C475.447 486.5 474.024 498.39 472.603 510.28C472.424 511.779 472.245 513.279 472.066 514.778C471.953 515.735 473.453 515.727 473.566 514.778C474.981 502.938 476.396 491.101 477.811 479.261C478.516 473.366 479.221 467.474 479.926 461.582C480.613 455.842 481.607 450.076 480.079 444.386C479.374 441.767 478.34 439.257 477.464 436.695C476.699 434.459 476.036 432.194 475.468 429.9C474.334 425.3 473.597 420.61 473.261 415.885C472.585 406.4 473.479 396.817 475.881 387.616C478.28 378.417 482.181 369.621 487.499 361.737C488.149 360.774 488.82 359.827 489.509 358.894C490.08 358.118 488.775 357.365 488.21 358.136Z" fill="#27272A"/>
<path d="M667.99 534.766C667.061 529.371 666.206 523.963 665.422 518.544C665.246 517.334 665.078 516.124 664.909 514.912C664.912 514.869 664.912 514.825 664.907 514.777C664.728 513.278 664.549 511.779 664.367 510.279C662.947 498.39 661.524 486.497 660.103 474.607C659.393 468.67 658.67 462.734 657.975 456.794C657.633 453.877 657.341 450.915 657.694 447.982C658.025 445.228 658.978 442.581 659.919 439.988C663.223 430.889 665.175 421.482 665.404 411.787C665.63 402.238 664.299 392.634 661.484 383.509C658.683 374.421 654.408 365.793 648.761 358.135C648.193 357.365 646.891 358.114 647.464 358.893C648.153 359.827 648.827 360.774 649.474 361.737C654.792 369.62 658.691 378.416 661.092 387.615C663.491 396.817 664.386 406.399 663.712 415.885C663.376 420.609 662.639 425.302 661.505 429.9C660.94 432.194 660.274 434.459 659.509 436.694C658.633 439.257 657.599 441.769 656.894 444.386C655.366 450.078 656.36 455.842 657.047 461.581C657.752 467.474 658.457 473.366 659.162 479.261C660.548 490.872 661.937 502.483 663.326 514.091C663.318 514.178 663.318 514.27 663.331 514.359C664.075 519.783 664.891 525.199 665.777 530.6C666.027 532.123 666.282 533.643 666.545 535.164C666.614 535.563 667.106 535.787 667.469 535.687C667.89 535.576 668.058 535.169 667.99 534.766Z" fill="#27272A"/>
</g>
</svg>
