<svg width="360" height="208" viewBox="0 0 360 208" fill="none" xmlns="http://www.w3.org/2000/svg">
<rect width="360" height="208" fill="#FFEDD5"/>
<mask id="mask0_18_74" style="mask-type:alpha" maskUnits="userSpaceOnUse" x="0" y="0" width="360" height="208">
<path d="M0 20C0 8.95431 8.95431 0 20 0H340C351.046 0 360 8.95431 360 20V208H0V20Z" fill="#FFEDD5"/>
</mask>
<g mask="url(#mask0_18_74)">
<path d="M157.322 113.451C158.282 110.75 158.483 107.771 157.852 104.958C156.705 99.8554 152.638 95.964 147.673 94.5326C145.07 93.7814 142.264 93.7354 139.658 94.481C138.845 92.3221 137.649 90.3053 136.122 88.5827C131.598 83.4787 124.368 81.862 117.926 83.7839C114.87 84.6955 112.124 86.3568 109.951 88.6496C109.403 88.1074 108.805 87.607 108.145 87.1624C104.805 84.9115 100.848 85.1512 97.4881 87.221C91.5758 90.8642 88.1597 97.8358 87.7095 104.623C87.4698 108.25 88.1109 111.892 89.5967 115.202C89.0239 115.792 88.5277 116.458 88.1332 117.178C86.1095 120.872 86.9959 125.503 89.2189 128.894C91.6274 132.568 95.5132 134.932 99.4686 136.637C103.8 138.504 108.35 139.805 113.033 140.398C118.165 141.048 123.413 140.757 128.392 139.317C133.382 140.989 138.792 141.349 144.04 140.202C148.567 139.214 152.857 137.147 156.44 134.21C159.733 131.51 162.528 127.751 162.897 123.388C163.237 119.341 161.124 115.051 157.322 113.451Z" fill="#F8F7F5"/>
<path d="M64.9953 36.8139C65.7465 34.7009 65.904 32.372 65.4092 30.1726C64.5117 26.1823 61.3311 23.1383 57.4495 22.0191C55.4132 21.4324 53.2195 21.3961 51.1804 21.9787C50.5448 20.2909 49.6096 18.7131 48.4152 17.3654C44.8778 13.375 39.2247 12.1095 34.1863 13.6134C31.796 14.327 29.6496 15.626 27.9493 17.4183C27.5214 16.9932 27.0531 16.603 26.536 16.2546C23.9241 14.4942 20.8299 14.681 18.2027 16.2992C13.5796 19.148 10.9078 24.6004 10.5566 29.9078C10.3684 32.7441 10.8701 35.5915 12.0311 38.1811C11.5837 38.6425 11.1963 39.1637 10.8869 39.7268C9.30356 42.6161 9.99623 46.237 11.7356 48.8894C13.6186 51.7619 16.657 53.61 19.7497 54.9425C23.1366 56.4031 26.6949 57.4206 30.3563 57.8847C34.3689 58.392 38.4749 58.1648 42.3663 57.0387C46.2688 58.346 50.5002 58.6276 54.602 57.7314C58.1422 56.9578 61.497 55.3425 64.2998 53.0456C66.8755 50.934 69.0609 47.9932 69.3494 44.5827C69.6198 41.4188 67.9682 38.0655 64.9953 36.8139Z" fill="#F8F7F5"/>
<path d="M356.652 45.2578C358.08 41.2426 358.38 36.8176 357.44 32.6361C355.733 25.0527 349.68 19.2698 342.293 17.1392C338.418 16.0224 334.245 15.9569 330.365 17.0643C329.158 13.8544 327.376 10.86 325.102 8.29628C318.369 0.712921 307.613 -1.69157 298.024 1.16477C293.476 2.52037 289.39 4.98807 286.157 8.39695C285.341 7.59156 284.45 6.84703 283.468 6.1868C278.498 2.84113 272.611 3.19699 267.61 6.27341C258.812 11.6888 253.727 22.0489 253.059 32.135C252.702 37.5246 253.654 42.9376 255.865 47.8566C255.014 48.7346 254.275 49.7226 253.687 50.7949C250.674 56.2852 251.994 63.1662 255.302 68.2069C258.887 73.6667 264.67 77.1786 270.555 79.7119C277.002 82.4863 283.77 84.4202 290.74 85.3028C298.378 86.2674 306.189 85.8343 313.595 83.6944C321.02 86.1808 329.073 86.7146 336.882 85.0102C343.62 83.5422 350.004 80.4705 355.337 76.1063C360.239 72.0958 364.396 66.5072 364.947 60.0218C365.453 54.0095 362.31 47.6366 356.652 45.2578Z" fill="#F8F7F5"/>
<path d="M234.054 126.766C231.675 110.249 232.111 86.8477 227.011 70.8738C220.774 51.3375 215.833 42.1959 203.161 34.5581C196.588 30.597 189.696 32.5831 182.018 33.563C181.992 33.5657 181.967 33.5713 181.941 33.5769C180.684 32.6319 179.112 32.0493 177.561 31.7984C174.121 31.2423 170.524 31.988 167.359 33.3567C160.365 36.3797 154.136 43.7611 151.307 50.6616C148.101 58.4791 146.601 61.8409 144.179 71.8801C142.115 80.4378 141.747 89.0136 140.133 100.501C138.753 110.316 136.95 122.436 136.526 131.746C136.513 132.021 136.474 132.238 136.572 132.421C136.522 132.935 136.87 130.778 137.531 130.737C149.832 129.961 162.132 129.186 174.433 128.41C186.735 127.635 199.035 126.858 211.336 126.083C218.305 125.644 227.116 128.844 234.085 128.405C234.759 128.362 234.145 127.402 234.054 126.766Z" fill="#27272A"/>
<path d="M174.358 114.206L174.784 114.143V113.712V103.285V102.907L174.421 102.804L174.42 102.804L174.42 102.804L174.419 102.803L174.412 102.801L174.382 102.792C174.354 102.784 174.311 102.771 174.255 102.754C174.143 102.718 173.976 102.664 173.759 102.589C173.326 102.438 172.698 102.203 171.924 101.869C170.376 101.201 168.247 100.137 165.936 98.5605C161.364 95.4412 156.088 90.32 153.154 82.2733C153.186 82.2335 153.222 82.1887 153.262 82.139C153.447 81.9077 153.71 81.5706 154.024 81.1436C154.65 80.2902 155.479 79.075 156.291 77.6266C157.851 74.8458 159.388 71.139 159.24 67.4594C159.398 67.4075 159.604 67.3386 159.851 67.2523C160.475 67.0339 161.368 66.7038 162.443 66.2551C164.591 65.3583 167.478 63.9852 170.422 62.0802C175.924 58.5209 181.714 53.0474 183.165 45.2835C183.453 45.8354 183.827 46.5257 184.283 47.3191C185.488 49.4123 187.271 52.2278 189.587 55.1152C194.119 60.7655 200.756 66.7715 209.15 68.0691C209.147 68.1078 209.143 68.1486 209.139 68.1915C209.105 68.5776 209.065 69.1311 209.037 69.8046C208.983 71.1499 208.98 72.9817 209.191 74.9185C209.401 76.8517 209.826 78.9134 210.64 80.7061C211.388 82.3541 212.478 83.8031 214.057 84.695C214.035 84.7433 214.01 84.7956 213.983 84.8517C213.803 85.2262 213.525 85.7705 213.135 86.4404C212.356 87.7804 211.132 89.6214 209.359 91.6115C205.815 95.5897 200.077 100.166 191.3 102.535L190.928 102.635L190.93 103.021L191 113.247L191.004 113.781L191.536 113.742L191.537 113.742L191.54 113.742L191.555 113.741L191.618 113.737C191.675 113.733 191.76 113.729 191.872 113.723C192.097 113.713 192.432 113.701 192.865 113.693C193.732 113.678 194.994 113.682 196.57 113.76C199.724 113.916 204.128 114.366 209.128 115.544C218.971 117.863 231.092 122.993 240.528 134.219C240.364 134.276 240.172 134.342 239.951 134.417C239.132 134.693 237.928 135.087 236.389 135.554C233.309 136.487 228.887 137.712 223.523 138.875C212.793 141.202 198.312 143.28 183.282 142.296C168.215 141.311 156.349 139.224 148.253 137.384C144.205 136.465 141.099 135.607 139.008 134.98C137.963 134.667 137.171 134.411 136.642 134.234C136.541 134.201 136.451 134.17 136.369 134.142C136.396 134.09 136.426 134.034 136.459 133.973C136.689 133.545 137.057 132.922 137.6 132.155C138.685 130.622 140.468 128.515 143.249 126.255C148.807 121.737 158.373 116.59 174.358 114.206Z" fill="#FFA498" stroke="#27272A"/>
<path d="M172.592 66.1895C172.339 64.5393 170.665 63.3685 169.087 63.6654C168.884 63.6696 168.676 63.703 168.458 63.7783C168.046 63.9218 167.675 64.1365 167.401 64.4542C167.328 64.5128 167.263 64.588 167.208 64.6856C166.089 66.6327 166.868 68.7191 168.978 69.5052C171.024 70.2662 172.895 68.1602 172.592 66.1895Z" fill="#27272A"/>
<path d="M199.709 66.1895C199.456 64.5393 197.782 63.3685 196.205 63.6654C196.002 63.6696 195.794 63.703 195.577 63.7783C195.164 63.9218 194.794 64.1365 194.519 64.4542C194.446 64.5128 194.381 64.588 194.327 64.6856C193.207 66.6327 193.987 68.7191 196.098 69.5052C198.143 70.2662 200.013 68.1602 199.709 66.1895Z" fill="#27272A"/>
<path d="M185.709 77.1082C184.515 77.3618 183.308 76.8754 182.31 76.2468C181.363 75.6517 180.449 74.8308 180.39 73.6363C180.333 72.4628 180.965 71.4328 181.837 70.6983C182.052 70.5171 182.285 70.361 182.523 70.2119C182.767 70.0613 183.016 69.8899 183.146 69.6251C183.298 69.3143 183.278 68.9728 183.276 68.6369C183.273 68.2815 183.269 67.9275 183.266 67.5721C183.25 65.9553 183.237 64.3386 183.221 62.7218C183.217 62.2103 182.421 62.2089 182.425 62.7218C182.439 64.2201 182.453 65.7184 182.467 67.2181C182.47 67.5986 182.474 67.9804 182.477 68.3609C182.478 68.5421 182.481 68.7247 182.483 68.9073C182.483 69.0383 182.495 69.1916 182.416 69.3045C182.282 69.4927 181.995 69.6028 181.808 69.731C181.546 69.9108 181.295 70.1101 181.062 70.3275C180.133 71.1986 179.496 72.4419 179.602 73.7408C179.712 75.0942 180.602 76.0642 181.685 76.7918C182.922 77.6211 184.42 78.1953 185.921 77.8775C186.421 77.7688 186.209 77.0022 185.709 77.1082Z" fill="#27272A"/>
<path d="M190.56 81.8535C189.252 83.1692 187.528 84.064 185.701 84.3873C183.741 84.7344 181.753 84.3636 179.893 83.7058C178.901 83.3559 177.941 82.8584 177.237 82.0556C177.095 81.8939 177.078 81.6514 177.237 81.4939C177.382 81.3489 177.658 81.3308 177.8 81.4939C178.353 82.1266 179.085 82.5517 179.864 82.85C180.748 83.1887 181.687 83.4326 182.617 83.6026C184.309 83.912 186.084 83.6807 187.641 82.9448C188.516 82.5322 189.314 81.9775 189.995 81.2904C190.358 80.928 190.921 81.4897 190.56 81.8535Z" fill="#27272A"/>
<path d="M207.984 62.1811C205.858 61.4647 203.826 60.4974 201.912 59.3281C199.993 58.1559 198.198 56.7886 196.541 55.2694C194.838 53.7084 193.277 51.9927 191.866 50.1641C190.403 48.2672 189.094 46.249 187.919 44.1626C186.733 42.0552 185.681 39.8726 184.74 37.644C184.626 37.375 184.514 37.1032 184.404 36.8328C184.323 36.6335 184.139 36.4927 183.915 36.5541C183.727 36.607 183.555 36.844 183.637 37.0433C184.568 39.3262 185.601 41.566 186.775 43.7347C187.94 45.888 189.243 47.9703 190.704 49.9355C192.123 51.845 193.682 53.6485 195.403 55.2917C197.069 56.8834 198.882 58.3287 200.818 59.5789C202.75 60.8249 204.813 61.8689 206.97 62.6633C207.235 62.7609 207.503 62.8556 207.772 62.9448C208.258 63.1107 208.467 62.3441 207.984 62.1811Z" fill="#27272A"/>
<path d="M218.058 101.858C217.882 97.4123 217.629 92.969 217.3 88.5313C216.974 84.1479 216.611 79.759 216.083 75.3951C215.586 71.2863 214.812 67.2054 213.151 63.3935C211.662 59.983 209.539 56.8442 206.935 54.1877C206.613 53.8588 206.281 53.5368 205.944 53.2232C205.569 52.8748 205.006 53.4351 205.382 53.7849C208.084 56.3062 210.307 59.3112 211.927 62.6325C213.703 66.2744 214.596 70.2326 215.14 74.2285C215.722 78.5255 216.066 82.8657 216.404 87.1891C216.745 91.5641 217.011 95.9447 217.201 100.329C217.392 104.735 217.508 109.142 217.548 113.551C217.552 114.103 217.556 114.653 217.559 115.204C217.562 115.715 218.356 115.717 218.355 115.204C218.33 110.753 218.232 106.304 218.058 101.858Z" fill="#27272A"/>
<path d="M198.977 47.0698C197.427 45.5185 195.705 44.1429 193.852 42.9735C193.417 42.6989 193.019 43.3875 193.451 43.6606C195.249 44.7965 196.912 46.129 198.416 47.6328C198.777 47.9938 199.34 47.4321 198.977 47.0698Z" fill="#27272A"/>
<path d="M220.927 105.616C220.741 102.431 220.637 99.2423 220.616 96.0534C220.603 94.2555 220.617 92.4561 220.658 90.6582C220.669 90.1467 219.873 90.1467 219.862 90.6582C219.791 93.8596 219.802 97.0639 219.895 100.265C219.989 103.454 220.164 106.639 220.421 109.818C220.566 111.611 220.737 113.4 220.934 115.188C220.957 115.402 221.1 115.586 221.331 115.586C221.528 115.586 221.752 115.403 221.728 115.188C221.381 112.006 221.112 108.813 220.927 105.616Z" fill="#27272A"/>
<path d="M157.927 62.1811C160.052 61.4647 162.084 60.4974 163.999 59.3281C165.918 58.1559 167.712 56.7886 169.371 55.2694C171.074 53.7084 172.635 51.9927 174.045 50.1641C175.509 48.2672 176.818 46.249 177.992 44.1626C179.179 42.0552 180.231 39.8726 181.172 37.644C181.286 37.375 181.397 37.1032 181.508 36.8328C181.588 36.6335 181.772 36.4927 181.997 36.5541C182.185 36.607 182.356 36.844 182.274 37.0433C181.343 39.3262 180.31 41.566 179.137 43.7347C177.972 45.888 176.668 47.9703 175.208 49.9355C173.789 51.845 172.229 53.6485 170.508 55.2917C168.842 56.8834 167.031 58.3287 165.093 59.5789C163.162 60.8249 161.099 61.8689 158.941 62.6633C158.675 62.7609 158.407 62.8556 158.138 62.9448C157.652 63.1107 157.443 62.3441 157.927 62.1811Z" fill="#27272A"/>
<path d="M147.854 101.858C148.028 97.4123 148.281 92.969 148.612 88.5313C148.938 84.1479 149.3 79.759 149.83 75.3951C150.328 71.2863 151.1 67.2054 152.762 63.3935C154.251 59.983 156.374 56.8442 158.979 54.1877C159.301 53.8588 159.632 53.5368 159.97 53.2232C160.344 52.8748 160.908 53.4351 160.531 53.7849C157.83 56.3062 155.606 59.3112 153.986 62.6325C152.21 66.2744 151.316 70.2326 150.774 74.2285C150.19 78.5255 149.845 82.8657 149.509 87.1891C149.168 91.5641 148.903 95.9447 148.712 100.329C148.52 104.735 148.404 109.142 148.365 113.551C148.361 114.103 148.357 114.653 148.354 115.204C148.351 115.715 147.557 115.717 147.558 115.204C147.582 110.753 147.678 106.304 147.854 101.858Z" fill="#27272A"/>
<path d="M166.933 47.0698C168.483 45.5185 170.206 44.1429 172.06 42.9735C172.493 42.6989 172.893 43.3875 172.461 43.6606C170.663 44.7965 169 46.129 167.497 47.6328C167.133 47.9938 166.571 47.4321 166.933 47.0698Z" fill="#27272A"/>
<path d="M144.986 105.616C145.171 102.431 145.274 99.2423 145.295 96.0534C145.308 94.2555 145.294 92.4561 145.253 90.6582C145.242 90.1467 146.038 90.1467 146.048 90.6582C146.119 93.8596 146.108 97.0639 146.014 100.265C145.921 103.454 145.745 106.639 145.489 109.818C145.344 111.611 145.173 113.4 144.976 115.188C144.952 115.402 144.81 115.586 144.579 115.586C144.382 115.586 144.158 115.403 144.182 115.188C144.53 112.006 144.799 108.813 144.986 105.616Z" fill="#27272A"/>
<path d="M226.198 138.202L226.099 137.711L226.198 138.202C229.692 137.492 233.244 136.555 236.651 135.477C238.319 134.949 239.766 134.449 241.303 133.667C245.109 140.424 248.885 147.674 252.174 154.674C258.284 167.683 263.517 181.107 267.811 194.824C272.139 208.645 275.509 222.763 277.895 237.049L277.896 237.051L277.897 237.056L277.899 237.075C277.9 237.082 277.902 237.09 277.903 237.099C272.907 242.366 267.426 247.418 261.367 251.283C258.244 253.273 254.927 254.826 251.579 256.393C250.072 257.099 248.558 257.808 247.053 258.561C244.936 259.313 242.829 260.096 240.729 260.91C229.223 263.666 217.547 265.717 205.768 266.774C192.402 267.974 178.905 267.883 165.604 266.094L165.537 266.589L165.604 266.094C153.588 264.478 141.749 261.486 130.506 256.949L130.319 257.413L130.506 256.949C120.135 252.765 110.333 247.293 101.466 240.494C101.189 240.217 100.907 239.94 100.619 239.67C100.462 239.499 100.304 239.329 100.147 239.16C100.148 238.512 100.149 237.863 100.152 237.216C102.198 229.755 103.838 222.192 105.378 214.625C105.783 212.636 106.183 210.645 106.582 208.654C109.246 195.365 111.909 182.085 116.36 169.302L116.36 169.302C120.818 156.498 127.048 144.193 136.159 134.129C136.328 134.247 136.533 134.33 136.773 134.358C137.587 134.455 138.386 134.686 139.198 134.969C139.574 135.101 139.948 135.241 140.327 135.384L140.419 135.418C140.828 135.572 141.243 135.727 141.661 135.869L141.821 135.396L141.661 135.869C142.859 136.275 144.119 136.553 145.345 136.825C145.912 136.95 146.471 137.074 147.013 137.207C147.661 137.368 148.309 137.53 148.957 137.693C151.971 138.449 154.996 139.208 158.083 139.755L158.083 139.755C161.763 140.406 165.476 141.047 169.191 141.545L169.257 141.05L169.191 141.545C172.634 142.006 176.107 142.038 179.537 142.069C179.835 142.072 180.133 142.075 180.43 142.078C181.585 142.09 182.744 142.114 183.906 142.137C186.458 142.189 189.023 142.241 191.584 142.173H191.586H191.588H191.591H191.594H191.597H191.599H191.602H191.605H191.608H191.61H191.613H191.616H191.618H191.621H191.623H191.626H191.629H191.631H191.634H191.636H191.639H191.641H191.644H191.646H191.649H191.651H191.654H191.656H191.658H191.661H191.663H191.666H191.668H191.67H191.673H191.675H191.677H191.679H191.682H191.684H191.686H191.688H191.691H191.693H191.695H191.697H191.699H191.702H191.704H191.706H191.708H191.71H191.712H191.714H191.716H191.718H191.721H191.723H191.725H191.727H191.729H191.731H191.733H191.735H191.736H191.738H191.74H191.742H191.744H191.746H191.748H191.75H191.752H191.754H191.755H191.757H191.759H191.761H191.763H191.764H191.766H191.768H191.77H191.771H191.773H191.775H191.777H191.778H191.78H191.782H191.783H191.785H191.787H191.788H191.79H191.792H191.793H191.795H191.796H191.798H191.8H191.801H191.803H191.804H191.806H191.807H191.809H191.81H191.812H191.813H191.815H191.816H191.818H191.819H191.821H191.822H191.824H191.825H191.826H191.828H191.829H191.831H191.832H191.833H191.835H191.836H191.837H191.839H191.84H191.841H191.843H191.844H191.845H191.847H191.848H191.849H191.851H191.852H191.853H191.854H191.856H191.857H191.858H191.859H191.861H191.862H191.863H191.864H191.865H191.867H191.868H191.869H191.87H191.871H191.872H191.873H191.875H191.876H191.877H191.878H191.879H191.88H191.881H191.882H191.884H191.885H191.886H191.887H191.888H191.889H191.89H191.891H191.892H191.893H191.894H191.895H191.896H191.897H191.898H191.899H191.9H191.901H191.902H191.903H191.904H191.905H191.906H191.907H191.908H191.909H191.91H191.911H191.912H191.913H191.914H191.915H191.916H191.917H191.918H191.919H191.92H191.921H191.922H191.922H191.923H191.924H191.925H191.926H191.927H191.928H191.929H191.93H191.931H191.932H191.932H191.933H191.934H191.935H191.936H191.937H191.938H191.939H191.939H191.94H191.941H191.942H191.943H191.944H191.945H191.945H191.946H191.947H191.948H191.949H191.95H191.951H191.951H191.952H191.953H191.954H191.955H191.956H191.956H191.957H191.958H191.959H191.96H191.961H191.961H191.962H191.963H191.964H191.965H191.966H191.966H191.967H191.968H191.969H191.97H191.971H191.971H191.972H191.973H191.974H191.975H191.975H191.976H191.977H191.978H191.979H191.98H191.98H191.981H191.982H191.983H191.984H191.985H191.985H191.986H191.987H191.988H191.989H191.99H191.991H191.991H191.992H191.993H191.994H191.995H191.996H191.996H191.997H191.998H191.999H192H192.001H192.002H192.003H192.003H192.004H192.005H192.006H192.007H192.008H192.009H192.01H192.01H192.011H192.012H192.013H192.014H192.015H192.016H192.017H192.018H192.019H192.02H192.021H192.021H192.022H192.023H192.024H192.025H192.026H192.027H192.028H192.029H192.03H192.031H192.032H192.033H192.034H192.035H192.036H192.037H192.038H192.039H192.04H192.041H192.042H192.043H192.044H192.045H192.046H192.047H192.048H192.049H192.05H192.051H192.052H192.053H192.055H192.056H192.057H192.058H192.059H192.06H192.061H192.062H192.063H192.064H192.066H192.067H192.068H192.069H192.07H192.071H192.073H192.074H192.075H192.076H192.077H192.079H192.08H192.081H192.082H192.083H192.085H192.086H192.087H192.088H192.09H192.091H192.092H192.094H192.095H192.096H192.098H192.099H192.1H192.102H192.103H192.104H192.106H192.107H192.108H192.11H192.111H192.113H192.114H192.115H192.117H192.118H192.12H192.121H192.123H192.124H192.126H192.127H192.128H192.13H192.132H192.133H192.135H192.136H192.138H192.139H192.141H192.142H192.144H192.146H192.147H192.149H192.15H192.152H192.154H192.155H192.157H192.159H192.16H192.162H192.164H192.165H192.167H192.169H192.171H192.172H192.174H192.176H192.178H192.18H192.181H192.183H192.185H192.187H192.189H192.191H192.193H192.194H192.196H192.198H192.2H192.202H192.204H192.206H192.208H192.21H192.212H192.214H192.216H192.218H192.22H192.222H192.224H192.226H192.228H192.23H192.233H192.235H192.237H192.239H192.241H192.243H192.245H192.248H192.25H192.252H192.254H192.257H192.259H192.261H192.263H192.266H192.268H192.27H192.273H192.275H192.277H192.28H192.282H192.285H192.287H192.29H192.292H192.294H192.297H192.299H192.302H192.304H192.307H192.31H192.312H192.315H192.317H192.32H192.323H192.325H192.328H192.331H192.333C193.061 142.173 193.532 142.16 194.164 142.076C196.182 141.983 198.199 141.847 200.211 141.67C200.856 141.655 201.493 141.645 202.132 141.634C202.662 141.625 203.194 141.617 203.732 141.605C207.523 141.525 211.285 141.172 215.025 140.516L214.939 140.024L215.026 140.516C217.382 140.103 219.732 139.591 222.07 139.081C223.45 138.78 224.827 138.48 226.198 138.202Z" fill="#FC9045" stroke="#27272A"/>
<path d="M140.984 166.445C137.993 170.502 135.727 175.074 134.243 179.889C132.751 184.726 132.046 189.813 132.166 194.872C132.289 200.01 133.323 204.994 135.073 209.815C135.572 211.189 136.077 212.59 136.252 214.05C136.439 215.603 136.284 217.174 136.103 218.719C135.735 221.867 135.351 225.012 134.974 228.158C134.222 234.459 133.468 240.759 132.715 247.059C132.62 247.853 132.525 248.648 132.431 249.442C132.371 249.949 133.165 249.945 133.225 249.442C133.975 243.169 134.725 236.897 135.475 230.624C135.848 227.5 136.222 224.378 136.595 221.256C136.959 218.215 137.486 215.16 136.676 212.145C136.303 210.757 135.755 209.427 135.291 208.07C134.885 206.885 134.534 205.685 134.233 204.47C133.632 202.032 133.242 199.547 133.064 197.044C132.705 192.018 133.179 186.94 134.452 182.065C135.723 177.191 137.79 172.53 140.608 168.353C140.952 167.843 141.308 167.341 141.673 166.847C141.975 166.435 141.284 166.037 140.984 166.445Z" fill="#27272A"/>
<path d="M236.241 260.033C235.749 257.174 235.296 254.309 234.88 251.438C234.787 250.797 234.698 250.155 234.609 249.513C234.61 249.491 234.61 249.467 234.607 249.442C234.512 248.647 234.418 247.853 234.321 247.059C233.569 240.759 232.815 234.458 232.062 228.158C231.686 225.012 231.303 221.866 230.935 218.719C230.753 217.174 230.599 215.604 230.785 214.05C230.961 212.591 231.466 211.189 231.965 209.815C233.715 204.994 234.749 200.01 234.871 194.872C234.99 189.813 234.285 184.724 232.794 179.889C231.31 175.074 229.045 170.502 226.052 166.445C225.751 166.037 225.061 166.434 225.365 166.846C225.73 167.341 226.087 167.843 226.43 168.353C229.248 172.53 231.314 177.191 232.586 182.065C233.857 186.94 234.331 192.018 233.974 197.044C233.796 199.547 233.406 202.033 232.805 204.47C232.505 205.685 232.153 206.885 231.747 208.07C231.283 209.427 230.735 210.758 230.362 212.145C229.552 215.161 230.079 218.215 230.443 221.256C230.816 224.378 231.19 227.5 231.563 230.623C232.298 236.775 233.034 242.927 233.77 249.078C233.765 249.124 233.765 249.173 233.772 249.22C234.167 252.094 234.599 254.964 235.068 257.825C235.201 258.632 235.336 259.438 235.475 260.244C235.512 260.455 235.772 260.574 235.965 260.521C236.188 260.462 236.277 260.246 236.241 260.033Z" fill="#27272A"/>
</g>
</svg>
