<svg width="1152" height="490" viewBox="0 0 1152 490" fill="none" xmlns="http://www.w3.org/2000/svg">
<rect width="360" height="208" fill="#FFEDD5"/>
<mask id="mask0_203_6681" style="mask-type:alpha" maskUnits="userSpaceOnUse" x="0" y="0" width="1152" height="490">
<path d="M0 8.00001C0 3.58173 3.58172 0 8 0H1144C1148.42 0 1152 3.58172 1152 8V482C1152 486.418 1148.42 490 1144 490H7.99997C3.58169 490 0 486.418 0 482V8.00001Z" fill="#FFEDD5"/>
</mask>
<g mask="url(#mask0_203_6681)">
<path d="M844.717 317.875C846.714 311.453 848.714 305.036 850.714 298.615C851.568 295.875 852.162 292.797 853.402 290.207C854.565 287.778 857.217 287.616 859.61 287.442C864.284 287.099 868.485 286.179 872.314 283.311C876.235 280.378 879.286 276.354 881.38 271.943C885.88 262.46 885.859 251.722 878.353 243.803C871.652 236.736 861.468 233.603 851.902 234.191C841.337 234.843 831.023 239.837 824.507 248.267C823.947 248.995 823.95 249.811 824.26 250.477C823.035 250.823 822.11 252.131 823.085 253.416C825.876 257.1 828.669 260.788 831.463 264.473C832.068 265.271 833.367 265.857 834.284 265.114C839.408 260.967 845.034 256.308 851.924 255.983C855.138 255.83 858.594 256.697 860.76 259.223C862.546 261.301 863.526 264.488 862.4 267.111C859.682 273.437 849.975 271.515 844.648 271.911C841.925 272.112 838.678 272.505 837.47 275.325C836.812 276.867 836.574 278.628 836.186 280.252C835.68 282.36 835.171 284.473 834.665 286.581C832.545 295.419 830.422 304.256 828.3 313.093C828.026 314.239 828.838 315.196 829.871 315.52C834.01 316.833 838.149 318.143 842.288 319.456C843.404 319.802 844.412 318.849 844.717 317.875Z" fill="#27272A"/>
<path d="M837.128 328.022C836.892 327.736 836.566 327.497 836.143 327.353C831.551 325.796 826.206 327.671 823.542 331.712C820.862 335.777 821.599 341.452 824.84 344.982C828.176 348.611 833.842 349.097 838.051 346.787C842.261 344.477 844.07 339.311 842.957 334.755C842.231 331.763 839.925 329.058 837.128 328.022Z" fill="#27272A"/>
<path d="M376.027 353.95C373.724 343.248 371.426 332.552 369.128 321.85C368.147 317.283 366.527 312.444 366.214 307.781C365.921 303.406 369.55 301.056 372.803 298.896C379.156 294.672 384.376 290.007 387.51 282.88C390.723 275.587 391.83 267.441 391.272 259.514C390.068 242.471 381.451 227.265 364.477 222.042C349.326 217.382 332.383 221.084 319.291 229.567C304.835 238.94 294.207 254.27 291.712 271.431C291.499 272.912 292.156 274.065 293.129 274.761C291.667 276.231 291.403 278.826 293.813 279.868C300.716 282.858 307.624 285.853 314.532 288.842C316.027 289.49 318.339 289.281 319.045 287.496C322.991 277.519 327.241 266.415 336.75 260.443C341.183 257.657 346.776 256.122 351.867 257.972C356.062 259.489 360 263.223 360.5 267.843C361.706 278.984 346.407 284.022 339.173 288.843C335.473 291.305 331.183 294.459 331.727 299.424C332.027 302.136 333.098 304.822 333.846 307.435C334.814 310.828 335.783 314.231 336.751 317.624C340.814 331.849 344.871 346.074 348.929 360.299C349.457 362.143 351.374 362.85 353.098 362.483C360.015 361.035 366.932 359.582 373.849 358.134C375.708 357.731 376.375 355.574 376.027 353.95Z" fill="#27272A"/>
<path d="M373.383 374.405C372.82 374.188 372.167 374.11 371.452 374.244C363.697 375.709 357.619 382.642 357.074 390.501C356.525 398.408 362.108 405.863 369.526 408.274C377.157 410.752 385.577 406.91 389.698 400.268C393.819 393.627 392.252 384.857 387.031 379.288C383.609 375.626 378.177 373.636 373.383 374.405Z" fill="#27272A"/>
<path d="M500.052 108.872C498.017 104.549 495.983 100.232 493.948 95.9095C493.08 94.0655 491.914 92.1721 491.321 90.2184C490.763 88.3867 492.075 87.0319 493.243 85.7901C495.525 83.368 497.282 80.867 497.912 77.5303C498.557 74.1123 498.221 70.5392 497.201 67.2297C495.008 60.1042 489.841 54.4927 482.112 53.9507C475.21 53.4654 468.378 56.7148 463.652 61.6133C458.434 67.0278 455.431 74.5912 456.067 82.1285C456.123 82.7791 456.518 83.2045 457 83.4031C456.522 84.1709 456.667 85.2982 457.792 85.5047C461.022 86.0916 464.253 86.6834 467.482 87.2704C468.182 87.3976 469.144 87.0805 469.268 86.2528C469.962 81.6221 470.67 76.4848 474.121 73.0063C475.73 71.386 477.955 70.1808 480.3 70.4605C482.235 70.6927 484.277 71.8895 484.944 73.8028C486.558 78.4187 480.553 82.0707 477.956 84.8355C476.627 86.2492 475.115 88.0111 475.837 90.0673C476.23 91.1897 476.952 92.2268 477.526 93.2622C478.275 94.612 479.022 95.9569 479.77 97.3067C482.9 102.951 486.03 108.595 489.162 114.238C489.568 114.973 490.453 115.081 491.15 114.755C493.947 113.456 496.743 112.155 499.539 110.854C500.289 110.508 500.359 109.525 500.052 108.872Z" fill="#27272A"/>
<path d="M500.95 117.825C500.687 117.787 500.404 117.819 500.114 117.948C496.965 119.336 495.065 122.884 495.61 126.277C496.159 129.693 499.266 132.306 502.66 132.599C506.146 132.901 509.346 130.434 510.441 127.204C511.536 123.973 510.006 120.4 507.237 118.549C505.415 117.333 502.91 117.024 500.95 117.825Z" fill="#27272A"/>
<path d="M547.264 470.435L547.277 469.279L546.13 469.433C510.598 474.227 483.757 471.268 466.163 460.983C448.673 450.76 440.139 433.183 441.441 408.179C442.744 383.141 456.243 354.037 469.511 331.098C476.132 319.65 482.673 309.776 487.559 302.764C490.001 299.259 492.029 296.47 493.445 294.559C494.127 293.639 494.668 292.922 495.044 292.427C503.625 299.132 513.724 301.001 521.702 301.191C525.823 301.29 529.403 300.941 531.953 300.567C533.229 300.38 534.25 300.187 534.955 300.04C535.022 300.026 535.086 300.012 535.147 299.999C536.207 303.479 536.881 308.74 537.297 314.805C537.746 321.352 537.889 328.727 537.931 335.592C537.952 339.008 537.947 342.318 537.943 345.329C537.939 348.338 537.936 351.049 537.958 353.271C537.98 355.5 538.029 357.297 538.134 358.464C538.183 359.016 538.253 359.539 538.382 359.896C538.417 359.993 538.472 360.123 538.56 360.252C538.64 360.37 538.815 360.583 539.121 360.691C539.479 360.818 539.813 360.733 540.042 360.597C540.239 360.479 540.363 360.325 540.429 360.231L540.429 360.231C558.427 334.788 575.76 321.583 588.542 314.737C594.935 311.314 600.197 309.477 603.845 308.497C605.669 308.007 607.09 307.731 608.048 307.578C608.526 307.502 608.889 307.456 609.129 307.43C609.248 307.417 609.337 307.408 609.394 307.403C609.423 307.401 609.443 307.399 609.456 307.398L609.457 307.398L609.468 307.397L609.47 307.397L645.11 305.552L645.126 305.552L645.142 305.55C665.215 303.874 684.381 313.663 700.529 327.236C716.663 340.796 729.649 358.023 737.325 370.931C741.133 377.336 745.843 388.508 750.778 401.734C755.705 414.938 760.831 430.12 765.478 444.499C770.124 458.876 774.289 472.444 777.292 482.417C778.793 487.404 780.004 491.492 780.84 494.333C781.257 495.753 781.581 496.862 781.801 497.615C781.892 497.93 781.966 498.182 782.02 498.37C782.016 498.376 782.012 498.384 782.008 498.391C781.866 498.637 781.643 499.008 781.329 499.488C780.7 500.449 779.703 501.851 778.247 503.579C775.335 507.035 770.584 511.801 763.265 516.97C748.629 527.307 723.693 539.274 682.595 545.57C641.517 551.863 607.363 547.667 583.488 541.902C571.55 539.02 562.182 535.746 555.806 533.196C552.618 531.921 550.178 530.827 548.539 530.054C547.719 529.667 547.099 529.361 546.687 529.152C546.66 529.138 546.633 529.125 546.608 529.112L547.264 470.435ZM540.263 359.217C540.263 359.217 540.263 359.217 540.263 359.216L540.263 359.217Z" fill="#FC9045" stroke="#27272A" stroke-width="2"/>
<path d="M570.627 230.365C570.596 230.453 570.568 230.528 570.544 230.591C570.523 230.613 570.501 230.636 570.48 230.661C570.339 230.829 570.165 231.149 570.251 231.559L570.251 231.562C570.263 231.618 570.287 231.711 570.338 231.816C570.387 231.915 570.494 232.094 570.708 232.231C571.28 232.596 571.792 232.247 571.9 232.158C571.933 232.131 571.963 232.104 571.99 232.077C572.181 232.03 572.453 231.978 572.802 231.922C573.644 231.788 574.794 231.657 575.968 231.541C577.137 231.426 578.311 231.327 579.195 231.258C579.636 231.223 580.004 231.195 580.261 231.176C580.39 231.167 580.491 231.16 580.56 231.155L580.638 231.149L580.658 231.148L580.663 231.148L580.664 231.148L580.664 231.148L580.596 230.15L580.664 231.148L580.805 231.138L580.937 231.09C588.384 228.387 593.396 224.119 596.548 220.52C597.601 219.317 598.446 218.189 599.107 217.218V227.338V228.41L600.177 228.335L605.167 227.984L606.097 227.919V226.986V216.06L608.546 225.898L608.702 226.525L609.338 226.64C613.565 227.403 618.247 227.267 621.837 226.951C623.639 226.792 625.182 226.586 626.275 226.42C626.817 226.337 627.249 226.265 627.548 226.212L635.933 233.334L636.807 234.075L637.423 233.11L639.199 230.329C639.221 230.322 639.244 230.315 639.269 230.308C639.536 230.226 639.921 230.11 640.391 229.973C641.332 229.7 642.61 229.344 643.959 229.016C645.313 228.686 646.719 228.389 647.924 228.226C648.527 228.145 649.061 228.099 649.501 228.097C649.96 228.095 650.242 228.14 650.385 228.19C651.534 228.594 652.59 229.068 653.622 230.192C654.675 231.339 655.768 233.238 656.796 236.612L656.796 236.613C657.726 239.664 656.61 242.951 655.107 245.613C654.367 246.922 653.561 248.029 652.94 248.81C652.629 249.199 652.367 249.505 652.183 249.712C652.092 249.815 652.02 249.893 651.972 249.945C651.949 249.97 651.931 249.989 651.919 250.001L651.907 250.014L651.905 250.016L651.905 250.016L651.905 250.017L651.639 250.292L651.625 250.675C651.271 260.701 648.328 268.256 645.485 273.295C644.062 275.816 642.665 277.708 641.629 278.965C641.111 279.593 640.684 280.062 640.39 280.37C640.243 280.524 640.129 280.638 640.054 280.712C640.016 280.749 639.988 280.776 639.97 280.793L639.952 280.811L639.949 280.813L639.948 280.814L639.948 280.814L639.948 280.814L639.54 281.191L639.646 281.737L644.741 308.198C644.712 308.268 644.677 308.353 644.635 308.449C644.492 308.783 644.275 309.265 643.983 309.849C643.398 311.02 642.517 312.59 641.334 314.191C638.948 317.421 635.45 320.625 630.802 321.171L630.802 321.171C626.061 321.729 621.383 319.916 617.818 317.879C616.048 316.868 614.584 315.819 613.562 315.024C613.052 314.626 612.654 314.294 612.385 314.062C612.317 314.003 612.257 313.95 612.205 313.905L608.028 296.211L607.839 295.407L607.014 295.441C592.832 296.03 582.68 293.85 575.419 290.315C568.171 286.787 563.754 281.883 561.068 276.925C558.374 271.953 557.407 266.895 557.117 263.067C556.972 261.156 556.997 259.559 557.057 258.445C557.088 257.888 557.127 257.452 557.158 257.159C557.173 257.013 557.187 256.902 557.196 256.829C557.201 256.793 557.204 256.766 557.207 256.75L557.209 256.732L557.21 256.729L557.21 256.729L557.21 256.729L557.235 256.558L557.202 256.388L553.327 236.593C557.969 237.166 562.82 234.915 566.503 232.541C568.262 231.408 569.807 230.213 571.009 229.198C570.87 229.644 570.738 230.051 570.627 230.365Z" fill="#FFA498" stroke="#27272A" stroke-width="2"/>
<path d="M529.859 280.47C528.182 274.797 524.642 269.848 519.841 266.402C517.394 264.648 514.642 263.32 511.749 262.48C511.801 259.672 511.437 256.87 510.689 254.172C510.691 254.16 510.697 254.149 510.699 254.137C511.215 251.58 512.21 249.161 513.239 246.777C514.328 244.247 515.424 241.72 516.515 239.192C516.66 238.851 516.808 238.513 516.956 238.172C517.976 238.592 519.111 238.822 520.127 238.259C521.123 237.704 521.782 236.54 522.144 235.497C522.553 234.316 522.516 232.971 521.632 232.017C521.57 231.951 521.503 231.905 521.437 231.872C521.408 231.747 521.381 231.622 521.354 231.496C521.412 231.466 521.47 231.437 521.526 231.406C522.719 230.722 523.266 229.303 523.152 227.975C523.021 226.459 522.169 225.175 521.279 223.992C519.425 221.533 517.338 219.257 515.027 217.218C513.9 216.225 512.73 215.204 511.45 214.412C510.153 213.61 508.718 213.269 507.209 213.547C504.241 214.094 502.379 216.555 501.18 219.149C500.868 219.07 500.556 218.993 500.244 218.925C497.214 218.247 494.029 218.114 491.138 219.392C489.935 219.924 488.808 220.718 487.969 221.737C487.019 222.89 486.453 224.269 486.119 225.713C485.759 227.266 485.587 228.868 485.389 230.446C485.179 232.123 485 233.803 484.855 235.488C484.531 239.203 484.362 242.93 484.341 246.66C484.341 246.66 484.339 246.66 484.339 246.663C483.693 247.274 483.078 247.918 482.494 248.587C481.897 249.273 481.313 250.001 480.929 250.83C480.074 252.672 480.415 254.619 480.92 256.506C481.396 258.29 481.945 260.057 482.546 261.803C484.973 268.863 488.243 275.591 491.28 282.401C492.974 286.204 494.597 290.043 495.958 293.98C496.019 294.157 496.141 294.3 496.297 294.383C496.347 294.464 496.42 294.539 496.52 294.6C500.182 296.809 504.042 298.734 508.122 300.045C512.214 301.363 516.557 302.037 520.855 301.731C523.299 301.556 525.721 301.076 528.026 300.232C528.169 300.18 528.29 300.091 528.375 299.977C528.681 300.037 529.013 299.914 529.105 299.519C529.882 296.183 530.738 292.833 530.923 289.395C531.088 286.398 530.713 283.353 529.859 280.47Z" fill="#FFA498"/>
<path d="M594.834 181.06C594.834 181.06 584.614 170.183 590.02 152.97C595.426 135.758 620.462 132.603 635.914 140.634C651.366 148.666 659.287 172.679 639.196 194.221C639.196 194.221 654.037 201.911 658.316 234.158C658.316 234.158 646.242 219.246 637.146 234.158L627.837 226.446L608.991 227.182C608.991 227.182 605.815 216.158 606.112 216.752C606.411 217.347 606.112 228.165 606.112 228.165L598.266 228.411L599.035 217.347C599.035 217.347 591.905 224.21 580.964 231.35L570.39 232.345L571.866 228.658C571.866 228.658 564.579 235.544 552.856 236.895L553.602 243.178C553.602 243.178 549.613 238.861 546.171 226.937C542.725 215.014 561.006 178.58 594.834 181.06Z" fill="#27272A"/>
<path d="M571.179 248.019C570.757 245.28 567.98 243.334 565.361 243.829C565.022 243.835 564.677 243.889 564.318 244.016C563.634 244.255 563.019 244.61 562.561 245.14C562.441 245.238 562.333 245.361 562.241 245.523C560.383 248.757 561.678 252.22 565.18 253.525C568.577 254.789 571.682 251.291 571.179 248.019Z" fill="#27272A"/>
<path d="M617.017 237.984C616.595 235.245 613.818 233.299 611.199 233.794C610.862 233.8 610.515 233.854 610.158 233.981C609.474 234.218 608.858 234.575 608.401 235.105C608.283 235.201 608.175 235.326 608.081 235.488C606.223 238.722 607.518 242.185 611.022 243.49C614.416 244.752 617.522 241.256 617.017 237.984Z" fill="#27272A"/>
<path d="M589.384 254.244C587.182 254.334 585.05 253.109 583.93 251.222C582.807 249.335 582.984 247.009 584.129 245.174C584.778 244.132 585.715 243.324 586.839 242.837C587.189 242.688 587.207 242.226 587.076 241.933C586.179 239.95 585.441 237.897 584.854 235.797C584.626 234.978 583.352 235.325 583.58 236.149C584.135 238.131 584.832 240.069 585.651 241.954C583.547 243.097 582.157 245.344 581.884 247.707C581.579 250.374 582.969 252.908 585.172 254.363C586.407 255.182 587.902 255.624 589.384 255.566C590.23 255.531 590.236 254.209 589.384 254.244Z" fill="#27272A"/>
<path d="M605.776 265.125C601.651 263.049 596.648 262.907 592.385 264.68C591.173 265.183 590.032 265.819 588.986 266.615C588.703 266.831 588.554 267.183 588.749 267.519C588.913 267.798 589.367 267.973 589.653 267.754C593.054 265.169 597.564 264.192 601.74 265.09C602.908 265.341 604.041 265.73 605.111 266.266C605.868 266.649 606.535 265.51 605.776 265.125Z" fill="#27272A"/>
<path d="M648.689 226.045C651.745 226.436 654.345 228.149 656.076 230.674C657.935 233.387 658.542 236.798 658.238 240.03C657.941 243.21 656.879 246.39 654.759 248.828C652.767 251.119 649.718 252.617 646.646 252.353C646.289 252.324 645.985 252.077 645.985 251.692C645.985 251.358 646.291 251.002 646.646 251.033C649.778 251.306 652.736 249.568 654.49 247.039C656.166 244.627 656.943 241.626 656.991 238.714C657.037 235.814 656.261 232.84 654.366 230.591C653.713 229.816 652.956 229.142 652.104 228.606L650.691 227.891C649.647 227.484 648.525 227.29 647.405 227.28C644.495 227.253 641.668 228.365 639.228 229.88C638.502 230.329 637.839 229.186 638.561 228.739C641.537 226.896 645.145 225.594 648.689 226.045Z" fill="#27272A"/>
<path d="M520.122 231.996C520.025 231.641 519.659 231.451 519.31 231.535C517.709 231.911 516.011 231.626 514.602 230.768C514.388 230.637 514.18 230.647 514.009 230.732C514.09 230.423 514.147 230.102 514.18 229.782C514.332 228.311 513.964 226.827 513.371 225.49C513.28 225.28 513.053 225.176 512.827 225.17C511.532 223.212 509.665 221.626 507.504 220.703C507.175 220.564 506.797 220.606 506.599 220.94C506.437 221.217 506.508 221.701 506.836 221.845C509.166 222.84 511.087 224.588 512.276 226.829C512.355 226.976 512.463 227.068 512.584 227.118C512.926 228.253 513.026 229.489 512.679 230.614C512.207 232.139 510.856 232.927 509.356 233.193C508.564 233.333 507.743 233.328 506.942 233.287C505.911 233.231 504.885 233.108 503.868 232.929C502.837 232.746 501.817 232.507 500.813 232.212C500.572 232.141 500.335 232.052 500.092 231.992C499.738 231.898 499.501 232.052 499.204 232.221C498.759 232.474 498.31 232.719 497.857 232.956C495.82 234.02 493.7 234.91 491.518 235.627C490.713 235.891 491.058 237.165 491.869 236.899C492.245 236.777 492.617 236.648 492.991 236.513C493.266 238.192 493.542 239.867 493.819 241.547C490.938 243.403 487.897 245.014 484.735 246.334C484.407 246.469 484.172 246.77 484.274 247.146C484.359 247.456 484.754 247.745 485.087 247.608C488.697 246.101 492.162 244.266 495.413 242.085C496.934 241.065 498.369 239.882 499.99 239.017C501.332 238.298 502.96 237.839 504.407 238.439C506.793 239.433 507.699 242.607 507.179 244.954C506.4 248.47 503.573 251.121 501.21 253.658C500.416 254.511 499.622 255.363 498.828 256.217C498.132 256.963 497.371 257.739 497.294 258.817C497.254 259.37 497.404 259.925 497.516 260.464C497.639 261.056 497.762 261.648 497.884 262.239C498.121 263.382 498.358 264.523 498.595 265.664C498.668 266.013 499.079 266.217 499.408 266.125C499.769 266.026 499.942 265.664 499.869 265.313C499.697 264.473 499.522 263.631 499.348 262.791C503.355 265.674 507.092 269.042 510.054 273.003C513.23 277.252 515.483 282.207 515.967 287.528C516.288 291.049 515.911 294.597 514.963 297.998C514.735 298.819 516.007 299.168 516.236 298.349C517.894 292.398 517.819 286.007 515.591 280.209C513.65 275.163 510.355 270.752 506.489 267.013C504.28 264.876 501.875 262.947 499.36 261.181C499.252 261.106 499.123 261.079 498.996 261.089C498.963 260.931 498.932 260.773 498.899 260.613C498.793 260.106 498.626 259.574 498.614 259.052C498.593 258.223 499.335 257.608 499.855 257.048C500.59 256.259 501.326 255.467 502.062 254.677C504.546 252.012 507.431 249.258 508.383 245.615C509.112 242.823 508.285 239.447 505.853 237.731C504.469 236.754 502.679 236.633 501.089 237.122C499.327 237.662 497.816 238.778 496.336 239.84C495.903 240.15 495.469 240.454 495.028 240.751C494.771 239.179 494.511 237.608 494.253 236.035C496.211 235.266 498.115 234.355 499.944 233.312C501.418 233.775 502.927 234.124 504.454 234.341C505.901 234.548 507.387 234.713 508.848 234.573C510.189 234.445 511.499 234.068 512.538 233.179C513.043 232.748 513.421 232.216 513.691 231.632C513.741 231.734 513.82 231.828 513.941 231.9C515.647 232.942 517.724 233.256 519.665 232.8C520.008 232.726 520.214 232.331 520.122 231.996Z" fill="#27272A"/>
<path d="M538.183 384.834C538.139 384.605 537.944 384.443 537.722 384.381C538.152 382.059 538.518 379.725 538.809 377.382C539.459 372.153 539.748 366.877 539.663 361.608C539.652 360.956 539.636 360.303 539.613 359.65C539.584 358.802 538.264 358.798 538.293 359.65C538.468 364.876 538.279 370.109 537.73 375.31C537.183 380.469 536.273 385.592 535.03 390.631C533.781 395.688 532.195 400.66 530.285 405.505C528.372 410.354 526.123 415.072 523.567 419.614C521.014 424.151 518.152 428.514 514.997 432.656C514.608 433.166 514.217 433.669 513.82 434.172C513.6 434.452 513.548 434.833 513.82 435.105C514.049 435.334 514.531 435.388 514.754 435.105C518.034 430.96 521.027 426.595 523.7 422.035C526.373 417.475 528.719 412.728 530.75 407.847C532.775 402.981 534.469 397.976 535.818 392.882C536.337 390.915 536.805 388.937 537.221 386.945C538.143 392.533 538.497 398.207 538.291 403.867C538.064 410.082 537.162 416.265 535.595 422.283C534.71 425.689 533.61 429.036 532.309 432.303C532.178 432.634 532.452 433.029 532.77 433.116C533.147 433.22 533.45 432.987 533.583 432.654C535.919 426.785 537.595 420.659 538.582 414.419C539.571 408.161 539.896 401.803 539.507 395.478C539.287 391.905 538.844 388.351 538.183 384.834Z" fill="#27272A"/>
<path d="M565.399 383.062C563.393 388.495 561.524 393.978 559.795 399.505C558.058 405.059 556.461 410.656 555.006 416.289C553.557 421.897 552.252 427.542 551.088 433.216C549.924 438.891 548.904 444.592 548.024 450.318C547.143 456.074 546.405 461.852 545.813 467.645C545.74 468.352 545.672 469.061 545.603 469.767C545.568 470.123 545.931 470.426 546.264 470.426C546.648 470.426 546.89 470.123 546.923 469.767C547.476 464.008 548.172 458.261 549.018 452.534C549.86 446.833 550.843 441.15 551.969 435.499C553.1 429.818 554.376 424.166 555.792 418.55C557.201 412.963 558.75 407.409 560.437 401.895C562.133 396.358 563.969 390.86 565.941 385.416C566.182 384.749 566.428 384.08 566.673 383.415C566.968 382.615 565.692 382.27 565.399 383.062Z" fill="#27272A"/>
<path d="M710.526 533.436C708.176 524.372 705.877 515.293 703.634 506.199C701.391 497.108 699.203 488.002 697.07 478.883C694.935 469.765 692.857 460.634 690.832 451.49C688.808 442.347 686.837 433.191 684.923 424.025C684.755 423.226 684.593 422.426 684.426 421.628C684.441 421.609 684.455 421.591 684.47 421.57C684.632 421.293 684.564 420.807 684.233 420.666C684.231 420.666 684.229 420.664 684.227 420.664C682.558 412.616 680.928 404.557 679.342 396.492C679.12 395.36 678.9 394.229 678.679 393.096C678.515 392.265 677.243 392.616 677.405 393.447C679.134 402.312 680.914 411.167 682.745 420.011C678.602 418.146 674.628 415.914 670.885 413.341C669.721 412.539 668.578 411.707 667.461 410.84C667.179 410.622 666.803 410.566 666.528 410.84C666.3 411.067 666.246 411.553 666.528 411.774C670.606 414.939 674.982 417.706 679.613 419.992C680.749 420.555 681.905 421.081 683.071 421.586C684.934 430.555 686.848 439.516 688.816 448.464C690.828 457.607 692.894 466.742 695.014 475.865C697.134 484.988 699.309 494.096 701.539 503.189C703.769 512.283 706.051 521.366 708.39 530.435C708.677 531.551 708.965 532.667 709.256 533.783C709.466 534.61 710.738 534.261 710.526 533.436Z" fill="#27272A"/>
<path d="M643.29 301.765C638.294 306.694 632.816 309.394 627.189 309.914C621.539 310.118 615.762 308.142 610.177 303.89C608.704 302.769 606.914 304.189 607.054 306.364L607.457 312.654C607.511 313.485 607.852 314.269 608.39 314.751C614.647 320.373 621.217 323.055 627.632 322.937L627.636 322.99C627.766 322.98 627.894 322.95 628.024 322.938C628.154 322.933 628.286 322.946 628.416 322.94L628.412 322.887C634.79 322.182 640.965 318.684 646.45 312.308C646.921 311.759 647.161 310.941 647.107 310.109L646.703 303.819C646.564 301.645 644.607 300.463 643.29 301.765Z" fill="#F59E0B"/>
<path d="M627.691 323.821C627.616 323.826 627.541 323.809 627.47 323.772C620.836 323.836 614.324 321.038 608.109 315.453C607.418 314.833 606.962 313.799 606.891 312.691L606.488 306.402C606.409 305.168 606.804 304.013 607.545 303.312C608.39 302.509 609.493 302.452 610.423 303.159C615.859 307.295 621.485 309.289 627.148 309.084C632.769 308.565 638.096 305.87 642.956 301.071C643.788 300.251 644.89 300.168 645.83 300.853C646.654 301.455 647.194 302.551 647.273 303.784L647.677 310.074C647.748 311.181 647.428 312.265 646.822 312.969C641.366 319.31 635.257 322.917 628.662 323.697C628.601 323.739 628.563 323.755 628.466 323.771C628.387 323.776 628.306 323.773 628.227 323.772L628.068 323.77L627.935 323.79C627.853 323.802 627.762 323.815 627.691 323.821ZM627.96 322.108L628.195 322.108C628.241 322.08 628.29 322.064 628.343 322.059C634.782 321.347 640.752 317.845 646.083 311.648C646.406 311.272 646.576 310.711 646.54 310.143L646.136 303.854C646.095 303.214 645.812 302.659 645.359 302.328C644.913 302.004 644.222 301.866 643.625 302.458C638.602 307.414 633.093 310.201 627.252 310.739C621.368 310.954 615.549 308.894 609.932 304.62C609.264 304.11 608.595 304.334 608.196 304.713C607.79 305.1 607.58 305.686 607.621 306.326L608.024 312.615C608.061 313.181 608.302 313.718 608.67 314.049C614.75 319.513 621.118 322.224 627.597 322.107C627.651 322.105 627.706 322.117 627.757 322.137L627.96 322.108ZM643.291 301.764L643.303 301.764L643.291 301.764Z" fill="#27272A"/>
</g>
</svg>
