<svg width="360" height="208" viewBox="0 0 360 208" fill="none" xmlns="http://www.w3.org/2000/svg">
<rect width="360" height="208" fill="#FFEDD5"/>
<mask id="mask0_18_74" style="mask-type:alpha" maskUnits="userSpaceOnUse" x="0" y="0" width="360" height="208">
<path d="M0 20C0 8.95431 8.95431 0 20 0H340C351.046 0 360 8.95431 360 20V208H0V20Z" fill="#FFEDD5"/>
</mask>
<g mask="url(#mask0_18_74)">
<path d="M291.099 138.054C292.047 135.008 292.995 131.964 293.944 128.919C294.349 127.62 294.63 126.16 295.218 124.931C295.77 123.779 297.028 123.702 298.163 123.62C300.38 123.457 302.373 123.021 304.189 121.66C306.048 120.269 307.495 118.361 308.488 116.269C310.623 111.771 310.613 106.678 307.053 102.922C303.875 99.5703 299.044 98.0843 294.507 98.363C289.496 98.6722 284.604 101.041 281.514 105.039C281.248 105.385 281.25 105.772 281.397 106.088C280.816 106.251 280.377 106.872 280.84 107.482C282.163 109.229 283.488 110.978 284.813 112.725C285.1 113.104 285.716 113.382 286.151 113.03C288.581 111.063 291.249 108.853 294.518 108.699C296.042 108.626 297.681 109.038 298.708 110.236C299.556 111.221 300.021 112.733 299.486 113.977C298.197 116.977 293.593 116.066 291.067 116.253C289.775 116.349 288.235 116.535 287.662 117.873C287.35 118.604 287.237 119.439 287.053 120.21C286.813 121.209 286.572 122.212 286.332 123.211C285.326 127.403 284.319 131.595 283.313 135.786C283.183 136.329 283.568 136.783 284.058 136.937C286.021 137.56 287.984 138.181 289.947 138.804C290.477 138.968 290.955 138.516 291.099 138.054Z" fill="#27272A"/>
<path d="M287.5 142.867C287.388 142.731 287.233 142.618 287.033 142.549C284.855 141.811 282.32 142.7 281.056 144.617C279.785 146.545 280.134 149.237 281.672 150.911C283.254 152.632 285.941 152.862 287.938 151.767C289.935 150.671 290.792 148.221 290.264 146.06C289.92 144.641 288.827 143.358 287.5 142.867Z" fill="#27272A"/>
<path d="M68.8025 155.164C67.71 150.088 66.6201 145.015 65.5301 139.939C65.0647 137.773 64.2965 135.478 64.1479 133.266C64.009 131.191 65.7305 130.077 67.2734 129.052C70.2862 127.049 72.7622 124.836 74.2488 121.456C75.7726 117.997 76.2978 114.133 76.0329 110.373C75.4619 102.29 71.375 95.0783 63.3243 92.6009C56.1383 90.3906 48.1021 92.1467 41.893 96.1702C35.0363 100.616 29.9954 107.886 28.812 116.026C28.7111 116.728 29.0229 117.275 29.4842 117.605C28.791 118.303 28.6654 119.533 29.8089 120.027C33.0827 121.445 36.3592 122.866 39.6355 124.284C40.3448 124.591 41.441 124.492 41.7759 123.645C43.6478 118.913 45.6635 113.647 50.1735 110.814C52.2762 109.493 54.9286 108.765 57.3436 109.642C59.3329 110.362 61.2006 112.133 61.438 114.324C62.0101 119.608 54.7537 121.998 51.3225 124.284C49.5679 125.452 47.5333 126.948 47.791 129.303C47.9335 130.589 48.4413 131.863 48.7961 133.103C49.2553 134.712 49.7148 136.326 50.174 137.935C52.101 144.682 54.0254 151.429 55.9498 158.176C56.2005 159.05 57.1097 159.386 57.9273 159.211C61.208 158.525 64.4885 157.836 67.7692 157.149C68.6509 156.958 68.9675 155.935 68.8025 155.164Z" fill="#27272A"/>
<path d="M67.5482 164.866C67.281 164.763 66.9713 164.726 66.6326 164.789C62.9542 165.484 60.0714 168.772 59.8128 172.5C59.5525 176.25 62.2006 179.786 65.7191 180.93C69.3381 182.105 73.3321 180.283 75.2866 177.133C77.2412 173.983 76.4977 169.823 74.0214 167.182C72.3986 165.445 69.8222 164.501 67.5482 164.866Z" fill="#27272A"/>
<path d="M127.627 38.9228C126.661 36.8728 125.697 34.825 124.731 32.7749C124.32 31.9003 123.767 31.0023 123.486 30.0756C123.221 29.2068 123.843 28.5643 124.397 27.9753C125.479 26.8265 126.313 25.6403 126.612 24.0577C126.918 22.4366 126.758 20.7419 126.274 19.1722C125.234 15.7926 122.784 13.1311 119.118 12.874C115.844 12.6438 112.604 14.185 110.362 16.5084C107.888 19.0764 106.463 22.6637 106.765 26.2386C106.791 26.5472 106.979 26.749 107.207 26.8432C106.981 27.2073 107.049 27.742 107.583 27.8399C109.115 28.1183 110.647 28.399 112.179 28.6774C112.511 28.7377 112.967 28.5873 113.026 28.1947C113.355 25.9984 113.691 23.5618 115.328 21.912C116.091 21.1435 117.146 20.5719 118.259 20.7045C119.176 20.8147 120.145 21.3823 120.461 22.2898C121.226 24.4791 118.378 26.2112 117.147 27.5225C116.516 28.193 115.799 29.0287 116.141 30.0039C116.328 30.5363 116.67 31.0282 116.943 31.5193C117.298 32.1595 117.652 32.7974 118.007 33.4375C119.492 36.1144 120.976 38.7913 122.462 41.4679C122.654 41.8164 123.074 41.8679 123.405 41.7133C124.731 41.0972 126.057 40.4801 127.383 39.8629C127.739 39.699 127.772 39.2326 127.627 38.9228Z" fill="#27272A"/>
<path d="M128.053 43.1692C127.928 43.1512 127.794 43.1664 127.656 43.2278C126.162 43.8861 125.261 45.5688 125.52 47.1782C125.78 48.7981 127.254 50.0378 128.864 50.1767C130.517 50.3198 132.035 49.1495 132.554 47.618C133.074 46.0853 132.348 44.3906 131.035 43.5128C130.171 42.9357 128.982 42.7892 128.053 43.1692Z" fill="#27272A"/>
<path d="M153.795 234.045L153.807 232.888L152.661 233.043C131.298 235.925 115.245 234.131 104.766 228.006C94.3913 221.941 89.2996 211.518 90.0775 196.576C90.8571 181.602 98.9412 164.149 106.925 150.344C110.905 143.463 114.837 137.528 117.774 133.313C119.242 131.206 120.461 129.53 121.312 128.382C121.593 128.002 121.834 127.681 122.03 127.42C127.218 131.329 133.243 132.422 137.996 132.536C140.505 132.596 142.683 132.384 144.236 132.156C144.876 132.062 145.411 131.966 145.821 131.884C146.388 133.927 146.762 136.909 146.998 140.362C147.268 144.291 147.354 148.722 147.379 152.854C147.392 154.901 147.389 156.894 147.387 158.71C147.384 160.526 147.382 162.164 147.396 163.5C147.409 164.84 147.438 165.938 147.503 166.658C147.532 166.987 147.577 167.35 147.674 167.619C147.702 167.695 147.748 167.807 147.827 167.923C147.899 168.028 148.064 168.234 148.361 168.339C148.709 168.461 149.034 168.378 149.252 168.248C149.439 168.137 149.551 167.994 149.606 167.916C160.409 152.644 170.8 144.735 178.438 140.645C182.259 138.599 185.399 137.504 187.568 136.921C188.652 136.63 189.494 136.467 190.057 136.377C190.339 136.332 190.551 136.305 190.689 136.29C190.758 136.282 190.808 136.278 190.84 136.275L190.872 136.272H190.877H190.878L212.331 135.161L212.347 135.16L212.362 135.159C224.298 134.163 235.735 139.982 245.422 148.124C255.095 156.254 262.887 166.589 267.491 174.332C269.764 178.154 272.589 184.85 275.561 192.815C278.524 200.757 281.609 209.892 284.406 218.547C287.202 227.2 289.709 235.366 291.516 241.37C292.42 244.372 293.149 246.832 293.652 248.542C293.903 249.397 294.098 250.064 294.23 250.517C294.262 250.626 294.29 250.723 294.315 250.807C294.236 250.939 294.13 251.11 293.995 251.316C293.625 251.882 293.034 252.712 292.168 253.74C290.436 255.795 287.601 258.642 283.222 261.735C274.467 267.918 259.513 275.104 234.82 278.887C210.146 282.666 189.635 280.145 175.3 276.684C168.133 274.954 162.511 272.989 158.688 271.46C156.776 270.695 155.314 270.04 154.334 269.577C153.948 269.395 153.637 269.243 153.402 269.126L153.795 234.045Z" fill="#FC9045" stroke="#27272A" stroke-width="2"/>
<path d="M167.298 80C166.802 80.377 165.784 90.7598 165.196 91.1386C163.104 92.4868 160.309 93.8278 157.539 93.6859L159.771 105.086L159.804 105.256L159.778 105.426L159.777 105.435L159.771 105.479C159.766 105.52 159.758 105.583 159.749 105.669C159.731 105.839 159.708 106.094 159.691 106.422C159.655 107.079 159.64 108.023 159.726 109.154C159.898 111.421 160.47 114.408 162.058 117.338C163.638 120.255 166.238 123.146 170.523 125.232C174.82 127.324 180.864 128.632 189.356 128.279L190.181 128.245L190.37 129.048L192.856 139.578C192.859 139.581 192.863 139.584 192.866 139.587C193.024 139.722 193.258 139.919 193.559 140.153C194.163 140.623 195.03 141.243 196.075 141.841C198.191 143.05 200.918 144.095 203.649 143.773C206.287 143.464 208.306 141.639 209.716 139.729C210.412 138.788 210.931 137.864 211.276 137.174C211.448 136.829 211.575 136.546 211.659 136.352C211.664 136.339 211.669 136.327 211.674 136.315L208.629 120.5L208.524 119.954L208.931 119.578H208.932L208.933 119.577L208.941 119.568C208.95 119.56 208.966 119.545 208.987 119.524C209.029 119.483 209.095 119.417 209.18 119.327C209.351 119.148 209.602 118.873 209.907 118.503C210.518 117.762 211.346 116.642 212.189 115.147C213.875 112.159 215.625 107.672 215.835 101.709L215.849 101.325L216.115 101.05L216.116 101.049L216.121 101.043L216.15 101.012C216.177 100.983 216.218 100.938 216.271 100.878C216.378 100.759 216.531 100.58 216.713 100.352C217.078 99.8932 217.55 99.2441 217.983 98.4786C218.872 96.9055 219.477 95.0494 218.966 93.3714C218.356 91.3708 217.721 90.2891 217.142 89.6584C216.585 89.0511 216.019 88.7934 215.354 88.5594C215.354 88.5594 215.346 88.5566 215.327 88.5524C215.307 88.5482 215.28 88.5435 215.245 88.5393C215.172 88.5307 215.077 88.5254 214.956 88.5261C214.714 88.5274 214.411 88.5525 214.058 88.6003C213.352 88.6957 212.521 88.8711 211.711 89.068C210.906 89.2639 210.143 89.4762 209.58 89.64C209.352 89.7062 209.158 89.7643 209.008 89.8099L208.017 91.3604L207.401 92.3262L206.996 81.5916L167.298 80Z" fill="#FFA498" stroke="#27272A" stroke-width="2"/>
<path d="M142.917 119.662C141.907 116.246 139.776 113.266 136.885 111.191C135.412 110.135 133.755 109.335 132.013 108.83C132.044 107.139 131.825 105.452 131.374 103.828C131.376 103.82 131.379 103.814 131.381 103.806C131.691 102.267 132.29 100.81 132.91 99.3749C133.566 97.8519 134.225 96.33 134.882 94.8082C134.97 94.603 135.059 94.399 135.148 94.1938C135.762 94.4466 136.445 94.5855 137.057 94.2463C137.657 93.9122 138.054 93.2113 138.271 92.5831C138.518 91.8723 138.495 91.0625 137.963 90.4881C137.926 90.448 137.886 90.4205 137.846 90.4005C137.828 90.3254 137.812 90.2503 137.796 90.174C137.831 90.1564 137.866 90.1389 137.9 90.1201C138.618 89.7084 138.947 88.8537 138.878 88.054C138.799 87.1416 138.286 86.3682 137.751 85.6561C136.634 84.1756 135.378 82.8052 133.986 81.5775C133.308 80.9793 132.603 80.3648 131.832 79.888C131.051 79.4049 130.188 79.1997 129.279 79.3674C127.492 79.6965 126.371 81.1783 125.649 82.7401C125.461 82.6926 125.273 82.6463 125.086 82.605C123.261 82.197 121.344 82.1169 119.603 82.8865C118.878 83.2069 118.2 83.685 117.694 84.2982C117.122 84.9928 116.782 85.8225 116.58 86.6923C116.364 87.6272 116.26 88.5921 116.141 89.542C116.015 90.5519 115.907 91.5631 115.82 92.5781C115.624 94.8145 115.523 97.0584 115.51 99.3049C115.51 99.3049 115.509 99.3049 115.509 99.3061C115.12 99.6741 114.75 100.062 114.398 100.465C114.039 100.878 113.687 101.316 113.455 101.815C112.941 102.924 113.146 104.097 113.45 105.233C113.737 106.307 114.067 107.371 114.429 108.422C115.891 112.673 117.859 116.724 119.688 120.824C120.708 123.114 121.685 125.426 122.505 127.796C122.541 127.903 122.615 127.989 122.709 128.039C122.739 128.088 122.783 128.133 122.843 128.169C125.048 129.499 127.372 130.658 129.829 131.448C132.293 132.241 134.907 132.647 137.495 132.463C138.967 132.358 140.425 132.069 141.813 131.561C141.899 131.529 141.972 131.476 142.023 131.407C142.207 131.443 142.407 131.369 142.463 131.131C142.931 129.123 143.446 127.105 143.558 125.035C143.656 123.231 143.431 121.397 142.917 119.662Z" fill="#FFA498"/>
<path d="M182.039 59.8065C182.039 59.8065 175.885 53.2574 179.14 42.8938C182.396 32.5302 197.47 30.6305 206.773 35.4662C216.077 40.302 220.846 54.7605 208.749 67.7309C208.749 67.7309 217.685 72.3614 220.262 91.7771C220.262 91.7771 212.992 82.7989 207.515 91.7771L201.91 87.1341L190.563 87.5771C190.563 87.5771 188.651 80.9392 188.829 81.2971C189.01 81.655 188.829 88.169 188.829 88.169L184.105 88.3167L184.568 81.655C184.568 81.655 180.276 85.7875 173.688 90.0863L167.321 90.6858L168.21 88.4656C168.21 88.4656 163.822 92.6118 156.764 93.4253L157.213 97.2085C157.213 97.2085 154.811 94.6092 152.739 87.4294C150.664 80.2508 161.671 58.3135 182.039 59.8065Z" fill="#27272A"/>
<path d="M167.796 100.123C167.542 98.4736 165.87 97.3022 164.293 97.6001C164.089 97.6038 163.881 97.6364 163.665 97.7127C163.253 97.8566 162.882 98.0706 162.607 98.3898C162.535 98.4486 162.47 98.5224 162.414 98.6201C161.296 100.567 162.075 102.652 164.184 103.438C166.229 104.199 168.099 102.093 167.796 100.123Z" fill="#27272A"/>
<path d="M195.395 94.0809C195.141 92.4315 193.469 91.2601 191.892 91.558C191.689 91.5617 191.48 91.5942 191.265 91.6706C190.853 91.8133 190.483 92.0285 190.208 92.3477C190.136 92.4052 190.071 92.4803 190.015 92.5779C188.896 94.5252 189.676 96.6102 191.786 97.3962C193.83 98.1558 195.699 96.0508 195.395 94.0809Z" fill="#27272A"/>
<path d="M178.757 103.871C177.432 103.925 176.148 103.188 175.473 102.052C174.797 100.915 174.904 99.5151 175.593 98.41C175.984 97.7831 176.548 97.2962 177.225 97.0033C177.435 96.9132 177.447 96.6354 177.368 96.4589C176.827 95.265 176.383 94.0286 176.03 92.7646C175.892 92.2715 175.125 92.4805 175.263 92.9761C175.597 94.17 176.016 95.3364 176.509 96.4715C175.243 97.1598 174.406 98.5127 174.242 99.9356C174.058 101.541 174.895 103.067 176.221 103.943C176.965 104.436 177.865 104.702 178.757 104.667C179.266 104.646 179.27 103.85 178.757 103.871Z" fill="#27272A"/>
<path d="M188.627 110.423C186.143 109.173 183.131 109.088 180.564 110.155C179.834 110.458 179.147 110.841 178.518 111.32C178.348 111.45 178.257 111.662 178.375 111.865C178.474 112.032 178.747 112.137 178.919 112.006C180.967 110.449 183.683 109.861 186.197 110.402C186.9 110.553 187.582 110.787 188.227 111.11C188.682 111.34 189.084 110.654 188.627 110.423Z" fill="#27272A"/>
<path d="M214.466 86.8925C216.305 87.1278 217.871 88.159 218.913 89.6795C220.032 91.3127 220.398 93.3664 220.215 95.3125C220.036 97.2273 219.396 99.1421 218.12 100.61C216.921 101.989 215.085 102.892 213.235 102.733C213.02 102.715 212.837 102.566 212.837 102.335C212.837 102.133 213.021 101.919 213.235 101.938C215.121 102.102 216.902 101.056 217.958 99.5325C218.967 98.0808 219.435 96.2737 219.464 94.5203C219.492 92.7745 219.025 90.9836 217.883 89.6295C217.49 89.1627 217.035 88.7572 216.522 88.4343L215.671 88.0038C215.042 87.7585 214.367 87.6421 213.692 87.6359C211.94 87.6196 210.238 88.2891 208.769 89.2015C208.332 89.4718 207.933 88.7835 208.367 88.5144C210.159 87.4043 212.332 86.6209 214.466 86.8925Z" fill="#27272A"/>
<path d="M137.055 90.4754C136.996 90.2614 136.775 90.1474 136.565 90.1975C135.602 90.424 134.579 90.2526 133.731 89.7357C133.602 89.6569 133.476 89.6631 133.374 89.7144C133.423 89.528 133.456 89.3352 133.476 89.1425C133.568 88.2565 133.346 87.3629 132.99 86.5582C132.935 86.4318 132.798 86.3692 132.662 86.3654C131.882 85.1865 130.758 84.2317 129.457 83.676C129.259 83.5921 129.031 83.6172 128.912 83.8187C128.815 83.9851 128.857 84.2767 129.055 84.3631C130.458 84.9625 131.614 86.015 132.33 87.3641C132.378 87.453 132.443 87.5081 132.515 87.5381C132.722 88.2214 132.782 88.966 132.573 89.6431C132.289 90.5617 131.475 91.036 130.572 91.1962C130.095 91.2801 129.601 91.2776 129.119 91.2525C128.498 91.2187 127.88 91.1449 127.268 91.0372C126.647 90.9271 126.033 90.7832 125.428 90.6055C125.283 90.5629 125.14 90.5091 124.994 90.4728C124.781 90.4165 124.638 90.5091 124.46 90.6105C124.192 90.7632 123.921 90.9108 123.649 91.0535C122.422 91.6943 121.146 92.2299 119.831 92.6617C119.347 92.8206 119.555 93.5878 120.043 93.4276C120.269 93.3538 120.494 93.2762 120.719 93.1948C120.884 94.206 121.05 95.2148 121.217 96.226C119.482 97.3435 117.651 98.3134 115.748 99.1081C115.55 99.1895 115.409 99.371 115.47 99.5975C115.521 99.7839 115.759 99.9579 115.959 99.8753C118.133 98.968 120.219 97.8629 122.177 96.5501C123.093 95.9356 123.956 95.2235 124.933 94.7029C125.741 94.2699 126.721 93.9933 127.592 94.3549C129.029 94.9532 129.574 96.8642 129.261 98.2771C128.792 100.395 127.09 101.99 125.667 103.518C125.189 104.032 124.711 104.545 124.233 105.059C123.814 105.508 123.356 105.975 123.309 106.625C123.286 106.957 123.376 107.292 123.443 107.616C123.517 107.972 123.591 108.329 123.665 108.685C123.807 109.373 123.95 110.06 124.093 110.747C124.137 110.957 124.384 111.08 124.582 111.025C124.8 110.965 124.904 110.747 124.86 110.535C124.756 110.03 124.651 109.523 124.546 109.017C126.959 110.753 129.209 112.781 130.992 115.166C132.905 117.724 134.261 120.708 134.553 123.911C134.746 126.031 134.519 128.168 133.948 130.215C133.811 130.71 134.577 130.92 134.714 130.427C135.713 126.844 135.668 122.995 134.326 119.505C133.157 116.466 131.174 113.811 128.846 111.559C127.516 110.273 126.068 109.111 124.553 108.048C124.488 108.002 124.411 107.986 124.334 107.992C124.314 107.897 124.296 107.802 124.276 107.706C124.212 107.4 124.112 107.08 124.104 106.766C124.092 106.267 124.538 105.896 124.851 105.56C125.294 105.084 125.737 104.607 126.18 104.132C127.676 102.527 129.413 100.869 129.986 98.6751C130.425 96.9944 129.927 94.9619 128.463 93.9282C127.63 93.34 126.552 93.2674 125.595 93.5615C124.533 93.8869 123.624 94.559 122.732 95.1985C122.472 95.3849 122.211 95.5676 121.945 95.7466C121.79 94.8005 121.634 93.8544 121.478 92.907C122.657 92.4439 123.804 91.8958 124.905 91.2675C125.792 91.5466 126.701 91.7569 127.621 91.887C128.492 92.0122 129.387 92.111 130.266 92.0272C131.074 91.9496 131.862 91.7231 132.488 91.1875C132.792 90.9284 133.02 90.608 133.182 90.2563C133.212 90.3176 133.26 90.374 133.333 90.4178C134.36 91.0448 135.61 91.2338 136.779 90.9597C136.986 90.9146 137.11 90.6768 137.055 90.4754Z" fill="#27272A"/>
<path d="M147.929 182.5C147.902 182.362 147.785 182.265 147.651 182.227C147.91 180.829 148.13 179.424 148.305 178.013C148.697 174.865 148.871 171.688 148.82 168.516C148.814 168.123 148.803 167.73 148.79 167.337C148.772 166.826 147.978 166.824 147.995 167.337C148.1 170.483 147.986 173.635 147.656 176.766C147.327 179.872 146.779 182.957 146.03 185.99C145.278 189.035 144.323 192.029 143.173 194.946C142.022 197.866 140.668 200.707 139.128 203.441C137.591 206.173 135.868 208.8 133.968 211.294C133.734 211.601 133.499 211.904 133.26 212.207C133.127 212.376 133.096 212.605 133.26 212.769C133.398 212.906 133.688 212.939 133.822 212.769C135.797 210.273 137.599 207.645 139.208 204.899C140.818 202.154 142.231 199.295 143.453 196.357C144.672 193.427 145.692 190.413 146.505 187.346C146.817 186.162 147.099 184.971 147.349 183.772C147.905 187.136 148.118 190.552 147.994 193.96C147.857 197.702 147.314 201.425 146.371 205.048C145.837 207.099 145.175 209.114 144.392 211.082C144.313 211.281 144.478 211.518 144.67 211.571C144.896 211.634 145.079 211.493 145.159 211.293C146.566 207.759 147.575 204.071 148.169 200.314C148.765 196.546 148.96 192.717 148.726 188.909C148.593 186.758 148.327 184.618 147.929 182.5Z" fill="#27272A"/>
<path d="M164.316 181.432C163.108 184.704 161.983 188.005 160.942 191.333C159.895 194.677 158.934 198.047 158.058 201.439C157.186 204.815 156.4 208.214 155.699 211.631C154.998 215.048 154.384 218.48 153.854 221.928C153.324 225.394 152.88 228.873 152.523 232.361C152.479 232.786 152.438 233.213 152.396 233.638C152.375 233.852 152.594 234.035 152.794 234.035C153.026 234.035 153.171 233.852 153.191 233.638C153.524 230.171 153.943 226.71 154.453 223.262C154.96 219.83 155.551 216.408 156.23 213.005C156.911 209.585 157.679 206.182 158.531 202.8C159.38 199.436 160.312 196.092 161.328 192.772C162.35 189.438 163.455 186.128 164.642 182.85C164.787 182.449 164.935 182.046 165.083 181.645C165.261 181.163 164.492 180.956 164.316 181.432Z" fill="#27272A"/>
<path d="M251.698 271.974C250.282 266.517 248.898 261.05 247.548 255.575C246.197 250.101 244.88 244.618 243.596 239.128C242.31 233.637 241.059 228.14 239.84 222.634C238.621 217.129 237.434 211.616 236.282 206.097C236.18 205.617 236.083 205.135 235.983 204.654C235.991 204.643 236 204.632 236.009 204.619C236.107 204.453 236.065 204.16 235.866 204.075C235.865 204.075 235.864 204.073 235.863 204.073C234.858 199.228 233.876 194.376 232.922 189.52C232.788 188.838 232.655 188.157 232.522 187.475C232.423 186.974 231.658 187.186 231.755 187.686C232.796 193.024 233.868 198.355 234.97 203.681C232.476 202.558 230.083 201.214 227.829 199.664C227.128 199.181 226.44 198.681 225.768 198.159C225.598 198.028 225.371 197.994 225.206 198.159C225.068 198.295 225.036 198.588 225.206 198.721C227.662 200.627 230.296 202.293 233.084 203.669C233.769 204.008 234.465 204.325 235.167 204.629C236.288 210.029 237.441 215.424 238.626 220.812C239.837 226.317 241.081 231.818 242.358 237.311C243.634 242.803 244.943 248.287 246.286 253.763C247.629 259.238 249.003 264.707 250.411 270.167C250.584 270.839 250.758 271.511 250.933 272.183C251.059 272.681 251.825 272.471 251.698 271.974Z" fill="#27272A"/>
<path d="M211.214 132.484C208.206 135.452 204.908 137.077 201.52 137.39C198.119 137.513 194.64 136.323 191.277 133.763C190.39 133.088 189.312 133.943 189.396 135.253L189.64 139.04C189.672 139.541 189.877 140.012 190.201 140.303C193.968 143.688 197.925 145.303 201.787 145.231L201.789 145.263C201.868 145.257 201.945 145.239 202.023 145.232C202.101 145.229 202.181 145.237 202.259 145.233L202.257 145.201C206.096 144.777 209.815 142.671 213.117 138.832C213.401 138.501 213.545 138.008 213.513 137.508L213.27 133.721C213.186 132.411 212.008 131.7 211.214 132.484Z" fill="#F59E0B"/>
<path d="M201.822 145.764C201.777 145.767 201.732 145.757 201.689 145.734C197.695 145.773 193.774 144.089 190.032 140.726C189.615 140.352 189.341 139.729 189.299 139.063L189.056 135.276C189.008 134.533 189.246 133.837 189.692 133.415C190.201 132.932 190.865 132.897 191.425 133.323C194.698 135.814 198.085 137.014 201.495 136.891C204.88 136.578 208.087 134.955 211.013 132.066C211.514 131.572 212.178 131.523 212.744 131.935C213.24 132.297 213.565 132.957 213.613 133.7L213.856 137.487C213.898 138.153 213.706 138.806 213.341 139.23C210.056 143.048 206.378 145.22 202.407 145.689C202.37 145.715 202.347 145.724 202.289 145.734C202.241 145.737 202.192 145.735 202.145 145.734L202.049 145.733L201.969 145.746C201.919 145.753 201.865 145.76 201.822 145.764ZM201.984 144.733H202.126C202.154 144.716 202.183 144.706 202.214 144.703C206.092 144.275 209.686 142.166 212.896 138.434C213.091 138.208 213.193 137.87 213.171 137.529L212.928 133.742C212.903 133.357 212.733 133.022 212.46 132.823C212.192 132.628 211.776 132.545 211.416 132.901C208.391 135.885 205.075 137.563 201.558 137.888C198.015 138.017 194.511 136.776 191.13 134.203C190.727 133.896 190.324 134.031 190.084 134.259C189.84 134.492 189.713 134.845 189.738 135.23L189.981 139.017C190.003 139.358 190.148 139.681 190.37 139.88C194.031 143.17 197.864 144.803 201.765 144.732C201.798 144.731 201.831 144.738 201.862 144.75L201.984 144.733ZM211.215 132.484L211.222 132.483L211.215 132.484Z" fill="#27272A"/>
</g>
</svg>
