<svg width="360" height="208" viewBox="0 0 360 208" fill="none" xmlns="http://www.w3.org/2000/svg">
<rect width="360" height="208" fill="#FFEDD5"/>
<mask id="mask0_337_2" style="mask-type:alpha" maskUnits="userSpaceOnUse" x="0" y="0" width="360" height="208">
<path d="M0 20C0 8.95431 8.95431 0 20 0H340C351.046 0 360 8.95431 360 20V208H0V20Z" fill="#FFEDD5"/>
</mask>
<g mask="url(#mask0_337_2)">
<path d="M73.4275 55.5349C72.8888 54.8535 72.237 54.2467 71.6366 53.618C69.0163 50.8717 66.3961 48.1268 63.7759 45.3806C58.565 39.9203 53.3554 34.4587 48.1432 28.9984C42.9323 23.538 37.7227 18.0777 32.5118 12.6174C27.2868 7.14041 22.0605 1.66465 16.8355 -3.81109C16.1952 -4.48093 15.5549 -5.15335 14.9146 -5.82319C14.8838 -5.85533 14.8504 -5.87976 14.8156 -5.90033C14.7398 -5.9659 14.6459 -6.00575 14.5444 -5.99932C12.5773 -5.87204 10.6295 -5.51076 8.74849 -4.93477C6.0177 -4.18779 3.43732 -2.89826 1.19509 -1.1523C1.12695 -1.09959 1.06266 -1.04429 0.995802 -0.990297C0.656381 -0.735731 0.322103 -0.474737 -0.00446177 -0.203457C-0.0558892 -0.161029 -0.0880281 -0.105754 -0.108599 -0.0440412C-3.03868 2.67133 -5.12792 6.23399 -6.12561 10.1116C-6.32875 10.8997 -6.48561 11.702 -6.59617 12.5107C-6.83788 13.6344 -6.97288 14.7812 -6.99988 15.9293C-7.00116 15.9872 -6.99216 16.0373 -6.97545 16.0836C-6.98445 16.504 -6.97674 16.9245 -6.94845 17.3449C-6.94588 17.3822 -6.93817 17.4208 -6.9266 17.4555C-6.95488 17.6123 -6.90859 17.7833 -6.74146 17.8977C-6.68874 17.9325 -6.63603 17.9685 -6.58332 18.0032C-6.51904 18.1124 -6.41747 18.1909 -6.2799 18.2076C-2.25313 20.9307 1.80836 23.6036 5.90327 26.2226C10.1306 28.9264 14.3939 31.5736 18.692 34.1655C20.9188 35.5078 23.1559 36.8333 25.4007 38.1447C25.6257 39.0254 25.9343 39.8855 26.3238 40.7071C27.3575 42.8876 28.9878 44.7532 30.969 46.1263C31.8767 46.755 32.8615 47.2692 33.8914 47.6627C33.2755 47.9982 32.7908 48.5279 32.5131 49.2274C32.0966 50.2791 32.2444 51.5158 32.5993 52.5637C32.9798 53.6887 33.5982 54.7185 34.3889 55.6018C36.0796 57.493 38.5019 58.5537 41.0128 58.7363C43.408 58.9099 46.0463 58.3081 47.8411 56.6342C48.8323 55.7085 49.4777 54.3881 49.578 53.0407C49.8686 53.1525 50.1746 53.2271 50.4922 53.2515C51.9373 53.366 53.1561 52.2628 53.4814 50.9039C53.5547 50.594 53.5817 50.2765 53.5637 49.9615C56.1183 51.9041 58.781 53.6977 61.5491 55.3202C63.0405 56.1932 64.5614 57.0173 66.1068 57.7926C66.8782 58.1783 67.6548 58.5589 68.4416 58.9124C69.2208 59.2621 70.0204 59.5733 70.8793 59.6427C72.219 59.752 73.7952 58.9895 74.0626 57.5573C74.2002 56.8039 73.8852 56.116 73.4275 55.5349Z" fill="#FFA498"/>
<path d="M26.3103 37.9429C25.5864 35.8125 25.4064 33.5175 25.823 31.3036C25.8667 31.0734 25.7587 30.8356 25.5209 30.77C25.3087 30.7121 25.031 30.842 24.986 31.0722C24.5412 33.4378 24.698 35.8922 25.4733 38.1717C25.652 38.6989 26.4916 38.4738 26.3103 37.9429Z" fill="#27272A"/>
<path d="M40.9882 52.6768C40.884 52.349 40.7863 52.0211 40.6925 51.6907C40.7632 51.6007 40.794 51.4773 40.7465 51.3307C40.6012 50.8781 40.4392 50.4191 40.2463 49.9717C39.7423 47.8246 39.4325 45.6351 39.3322 43.4276C39.3065 42.8709 38.4387 42.867 38.4644 43.4276C38.5325 44.9203 38.6945 46.4078 38.9414 47.8812C38.8038 47.7359 38.6585 47.5958 38.5029 47.4672C37.5014 46.6392 36.1077 46.2869 34.8542 46.7228C34.1895 46.9529 33.6135 47.3926 33.2908 48.0265C33.0362 48.5228 33.7858 48.9625 34.0403 48.4649C34.4852 47.5945 35.524 47.2949 36.4471 47.4376C37.6261 47.6228 38.4798 48.4983 39.0532 49.5076C39.1882 49.7467 39.3104 49.9923 39.4209 50.243C39.6331 51.1391 39.8748 52.0288 40.1538 52.907C40.3196 53.4367 41.1579 53.2117 40.9882 52.6768Z" fill="#27272A"/>
<path d="M48.8585 51.3372C48.4034 48.1513 47.9482 44.9679 47.4918 41.7833C47.4584 41.5506 47.164 41.4233 46.9582 41.4798C46.7088 41.5493 46.6214 41.7807 46.6548 42.0134C47.11 45.1993 47.5651 48.3827 48.0215 51.5686C48.0549 51.8013 48.3494 51.9273 48.5551 51.8708C48.8058 51.8013 48.8919 51.5686 48.8585 51.3372Z" fill="#27272A"/>
<path d="M52.6267 39.8753C52.4775 39.3378 51.6406 39.5667 51.7897 40.1067C52.5251 42.7655 52.7 45.5747 52.2718 48.3017C52.2358 48.5331 52.331 48.7683 52.5752 48.8352C52.781 48.8918 53.0728 48.7645 53.1088 48.5331C53.5614 45.6454 53.4058 42.6922 52.6267 39.8753Z" fill="#27272A"/>
<path d="M77.7271 166.055C76.8696 166.199 76.0236 166.478 75.184 166.702C71.516 167.677 67.8479 168.652 64.1799 169.627C56.8862 171.567 49.5912 173.507 42.2962 175.445C35.0025 177.385 27.7075 179.325 20.4138 181.264C13.0982 183.209 5.78398 185.153 -1.53158 187.098C-2.4277 187.337 -3.32383 187.575 -4.21995 187.814C-4.26495 187.826 -4.30095 187.843 -4.33566 187.863C-4.42823 187.898 -4.50923 187.961 -4.55166 188.054C-5.38735 189.838 -6.00834 191.72 -6.40819 193.646C-7.06774 196.4 -7.17831 199.283 -6.72832 202.087C-6.71418 202.172 -6.69747 202.255 -6.68204 202.34C-6.62161 202.759 -6.55347 203.178 -6.47376 203.596C-6.4609 203.662 -6.42747 203.717 -6.38504 203.763C-5.41435 207.64 -3.29811 211.184 -0.378324 213.927C0.215663 214.485 0.844367 215.008 1.49879 215.494C2.36791 216.247 3.30775 216.917 4.30158 217.494C4.35172 217.523 4.40058 217.539 4.44815 217.547C4.812 217.758 5.18484 217.953 5.56798 218.131C5.60269 218.148 5.63869 218.158 5.67469 218.166C5.7994 218.266 5.9704 218.307 6.15168 218.216C6.20697 218.187 6.26354 218.158 6.32011 218.13C6.44611 218.126 6.56439 218.073 6.64539 217.961C10.9704 215.741 15.2685 213.469 19.5344 211.139C23.9392 208.734 28.3118 206.272 32.6523 203.75C34.9009 202.444 37.138 201.123 39.3687 199.785C40.2494 200.012 41.1506 200.154 42.0583 200.208C44.4677 200.352 46.8887 199.82 49.0435 198.745C50.0322 198.252 50.9553 197.636 51.7987 196.922C51.7961 197.623 52.0275 198.304 52.5058 198.883C53.2284 199.755 54.3829 200.22 55.4719 200.413C56.6406 200.62 57.8401 200.574 58.996 200.306C61.4671 199.734 63.5627 198.122 64.9307 196.008C66.2357 193.992 66.9775 191.39 66.3745 189.011C66.0415 187.699 65.1943 186.495 64.0616 185.76C64.2994 185.561 64.5116 185.327 64.6864 185.06C65.481 183.849 65.1017 182.249 64.0667 181.31C63.8301 181.097 63.564 180.919 63.2799 180.784C66.2112 179.479 69.0655 178.01 71.8207 176.363C73.3044 175.477 74.7598 174.541 76.1817 173.557C76.8914 173.066 77.5986 172.569 78.2877 172.049C78.9704 171.536 79.6261 170.983 80.1018 170.265C80.8423 169.142 80.9323 167.394 79.8061 166.471C79.2095 165.989 78.4574 165.933 77.7271 166.055Z" fill="#FFA498"/>
<path d="M39.6303 198.888C37.4137 198.498 35.3155 197.551 33.576 196.121C33.3947 195.972 33.135 195.951 32.9627 196.13C32.8097 196.287 32.7891 196.593 32.9717 196.745C34.8295 198.272 37.0576 199.316 39.4297 199.734C39.9761 199.83 40.1818 198.987 39.6303 198.888Z" fill="#27272A"/>
<path d="M59.6076 193.115C59.2708 193.048 58.9352 192.976 58.6009 192.9C58.5546 192.794 58.4621 192.709 58.3104 192.679C57.8437 192.589 57.3628 192.51 56.8781 192.463C54.7542 191.872 52.6842 191.09 50.7017 190.116C50.2015 189.87 49.7811 190.629 50.2838 190.877C51.6248 191.536 53.0069 192.11 54.4173 192.602C54.2232 192.652 54.0316 192.713 53.8426 192.789C52.6354 193.267 51.6557 194.32 51.4332 195.629C51.315 196.322 51.4229 197.039 51.8228 197.627C52.1365 198.087 52.8822 197.643 52.5672 197.181C52.0182 196.372 52.2561 195.318 52.8256 194.578C53.5533 193.633 54.7336 193.308 55.8946 193.29C56.1697 193.286 56.4436 193.298 56.7161 193.321C57.6032 193.566 58.4994 193.782 59.4045 193.96C59.9535 194.067 60.1579 193.223 59.6076 193.115Z" fill="#27272A"/>
<path d="M62.2228 185.57C59.2117 184.437 56.2006 183.303 53.1909 182.169C52.971 182.087 52.7177 182.285 52.6676 182.492C52.6084 182.742 52.7692 182.931 52.989 183.014C56.0001 184.148 59.0112 185.28 62.021 186.414C62.2408 186.497 62.4941 186.299 62.5442 186.092C62.6047 185.841 62.4427 185.652 62.2228 185.57Z" fill="#27272A"/>
<path d="M53.9892 176.751C53.4467 176.622 53.2435 177.467 53.7887 177.596C56.4732 178.23 59.0201 179.429 61.2058 181.116C61.3909 181.259 61.6429 181.29 61.8191 181.107C61.9682 180.954 61.9965 180.638 61.8101 180.492C59.4971 178.708 56.8332 177.423 53.9892 176.751Z" fill="#27272A"/>
<path d="M272.034 48.556C272.3 49.9895 273.876 50.7507 275.217 50.6414C276.076 50.572 276.875 50.2621 277.655 49.9124C278.441 49.5588 279.218 49.1783 279.989 48.7913C281.535 48.0173 283.056 47.1932 284.547 46.3189C287.317 44.6977 289.979 42.9028 292.533 40.9615C292.515 41.2752 292.542 41.594 292.615 41.9026C292.939 43.2641 294.159 44.3659 295.604 44.2515C295.922 44.2258 296.229 44.1525 296.518 44.0394C296.618 45.3881 297.264 46.7085 298.255 47.6329C300.05 49.3068 302.687 49.9098 305.082 49.7362C307.593 49.5537 310.015 48.493 311.706 46.6018C312.497 45.7172 313.115 44.6887 313.496 43.5637C313.851 42.5171 313.998 41.279 313.582 40.226C313.305 39.5279 312.819 38.9969 312.204 38.6626C313.235 38.2666 314.22 37.7537 315.127 37.1263C317.108 35.7544 318.739 33.8863 319.772 31.7058C320.162 30.883 320.471 30.0241 320.696 29.1447C322.94 27.832 325.177 26.5078 327.404 25.1655C331.702 22.5736 335.966 19.9263 340.193 17.2225C344.289 14.6023 348.349 11.9293 352.376 9.20753C352.512 9.18953 352.615 9.1124 352.68 9.00311C352.732 8.9684 352.785 8.9324 352.838 8.89769C353.005 8.78326 353.051 8.61227 353.023 8.45542C353.033 8.41942 353.042 8.38214 353.045 8.34485C353.073 7.92315 353.081 7.50274 353.072 7.08361C353.087 7.03732 353.097 6.98719 353.096 6.92933C353.069 5.77864 352.934 4.63306 352.692 3.51066C352.582 2.70196 352.425 1.89973 352.222 1.11032C351.224 -2.7686 349.135 -6.32869 346.204 -9.04534C346.184 -9.10577 346.151 -9.16104 346.099 -9.20346C345.773 -9.47474 345.437 -9.73574 345.099 -9.9903C345.032 -10.0443 344.967 -10.1009 344.9 -10.1536C342.658 -11.8983 340.079 -13.1891 337.346 -13.9348C335.466 -14.5108 333.516 -14.872 331.551 -14.9993C331.448 -15.0058 331.355 -14.9659 331.279 -14.9016C331.246 -14.8811 331.212 -14.8579 331.18 -14.8232C330.54 -14.1533 329.9 -13.4822 329.26 -12.8111C324.034 -7.33536 318.808 -1.85836 313.583 3.61738C308.372 9.07769 303.163 14.538 297.952 19.9983C292.741 25.4586 287.53 30.9189 282.319 36.3792C279.699 39.1255 277.079 41.8704 274.458 44.6167C273.858 45.2454 273.207 45.8522 272.669 46.5349C272.208 47.116 271.893 47.8026 272.034 48.556Z" fill="#FFA498"/>
<path d="M319.783 28.9403C320.507 26.8112 320.687 24.5163 320.269 22.3023C320.226 22.0722 320.334 21.8343 320.573 21.7687C320.785 21.7096 321.063 21.8407 321.106 22.0708C321.552 24.4365 321.396 26.8909 320.62 29.1704C320.442 29.6975 319.602 29.4713 319.783 28.9403Z" fill="#27272A"/>
<path d="M305.107 43.6755C305.211 43.3476 305.309 43.0185 305.403 42.6893C305.332 42.5981 305.301 42.4759 305.349 42.3293C305.494 41.8768 305.657 41.4178 305.849 40.9704C306.353 38.822 306.663 36.6325 306.763 34.4262C306.789 33.8682 307.657 33.8657 307.631 34.4262C307.563 35.9189 307.401 37.4064 307.154 38.8798C307.291 38.7333 307.437 38.5944 307.592 38.4659C308.594 37.6366 309.988 37.2856 311.241 37.7214C311.905 37.9516 312.482 38.3913 312.805 39.0238C313.058 39.5214 312.31 39.9611 312.055 39.4623C311.61 38.5931 310.571 38.2936 309.648 38.4363C308.469 38.6201 307.615 39.497 307.042 40.5062C306.907 40.7454 306.785 40.9909 306.674 41.2404C306.462 42.1365 306.221 43.0275 305.942 43.9056C305.774 44.4366 304.936 44.209 305.107 43.6755Z" fill="#27272A"/>
<path d="M297.235 42.3357C297.69 39.1498 298.145 35.9664 298.602 32.7805C298.635 32.5478 298.93 32.4218 299.135 32.4783C299.385 32.5465 299.472 32.7792 299.439 33.0119C298.984 36.1978 298.527 39.3812 298.072 42.5659C298.039 42.7986 297.744 42.9258 297.537 42.8693C297.288 42.8011 297.202 42.5684 297.235 42.3357Z" fill="#27272A"/>
<path d="M293.466 30.874C293.615 30.3366 294.452 30.5655 294.303 31.1055C293.567 33.763 293.393 36.5735 293.821 39.3004C293.857 39.5318 293.762 39.7671 293.517 39.834C293.312 39.8906 293.02 39.7633 292.982 39.5319C292.53 36.6455 292.685 33.6923 293.466 30.874Z" fill="#27272A"/>
<path d="M288.791 169.521C287.693 170.48 287.839 172.225 288.614 173.323C289.111 174.026 289.785 174.557 290.482 175.051C291.186 175.548 291.909 176.023 292.634 176.491C294.087 177.428 295.571 178.318 297.08 179.157C299.885 180.717 302.785 182.096 305.755 183.309C305.474 183.452 305.215 183.638 304.986 183.859C303.979 184.83 303.651 186.441 304.483 187.627C304.667 187.887 304.885 188.115 305.13 188.306C304.02 189.078 303.21 190.307 302.92 191.63C302.391 194.025 303.214 196.603 304.581 198.576C306.014 200.645 308.16 202.193 310.648 202.685C311.811 202.917 313.012 202.926 314.175 202.682C315.256 202.454 316.397 201.953 317.092 201.058C317.552 200.465 317.762 199.776 317.737 199.076C318.601 199.763 319.545 200.349 320.548 200.812C322.736 201.819 325.172 202.275 327.575 202.055C328.482 201.974 329.378 201.802 330.251 201.548C332.523 202.813 334.801 204.065 337.088 205.3C341.506 207.683 345.953 210.007 350.431 212.273C354.769 214.467 359.136 216.603 363.528 218.686C363.613 218.795 363.733 218.844 363.859 218.844C363.915 218.871 363.973 218.898 364.03 218.925C364.213 219.011 364.383 218.963 364.504 218.859C364.54 218.85 364.576 218.837 364.611 218.822C364.987 218.633 365.354 218.425 365.71 218.204C365.758 218.193 365.806 218.177 365.855 218.146C366.831 217.538 367.749 216.837 368.594 216.058C369.234 215.551 369.845 215.01 370.421 214.433C373.253 211.6 375.257 207.99 376.105 204.086C376.147 204.038 376.178 203.981 376.188 203.916C376.256 203.497 376.31 203.076 376.357 202.655C376.37 202.57 376.384 202.485 376.395 202.4C376.758 199.583 376.556 196.704 375.81 193.974C375.35 192.061 374.671 190.198 373.779 188.44C373.733 188.35 373.65 188.29 373.557 188.256C373.522 188.237 373.485 188.221 373.44 188.211C372.536 188.002 371.633 187.791 370.731 187.581C363.358 185.867 355.985 184.152 348.613 182.438C341.261 180.728 333.909 179.019 326.558 177.31C319.207 175.6 311.854 173.891 304.504 172.181C300.807 171.322 297.11 170.462 293.413 169.602C292.567 169.405 291.714 169.153 290.851 169.038C290.119 168.937 289.369 169.017 288.791 169.521Z" fill="#FFA498"/>
<path d="M329.963 200.658C332.165 200.199 334.233 199.185 335.927 197.701C336.103 197.547 336.363 197.517 336.542 197.691C336.7 197.842 336.73 198.148 336.552 198.305C334.743 199.89 332.549 201.005 330.192 201.496C329.647 201.611 329.414 200.772 329.963 200.658Z" fill="#27272A"/>
<path d="M309.813 195.514C310.147 195.437 310.48 195.354 310.812 195.268C310.854 195.162 310.944 195.073 311.094 195.038C311.557 194.934 312.035 194.84 312.519 194.779C314.624 194.119 316.668 193.273 318.618 192.237C319.109 191.976 319.554 192.721 319.059 192.984C317.739 193.686 316.376 194.302 314.982 194.838C315.178 194.881 315.372 194.937 315.562 195.005C316.785 195.447 317.797 196.468 318.059 197.768C318.198 198.457 318.113 199.177 317.732 199.777C317.434 200.248 316.674 199.827 316.974 199.356C317.497 198.53 317.227 197.484 316.634 196.761C315.876 195.839 314.687 195.552 313.527 195.57C313.252 195.574 312.979 195.596 312.707 195.627C311.827 195.901 310.939 196.145 310.039 196.351C309.498 196.477 309.266 195.64 309.813 195.514Z" fill="#27272A"/>
<path d="M306.963 188.056C309.937 186.829 312.911 185.601 315.884 184.375C316.1 184.285 316.361 184.474 316.417 184.679C316.485 184.929 316.329 185.123 316.111 185.212C313.137 186.44 310.163 187.666 307.189 188.894C306.973 188.983 306.712 188.794 306.657 188.588C306.59 188.337 306.746 188.146 306.963 188.056Z" fill="#27272A"/>
<path d="M314.916 178.981C315.454 178.837 315.683 179.674 315.142 179.82C312.479 180.538 309.972 181.818 307.84 183.571C307.659 183.72 307.408 183.759 307.226 183.581C307.073 183.434 307.034 183.119 307.216 182.968C309.471 181.112 312.094 179.744 314.916 178.981Z" fill="#27272A"/>
<path d="M170.979 126.564L170.98 126.517L170.073 124.853V121.498L169.988 121.028L169.515 121.091L169.511 121.092L169.493 121.094C169.485 121.095 169.476 121.096 169.466 121.097C169.452 121.099 169.434 121.101 169.414 121.103C169.344 121.11 169.238 121.121 169.098 121.131C168.818 121.152 168.404 121.175 167.877 121.18C166.821 121.19 165.313 121.13 163.512 120.845C159.91 120.276 155.147 118.812 150.499 115.233C141.216 108.085 140.476 99.8534 140.101 94.786L140.093 94.6834L140.046 94.5921L140.045 94.5904L140.042 94.5846L140.029 94.5603L139.98 94.4634C139.936 94.3776 139.872 94.2502 139.79 94.0851C139.625 93.7548 139.39 93.2734 139.106 92.6711C138.539 91.4663 137.781 89.7797 137.017 87.853C135.483 83.9819 133.952 79.2059 133.86 75.4238C133.768 71.644 134.759 68.7475 135.767 66.7996C136.271 65.8249 136.78 65.0876 137.16 64.5967C137.332 64.3751 137.477 64.204 137.583 64.0841C137.76 64.1296 138.011 64.1874 138.339 64.2472C139.046 64.3759 140.112 64.5142 141.577 64.5622C144.507 64.6583 149.033 64.393 155.469 62.967C161.911 61.5393 166.195 59.7509 168.879 58.3087C170.221 57.5876 171.163 56.9535 171.773 56.4948C171.853 56.4349 171.927 56.3779 171.996 56.3242L214.5 75.4238L198 108.5L189.5 119L187 132L179.5 141.5L171.707 133L170.979 126.564Z" fill="#FFA498"/>
<path d="M170.979 126.564V126.569V126.592C170.979 126.603 170.98 126.619 170.98 126.638C170.98 126.653 170.981 126.669 170.981 126.688C170.983 126.774 170.988 126.904 170.998 127.072C171.019 127.409 171.064 127.901 171.157 128.509C171.344 129.726 170.375 130.159 171.157 132C171.919 133.793 173.641 136 174.954 137.263C175.606 137.891 177.312 139.137 177.751 139.491M170.979 126.564L170.98 126.517L170.073 124.853V121.498L169.988 121.028L169.515 121.091L169.511 121.092L169.493 121.094C169.485 121.095 169.476 121.096 169.466 121.097C169.452 121.099 169.434 121.101 169.414 121.103C169.344 121.11 169.238 121.121 169.098 121.131C168.818 121.152 168.404 121.175 167.877 121.18C166.821 121.19 165.313 121.13 163.512 120.845C159.91 120.276 155.147 118.812 150.499 115.233C141.216 108.085 140.476 99.8534 140.101 94.786L140.093 94.6834L140.046 94.5921M170.979 126.564L172.5 134.105L174.5 137.5L179 142L186.65 135L188.5 119.5M170.979 126.564L171.707 133M178.457 140.036L178.458 140.037H178.459M187.77 126.326C187.838 125.716 187.853 125.207 187.852 124.853C187.851 124.676 187.846 124.538 187.842 124.445C187.839 124.399 187.837 124.364 187.835 124.342V124.335L186.452 117.297L186.39 116.983L186.65 116.795C195.859 110.135 199.722 102.452 201.292 96.4494C202.078 93.4442 202.291 90.8553 202.307 89.0214C202.315 88.1047 202.274 87.3773 202.232 86.8818C202.211 86.6341 202.189 86.4444 202.173 86.3181C202.165 86.255 202.158 86.2077 202.154 86.1769L202.149 86.1433M140.046 94.5921L139.602 94.8229M140.046 94.5921L140.045 94.5904L140.042 94.5846L140.029 94.5603L139.98 94.4634C139.936 94.3776 139.872 94.2502 139.79 94.0851C139.625 93.7548 139.39 93.2734 139.106 92.6711C138.539 91.4663 137.781 89.7797 137.017 87.853C135.483 83.9819 133.952 79.2059 133.86 75.4238C133.768 71.644 134.759 68.7475 135.767 66.7996C136.271 65.8249 136.78 65.0876 137.16 64.5967C137.332 64.3751 137.477 64.204 137.583 64.0841C137.76 64.1296 138.011 64.1874 138.339 64.2472C139.046 64.3759 140.112 64.5142 141.577 64.5622C144.507 64.6583 149.033 64.393 155.469 62.967C161.911 61.5393 166.195 59.7509 168.879 58.3087C170.221 57.5876 171.163 56.9535 171.773 56.4948C171.853 56.4349 171.927 56.3779 171.996 56.3242L214.5 75.4238L198 108.5L189.5 119L187 132L179.5 141.5L171.707 133M171.707 133L177.751 140.936" stroke="#27272A"/>
<path d="M203.961 47.2268C197.862 40.9321 188.749 36.2612 179.961 39.2376C178.507 35.8961 175.439 33.2771 171.905 32.2409C166.736 30.7225 161.285 32.2808 156.885 35.1607C150.884 36.242 145.416 39.4202 141.447 43.9702C136.959 45.3973 133.108 48.6912 130.79 52.8234C127.276 59.086 127.113 66.6407 128.774 73.4831C129.773 77.5973 131.416 81.5302 133.271 85.3256C133.796 86.3978 135.278 85.6779 135.181 84.6583C135.201 84.5323 135.2 84.3986 135.169 84.2533C133.795 77.6693 134.507 70.7099 137.204 64.5489C138.591 64.9308 140.091 64.9629 141.525 64.9076C144.245 64.8048 146.966 64.6067 149.669 64.2892C154.913 63.6733 160.086 62.5535 164.952 60.4656C167.306 59.455 169.548 58.2156 171.63 56.7281C172.708 60.6327 175.46 64.1863 177.975 67.1768C179.71 69.2404 181.729 71.0133 184.133 72.2605C186.51 73.4934 189.083 74.2828 191.638 75.053C192.007 75.1648 192.314 75.0787 192.536 74.8897C192.898 74.756 193.204 74.4526 193.26 73.9794C193.519 71.858 195.315 70.1236 197.343 69.6363C199.646 69.0835 202.116 70.0864 203.677 71.7912C207.135 75.5685 206.174 81.6408 202.779 85.089C202.356 85.5184 202.421 86.052 202.705 86.4223C203.866 100.057 195.417 108.534 187.041 116.5C186.695 116.827 186.901 117.691 187.041 118.027C187.045 118.055 187.05 118.085 187.057 118.113L187.286 119.106C187.082 119.848 187.914 120.799 188.831 120.335C201.564 113.878 211.567 101.851 214.834 87.8674C218.152 73.6503 214.18 57.7733 203.961 47.2268Z" fill="#27272A"/>
<path d="M148.337 89.1954C148.061 87.3955 146.234 86.1162 144.512 86.4428C144.29 86.4467 144.064 86.4827 143.827 86.5649C143.377 86.7218 142.972 86.957 142.673 87.3042C142.594 87.3672 142.522 87.4495 142.463 87.5549C141.242 89.6801 142.091 91.9558 144.394 92.8134C146.627 93.6452 148.668 91.3464 148.337 89.1954Z" fill="#27272A"/>
<path d="M173.668 80.854C173.391 79.0541 171.564 77.7748 169.843 78.1001C169.62 78.1039 169.393 78.14 169.157 78.2235C168.707 78.3804 168.302 78.6144 168.003 78.9615C167.924 79.0258 167.852 79.1081 167.792 79.2122C166.572 81.3375 167.42 83.6144 169.724 84.4719C171.958 85.3038 173.998 83.005 173.668 80.854Z" fill="#27272A"/>
<path d="M203.496 70.8435C201.745 69.3997 199.391 68.7478 197.161 69.2672C195.036 69.7635 193.132 71.2729 192.183 73.24C192.057 73.4997 191.948 73.7671 191.853 74.0397C191.774 74.2608 191.94 74.5141 192.155 74.5733C192.394 74.6388 192.611 74.4922 192.69 74.2698C193.338 72.4184 194.906 70.9155 196.76 70.2842C197.786 69.9358 198.862 69.8805 199.896 70.0746C197.265 72.1639 195.431 75.2097 194.812 78.5177C194.627 79.509 194.546 80.5221 194.585 81.5301C194.5 81.6664 194.495 81.8644 194.572 81.9955C194.703 82.2179 194.95 82.2436 195.166 82.1511C195.861 81.8515 196.791 81.9878 197.371 82.5034C197.976 83.0434 198.227 83.8842 198.038 84.6415C197.903 85.1827 198.739 85.4154 198.875 84.8729C199.142 83.8019 198.797 82.5792 197.945 81.8554C197.243 81.2588 196.327 81.0351 195.449 81.1868C195.423 78.6232 196.184 76.0711 197.569 73.9176C199.622 75.1505 201.088 77.3426 201.377 79.7301C201.405 79.9641 201.556 80.1647 201.81 80.1647C202.024 80.1647 202.273 79.9654 202.243 79.7301C201.919 77.0521 200.368 74.6054 198.059 73.2027C198.291 72.889 198.537 72.5843 198.797 72.2924C199.424 71.5866 200.126 70.9476 200.895 70.3986C200.911 70.3871 200.926 70.3729 200.941 70.3601C201.472 70.5542 201.982 70.8139 202.456 71.1379C203.282 71.7023 203.974 72.4621 204.45 73.3441C205.021 74.3997 205.289 75.6069 205.37 76.7975C205.531 79.1593 204.974 81.57 203.668 83.5564C202.358 85.5479 200.292 87.02 197.958 87.5356C197.413 87.6564 197.643 88.4921 198.19 88.3725C200.481 87.866 202.526 86.4903 203.953 84.6415C205.514 82.6191 206.288 80.0451 206.265 77.5007C206.245 75.0091 205.472 72.4737 203.496 70.8435Z" fill="#27272A"/>
<path d="M161.664 96.5457C161.05 97.159 160.074 97.2515 159.263 97.0638C158.471 96.8812 157.764 96.448 157.216 95.8527C156.676 95.2652 156.297 94.4899 156.239 93.6876C156.181 92.8879 156.392 92.0985 156.803 91.4132C157.269 90.6405 157.99 90.0208 158.851 89.7393C159.053 89.6724 159.247 89.4307 159.155 89.2057C158.185 86.8657 157.216 84.5245 156.245 82.1846C156.155 81.9673 155.957 81.813 155.712 81.8812C155.507 81.9377 155.318 82.1974 155.408 82.4147C156.329 84.6377 157.249 86.8593 158.17 89.0823C156.502 89.8395 155.343 91.5971 155.361 93.4459C155.38 95.4837 156.914 97.3184 158.854 97.8571C160.011 98.1785 161.396 98.0409 162.279 97.1603C162.675 96.7643 162.06 96.1497 161.664 96.5457Z" fill="#27272A"/>
<path d="M171.256 100.882C168.533 100.976 165.889 102.249 164.091 104.293C163.583 104.87 163.139 105.504 162.782 106.186C162.522 106.681 163.272 107.12 163.531 106.624C164.691 104.414 166.778 102.757 169.175 102.079C169.856 101.886 170.549 101.776 171.256 101.75C171.812 101.731 171.815 100.863 171.256 100.882Z" fill="#27272A"/>
<path d="M173.719 51.9902C172.862 53.5703 172.008 55.1492 171.151 56.7293C170.885 57.2217 171.635 57.6601 171.901 57.1677C172.757 55.5876 173.612 54.0088 174.468 52.4287C174.734 51.9375 173.985 51.4978 173.719 51.9902Z" fill="#27272A"/>
<path d="M139.568 64.4318C137.447 64.0988 135.429 63.3107 133.646 62.1124C133.182 61.8 132.746 62.5522 133.209 62.862C135.045 64.0963 137.151 64.9242 139.338 65.2675C139.569 65.3035 139.804 65.2084 139.871 64.9654C139.928 64.7584 139.801 64.4678 139.568 64.4318Z" fill="#27272A"/>
<path d="M188.204 54.2326C186.028 52.2449 183.566 50.571 180.909 49.2956C180.143 48.9291 179.361 48.5948 178.569 48.2914C178.35 48.2079 178.093 48.384 178.035 48.5936C177.968 48.8379 178.119 49.0435 178.339 49.1271C180.99 50.1428 183.497 51.5532 185.743 53.2876C186.381 53.78 186.995 54.302 187.591 54.8446C188.002 55.2213 188.618 54.6093 188.204 54.2326Z" fill="#27272A"/>
<path d="M197.167 56.9904C195.663 54.7147 193.778 52.7181 191.616 51.0582C189.468 49.4074 187.052 48.1127 184.491 47.232C183.06 46.7396 181.584 46.3861 180.085 46.1765C179.854 46.1444 179.618 46.233 179.552 46.4786C179.496 46.6818 179.621 46.98 179.854 47.0122C182.451 47.376 184.981 48.1757 187.317 49.3663C189.656 50.5594 191.796 52.1202 193.635 53.9947C194.67 55.049 195.602 56.1971 196.417 57.4288C196.724 57.8942 197.477 57.4597 197.167 56.9904Z" fill="#27272A"/>
<path d="M172.269 53.8571C170.277 50.9913 167.501 48.6847 164.309 47.2705C163.4 46.8681 162.464 46.5325 161.504 46.2767C160.964 46.1327 160.732 46.9684 161.273 47.1124C164.484 47.9712 167.425 49.721 169.729 52.115C170.383 52.7938 170.982 53.5228 171.519 54.2955C171.653 54.4871 171.898 54.5771 172.113 54.4511C172.303 54.3405 172.402 54.0499 172.269 53.8571Z" fill="#27272A"/>
<path d="M173.635 43.7504C172.479 41.836 170.909 40.1736 169.057 38.9187C168.01 38.209 166.869 37.6459 165.673 37.2345C165.45 37.1586 165.198 37.3206 165.138 37.5379C165.072 37.7758 165.219 37.9943 165.441 38.0715C167.428 38.7516 169.228 39.919 170.708 41.4027C172.178 42.8786 173.347 44.6735 174.066 46.6316C174.475 47.7463 174.747 48.9111 174.849 50.0952C174.869 50.3292 175.034 50.5285 175.283 50.5285C175.502 50.5285 175.737 50.3305 175.717 50.0952C175.525 47.8517 174.799 45.6776 173.635 43.7504Z" fill="#27272A"/>
<path d="M206.003 83.3148C205.959 83.0847 205.681 82.9535 205.468 83.0127C205.226 83.0795 205.121 83.3148 205.166 83.5462C206.012 88.0294 205.452 92.7865 203.621 96.9649C203.096 98.1671 202.467 99.3203 201.744 100.414C201.436 100.881 202.187 101.317 202.494 100.853C205.121 96.8788 206.489 92.096 206.415 87.3377C206.393 85.9877 206.252 84.6403 206.003 83.3148Z" fill="#27272A"/>
<path d="M215.743 125.96L215.504 125.94C207.014 122.442 197.633 120.954 188.507 120.97C188.771 121.868 188.994 122.805 189.102 123.783L188.5 120.5L194.5 121.041L202.5 121.928L215.743 125.96ZM215.743 125.96L231.19 133.5L246.344 143.5L254.245 150L260.5 155.981L267 163.222L272.874 171L278.5 180.5L283 190.5L286 202L286.646 211.73L283.7 223L278.5 233.011L270.81 242L264.185 247.479L264.236 252.977L264.756 257.406L264.757 257.421L264.759 257.435C264.941 258.676 265.093 259.916 265.197 261.155L265.199 261.172L265.201 261.188L265.598 264.572L265.992 267.93C265.254 268.552 264.5 269.153 263.73 269.731L263.729 269.732C256.394 275.252 247.671 278.832 238.924 281.867C230.025 284.957 220.853 287.264 211.554 288.783C202.293 290.295 192.907 291.039 183.523 290.998C174.141 290.957 164.762 290.134 155.516 288.535C147.229 287.102 139.056 285.034 131.088 282.347L130.289 281.327C130.1 281.086 129.932 280.824 129.792 280.545L129.048 279.075C129.023 277.624 129.005 276.173 128.994 274.723C128.967 271.153 128.982 267.584 129.041 264.015C129.075 261.968 129.125 259.921 129.188 257.873L129.189 257.842L129.188 257.811C129.175 257.411 129.166 257.011 129.162 256.613V256.6V256.587C129.14 255.986 129.125 255.387 129.116 254.787L129.103 253.92L128.242 253.81C117.101 252.395 105.643 248.776 99.1028 239.461C92.3259 229.811 94.4196 216.877 97.223 205.69C100.105 194.194 104.835 183.154 111.154 173.127C117.345 163.306 125.081 154.485 133.999 147.051C142.758 139.75 152.602 133.804 163.141 129.458L163.363 129.367L163.519 129.185C164.746 127.758 166.257 126.635 167.999 126.004L168.054 125.984L168.106 125.958C168.133 125.945 168.155 125.932 168.174 125.921C168.454 125.768 168.735 125.619 169.018 125.473C169.223 128.4 170.089 131.228 171.434 133.811C173.102 137.017 175.403 139.493 178.125 141.704C178.529 142.032 179.048 142.223 179.599 142.156C180.157 142.089 180.625 141.774 180.939 141.325C181.503 140.52 182.102 139.711 182.71 138.889C184.648 136.269 186.678 133.525 187.974 130.394C188.811 128.377 189.356 126.094 189.102 123.783L188.5 120.5L194.5 121.041L202.5 121.928L215.743 125.96ZM188.507 123.783C188.397 122.786 188.263 121.92 187.974 120.97L188.507 123.783ZM264.095 251.765C264.141 252.169 264.189 252.574 264.236 252.976L264.095 251.765Z" fill="#FC9045"/>
<path d="M215.743 125.96L215.504 125.94C207.014 122.442 197.633 120.954 188.507 120.97C188.771 121.868 188.994 122.805 189.102 123.783M215.743 125.96C207.082 122.391 199.901 120.898 190.5 120.97M215.743 125.96L231.19 133.5L246.344 143.5L254.245 150L260.5 155.981L267 163.222L272.874 171L278.5 180.5L283 190.5L286 202L286.646 211.73L283.7 223L278.5 233.011L270.81 242L264.185 247.479M215.743 125.96L202.5 121.928L194.5 121.041L188.5 120.5L189.102 123.783M189.102 123.783C189.356 126.094 188.811 128.377 187.974 130.394C186.678 133.525 184.648 136.269 182.71 138.889C182.102 139.711 181.503 140.52 180.939 141.325C180.625 141.774 180.157 142.089 179.599 142.156C179.048 142.223 178.529 142.032 178.125 141.704C175.403 139.493 173.102 137.017 171.434 133.811C170.089 131.228 169.223 128.4 169.018 125.473C168.735 125.619 168.454 125.768 168.174 125.921C168.155 125.932 168.133 125.945 168.106 125.958L168.054 125.984L167.999 126.004C166.257 126.635 164.746 127.758 163.519 129.185L163.363 129.367L163.141 129.458C152.602 133.804 142.758 139.75 133.999 147.051C125.081 154.485 117.345 163.306 111.154 173.127C104.835 183.154 100.105 194.194 97.223 205.69C94.4196 216.877 92.3259 229.811 99.1028 239.461C105.643 248.776 117.101 252.395 128.242 253.81L129.103 253.92L129.116 254.787C129.125 255.387 129.14 255.986 129.162 256.587V256.6V256.613C129.166 257.011 129.175 257.411 129.188 257.811L129.189 257.842L129.188 257.873C129.125 259.921 129.075 261.968 129.041 264.015C128.982 267.584 128.967 271.153 128.994 274.723C129.005 276.173 129.023 277.624 129.048 279.075L129.792 280.545C129.932 280.824 130.1 281.086 130.289 281.327L131.088 282.347C139.056 285.034 147.229 287.102 155.516 288.535C164.762 290.134 174.141 290.957 183.523 290.998C192.907 291.039 202.293 290.295 211.554 288.783C220.853 287.264 230.025 284.957 238.924 281.867C247.671 278.832 256.394 275.252 263.729 269.732L263.73 269.731C264.5 269.153 265.254 268.552 265.992 267.93L265.598 264.572L265.201 261.188L265.199 261.172L265.197 261.155C265.093 259.916 264.941 258.676 264.759 257.435L264.757 257.421L264.756 257.406L264.236 252.977L264.185 247.479M189.102 123.783H188.507M285.315 217.412C282.749 229.533 274.555 239.906 264.583 247.188L264.185 247.479M264.185 247.479L264.173 247.973L264.088 251.628L264.087 251.697L264.095 251.765M188.507 123.783C188.397 122.786 188.263 121.92 187.974 120.97L188.507 123.783ZM264.095 251.765C264.141 252.169 264.189 252.574 264.236 252.976L264.095 251.765ZM127.878 282.289L127.95 282.09" stroke="#27272A" stroke-width="2"/>
<path d="M261.543 192.804L245.583 199.124C242.668 200.279 239.752 201.433 236.836 202.588L236.779 202.416C238.802 200.068 240.904 197.788 243.092 195.592C243.769 194.912 244.456 194.24 245.149 193.575C245.553 193.187 244.938 192.575 244.534 192.961C242.079 195.317 239.717 197.769 237.457 200.315C237.122 200.691 236.789 201.071 236.459 201.453C234.874 196.652 233.287 191.85 231.702 187.049L226.585 171.559C225.623 168.647 224.662 165.736 223.7 162.825C223.526 162.297 222.687 162.523 222.863 163.057C224.578 168.247 226.292 173.437 228.007 178.628C229.713 183.792 231.418 188.954 233.124 194.118C234.016 196.819 234.908 199.519 235.801 202.221C235.724 202.311 235.645 202.401 235.568 202.491C235.42 202.666 235.394 202.918 235.559 203.094L229.624 205.445C224.304 207.551 218.985 209.657 213.665 211.764C208.387 213.854 203.107 215.936 197.834 218.034C195.26 219.059 192.689 220.103 190.16 221.238C190.318 221.049 190.335 220.748 190.055 220.603C185.574 218.292 181.033 216.097 176.414 214.077C175.96 213.879 175.505 213.682 175.049 213.487C175.686 204.383 176.321 195.277 176.956 186.172C177.604 176.883 178.252 167.595 178.901 158.306L179.993 142.667C179.995 142.627 179.993 142.591 179.986 142.557C180.574 141.582 181.21 140.624 182.062 139.862C182.521 139.449 183.055 139.104 183.643 138.909C184.366 138.669 185.137 138.644 185.884 138.775C187.504 139.061 188.999 139.862 190.46 140.582C191.986 141.334 193.491 142.126 194.976 142.956C196.653 143.894 198.302 144.88 199.922 145.911C200.185 146.078 200.435 145.921 200.527 145.696C200.737 145.685 200.965 145.492 200.941 145.264C200.6 141.992 200.183 138.728 199.692 135.476C199.213 132.306 198.72 129.117 197.998 125.992C197.6 124.274 197.094 122.589 196.397 120.967C196.304 120.751 195.988 120.704 195.804 120.812C195.582 120.942 195.556 121.188 195.649 121.406C196.857 124.219 197.426 127.263 197.959 130.263C198.525 133.44 199.019 136.628 199.436 139.827C199.659 141.536 199.859 143.247 200.039 144.961C197.153 143.138 194.177 141.46 191.119 139.943C189.594 139.185 188.025 138.334 186.345 137.985C185.515 137.81 184.657 137.77 183.826 137.958C183.34 138.068 182.874 138.262 182.443 138.516C182.938 137.877 183.431 137.236 183.912 136.587C185.564 134.358 187.074 131.979 187.897 129.308C188.356 127.819 188.589 126.246 188.491 124.688C188.457 124.133 187.589 124.129 187.623 124.688C187.941 129.751 184.794 134.072 181.851 137.872C181.406 138.446 180.96 139.021 180.515 139.596L179.839 140.467C179.756 140.574 179.675 140.695 179.581 140.796C179.504 140.634 179.322 140.524 179.142 140.53C179.133 140.524 179.125 140.516 179.115 140.51C175.474 138.257 172.76 134.611 171.558 130.511C171.221 129.364 171.002 128.185 170.915 126.995C170.898 126.761 170.727 126.56 170.481 126.56C170.26 126.56 170.03 126.759 170.048 126.995C170.211 129.252 170.807 131.453 171.775 133.499C172.733 135.519 174.063 137.377 175.673 138.928C175.865 139.113 176.061 139.291 176.261 139.467C175.479 139.376 174.682 139.486 173.93 139.805C172.487 140.418 171.381 141.579 170.439 142.797C169.32 144.242 168.303 145.771 167.265 147.274C166.19 148.828 165.124 150.39 164.061 151.954C163.562 149.006 163.14 146.045 162.81 143.073C162.465 139.975 162.13 136.839 162.288 133.719C162.374 132.014 162.628 130.321 163.129 128.687C163.292 128.152 162.455 127.923 162.292 128.456C161.375 131.452 161.277 134.623 161.458 137.73C161.646 140.976 162.042 144.222 162.488 147.443C162.744 149.283 163.031 151.118 163.35 152.947C163.37 153.064 163.453 153.154 163.555 153.208C163.73 153.399 164.086 153.454 164.278 153.172C166.335 150.15 168.379 147.114 170.514 144.144C171.326 143.013 172.216 141.856 173.392 141.078C173.932 140.722 174.536 140.43 175.181 140.327C175.7 140.244 176.277 140.3 176.799 140.458C177.924 140.796 178.909 141.668 178.874 142.856C178.869 143.03 178.962 143.154 179.089 143.224C178.454 152.328 177.819 161.433 177.184 170.537L175.238 198.403L174.211 213.133C170.318 211.486 166.37 209.964 162.365 208.611C157.526 206.978 152.603 205.589 147.608 204.516C142.578 203.436 137.478 202.673 132.347 202.292C132.304 202.29 132.263 202.287 132.221 202.283C132.927 198.047 133.771 193.834 134.756 189.653C135.743 185.462 136.868 181.308 138.131 177.194C138.845 174.872 139.602 172.563 140.4 170.27C140.477 170.047 140.313 169.795 140.098 169.735C139.859 169.669 139.642 169.816 139.563 170.038C138.143 174.115 136.857 178.238 135.711 182.4C134.568 186.55 133.565 190.735 132.7 194.952C132.213 197.332 131.771 199.721 131.372 202.117C131.367 202.153 131.366 202.191 131.366 202.225C131.294 202.221 131.22 202.215 131.148 202.211C131.339 202.068 131.435 201.777 131.228 201.546C129.132 199.232 126.713 197.21 124.067 195.553C123.315 195.082 122.543 194.641 121.758 194.231C121.263 193.974 120.823 194.722 121.319 194.98C124.036 196.399 126.552 198.182 128.78 200.286C129.417 200.887 130.027 201.513 130.615 202.161C130.621 202.169 130.629 202.174 130.635 202.18C126.071 201.919 121.488 201.968 116.934 202.377C116.292 202.435 115.652 202.5 115.013 202.571C114.464 202.633 114.458 203.502 115.013 203.439C120.103 202.871 125.237 202.752 130.35 203.031C135.457 203.31 140.538 203.98 145.553 204.978C150.533 205.967 155.444 207.275 160.274 208.835C164.976 210.353 169.601 212.107 174.148 214.041V214.042C174.119 214.464 174.607 214.564 174.866 214.348C179.29 216.251 183.646 218.317 187.94 220.496C188.502 220.782 189.062 221.067 189.621 221.356C189.682 221.387 189.741 221.403 189.799 221.408C187.593 222.407 185.42 223.479 183.31 224.672C182.726 225.003 182.149 225.342 181.577 225.69C181.414 225.789 181.36 225.942 181.375 226.091C181.28 226.052 181.173 226.039 181.083 226.064C180.897 226.116 180.799 226.259 180.777 226.426C180.692 226.394 180.595 226.385 180.497 226.4C177.859 226.851 175.15 226.638 172.558 226.018C169.894 225.382 167.342 224.347 164.89 223.141C162.47 221.949 160.174 220.446 157.622 219.54C156.377 219.097 155.066 218.836 153.742 218.85C152.47 218.863 151.204 219.111 150.002 219.518C147.519 220.353 145.287 221.784 143.152 223.272C142.885 223.457 142.622 223.642 142.358 223.83C142.213 223.933 142.127 224.099 142.147 224.267C141.619 224.315 141.091 224.367 140.563 224.424C138.752 224.615 136.944 224.846 135.137 225.08C133.407 225.305 131.659 225.473 129.942 225.779C128.537 226.03 126.994 226.512 126.061 227.665C125.238 228.682 124.824 230.126 125.394 231.363C125.47 231.527 125.56 231.676 125.661 231.814C124.725 231.669 123.835 232.268 123.135 232.845C122.416 233.435 121.65 234.117 121.393 235.048C121.126 236.009 121.539 237.004 122.241 237.674C122.587 238.003 122.991 238.241 123.421 238.42C122.519 239.447 122.725 241.115 123.5 242.201C124.462 243.551 125.965 244.31 127.532 244.729C128.222 244.914 128.925 245.042 129.635 245.144C129.107 246.047 129.08 247.201 129.453 248.217C129.647 248.749 129.935 249.208 130.286 249.603C129.471 249.884 128.623 250.059 127.761 250.109C127.527 250.123 127.326 250.3 127.326 250.544C127.326 250.769 127.525 250.991 127.761 250.979C128.873 250.914 129.968 250.678 131.002 250.257C131.628 250.729 132.366 251.074 133.139 251.313C134.012 251.584 134.915 251.732 135.818 251.868C136.908 252.031 137.999 252.19 139.088 252.35C141.314 252.678 143.541 253.002 145.768 253.318C148.017 253.637 150.267 253.946 152.519 254.242C154.712 254.53 156.908 254.825 159.11 255.034C161.316 255.242 163.545 255.338 165.753 255.099C167.396 254.922 168.999 254.542 170.574 254.06C170.618 254.229 170.66 254.397 170.704 254.566C170.706 254.576 170.712 254.584 170.714 254.593C170.632 254.662 170.575 254.766 170.571 254.902C170.43 259.118 170.397 263.338 170.475 267.555C170.552 271.759 170.739 275.959 171.033 280.152C171.199 282.514 171.399 284.873 171.633 287.228C171.657 287.462 171.816 287.663 172.067 287.663C172.283 287.663 172.523 287.464 172.5 287.228C172.082 283.031 171.774 278.824 171.573 274.611C171.375 270.412 171.284 266.207 171.303 262.003C171.313 259.636 171.358 257.269 171.438 254.904C171.439 254.85 171.432 254.803 171.417 254.76C171.528 254.654 171.581 254.499 171.54 254.337L171.402 253.798C171.442 253.785 171.483 253.772 171.523 253.759C175.184 252.539 178.773 250.842 182.64 250.381C183.124 250.323 183.61 250.287 184.097 250.269C184.191 250.265 184.268 250.237 184.331 250.193C184.458 251.036 184.585 251.881 184.713 252.727C184.747 252.958 185.039 253.086 185.246 253.029C185.422 252.98 185.518 252.848 185.546 252.692C185.599 252.719 185.658 252.735 185.727 252.739C195.44 253.268 205.173 253.439 214.899 253.245C224.575 253.054 234.245 252.502 243.881 251.593C249.322 251.08 254.752 250.45 260.167 249.712C260.717 249.636 260.483 248.801 259.936 248.875C250.335 250.185 240.686 251.134 231.015 251.725C221.355 252.317 211.672 252.55 201.994 252.424C196.568 252.352 191.145 252.168 185.726 251.872C185.618 251.866 185.532 251.895 185.465 251.944C184.981 248.73 184.497 245.517 184.013 242.304C183.502 238.905 182.99 235.508 182.477 232.11C182.194 230.23 181.911 228.35 181.627 226.471C181.736 226.525 181.871 226.529 182.01 226.444C186.567 223.672 191.465 221.536 196.403 219.545C201.628 217.438 206.877 215.389 212.116 213.314L243.886 200.733C249.181 198.636 254.477 196.539 259.771 194.442C260.44 194.177 261.107 193.913 261.775 193.648C262.288 193.438 262.063 192.598 261.543 192.804ZM182.311 236.787C182.823 240.185 183.334 243.582 183.846 246.98C183.968 247.787 184.089 248.596 184.211 249.404C184.175 249.396 184.138 249.391 184.096 249.393C180.292 249.527 176.74 250.959 173.21 252.241C171.42 252.892 169.612 253.509 167.747 253.903C165.71 254.333 163.626 254.422 161.551 254.333C159.408 254.24 157.279 253.972 155.152 253.705C152.993 253.434 150.836 253.147 148.68 252.85C144.395 252.259 140.11 251.646 135.833 250.994C134.19 250.743 132.351 250.426 131.098 249.231C130.211 248.385 129.706 246.818 130.302 245.672C130.38 245.525 130.476 245.386 130.588 245.262C131.372 245.351 132.158 245.423 132.937 245.507C135.149 245.746 137.362 245.984 139.576 246.223C142.047 246.49 144.52 246.756 146.991 247.022C147.225 247.048 147.424 246.805 147.424 246.589C147.424 246.333 147.225 246.18 146.991 246.155C142.794 245.702 138.599 245.249 134.402 244.797C133.277 244.675 132.146 244.581 131.019 244.448C131.015 244.439 131.012 244.432 131.007 244.423C130.898 244.235 130.603 244.128 130.413 244.267C130.373 244.296 130.337 244.328 130.3 244.357C129.858 244.298 129.415 244.231 128.978 244.153C127.543 243.896 126.026 243.479 124.913 242.487C124.329 241.967 123.883 241.336 123.729 240.562C123.605 239.943 123.7 239.198 124.231 238.815C124.276 238.784 124.315 238.744 124.347 238.701C124.567 238.75 124.789 238.79 125.012 238.822C126.16 238.98 127.323 239.049 128.479 239.127C129.663 239.208 130.849 239.27 132.036 239.315C134.409 239.403 136.784 239.421 139.158 239.365C141.818 239.303 144.476 239.149 147.126 238.906C147.358 238.884 147.559 238.721 147.559 238.471C147.559 238.254 147.36 238.016 147.126 238.038C142.681 238.446 138.213 238.601 133.752 238.498C131.521 238.448 129.292 238.332 127.068 238.154C126.075 238.073 125.045 238.038 124.089 237.741C123.32 237.502 122.547 236.999 122.271 236.205C121.943 235.265 122.561 234.502 123.222 233.902C123.6 233.557 123.995 233.219 124.437 232.96C124.85 232.718 125.292 232.561 125.76 232.727C125.981 232.805 126.236 232.639 126.295 232.425C126.296 232.418 126.296 232.413 126.298 232.408C127.032 232.899 127.997 233.065 128.879 233.086C129.675 233.104 130.473 233.046 131.267 233.011C132.19 232.974 133.113 232.934 134.036 232.897C137.713 232.744 141.39 232.591 145.069 232.439C145.53 232.42 145.992 232.4 146.453 232.381C147.01 232.358 147.012 231.49 146.453 231.513L135.81 231.955C134.037 232.029 132.263 232.102 130.489 232.177C129.283 232.227 127.749 232.427 126.713 231.649C125.769 230.938 125.858 229.64 126.389 228.7C127.057 227.515 128.373 226.994 129.642 226.715C130.358 226.557 131.087 226.468 131.813 226.373C132.691 226.257 133.571 226.144 134.449 226.03C136.199 225.802 137.948 225.575 139.702 225.378C143.202 224.984 146.724 224.713 150.249 224.813C150.678 224.826 151.107 224.843 151.537 224.867C152.095 224.897 152.094 224.029 151.537 223.998C148.819 223.852 146.097 223.941 143.386 224.154C145.294 222.814 147.264 221.504 149.436 220.64C150.589 220.181 151.807 219.84 153.049 219.744C154.327 219.645 155.585 219.807 156.808 220.181C159.368 220.965 161.644 222.48 164.021 223.674C166.473 224.905 169.02 225.986 171.676 226.689C174.274 227.377 177 227.699 179.679 227.385C180.028 227.344 180.376 227.294 180.724 227.234C180.777 227.225 180.823 227.204 180.863 227.173C181.345 230.377 181.828 233.582 182.311 236.787Z" fill="#27272A"/>
</g>
</svg>
