<svg width="36" height="36" viewBox="0 0 36 36" fill="none" xmlns="http://www.w3.org/2000/svg">
<path d="M17.9912 35.9824C27.9275 35.9824 35.9824 27.9275 35.9824 17.9912C35.9824 8.05494 27.9275 0 17.9912 0C8.05494 0 0 8.05494 0 17.9912C0 27.9275 8.05494 35.9824 17.9912 35.9824Z" fill="#F08519"/>
<path fill-rule="evenodd" clip-rule="evenodd" d="M20.1854 10.3033C23.9592 11.5144 25.065 15.0249 23.1518 18.5705C22.1338 20.4486 20.3961 21.607 20.2556 24.0293L15.6394 23.5905C15.4989 21.1682 13.849 20.4486 12.831 18.588C10.9178 15.0424 12.0236 11.5319 15.8149 10.3208C17.3946 9.81181 18.5882 9.81181 20.1679 10.3208L20.1854 10.3033ZM22.871 6.07315L24.1698 6.8279L22.6252 9.49587L21.3263 8.74112L22.871 6.07315ZM17.2542 4.96735H18.7461V8.05657H17.2542V4.96735ZM8.86413 9.61874L8.10938 10.9176L10.7773 12.4622L11.5321 11.1633L8.86413 9.61874ZM13.1294 6.07315L11.8305 6.8279L13.3751 9.49587L14.674 8.74112L13.1294 6.07315ZM27.1362 9.61874L27.8909 10.9176L25.223 12.4622L24.4682 11.1633L27.1362 9.61874ZM19.6589 29.5056C19.536 30.3832 18.7812 31.0678 17.8685 31.0678C16.868 31.0678 16.0606 30.2604 16.0606 29.2599C16.0606 29.2248 16.0606 29.1897 16.0606 29.1546L19.6589 29.5232V29.5056ZM14.8495 26.5568L20.8173 27.1536C21.2737 27.2063 21.6598 27.61 21.6598 28.0839C21.6598 28.5402 21.2912 28.8913 20.8173 28.8386L14.8495 28.2418C14.3931 28.1892 14.007 27.7855 14.007 27.3116C14.007 26.8552 14.3756 26.5042 14.8495 26.5568ZM14.8495 24.275L20.8173 24.8718C21.2737 24.9244 21.6598 25.3281 21.6598 25.8021C21.6598 26.2584 21.2912 26.6095 20.8173 26.5568L14.8495 25.96C14.3931 25.9074 14.007 25.5037 14.007 25.0298C14.007 24.5734 14.3756 24.2223 14.8495 24.275Z" fill="#FEFEFE"/>
</svg>
