<svg width="381" height="417" viewBox="0 0 381 417" fill="none" fill-opacity="0.25" xmlns="http://www.w3.org/2000/svg">
<path fill-rule="evenodd" clip-rule="evenodd" d="M180.492 213.538C105.407 130.751 127.899 29.4277 224.614 -30.1853C275.958 -61.6975 334.729 -65.4878 372.311 -122.663L478.861 -46.8575C448.137 14.2772 478.284 55.1158 476.913 114.908C473.644 228.473 397.142 298.612 287.475 274.733C241.719 264.89 212.57 248.061 181.168 213.356L180.492 213.538ZM55.2631 278.979L34.1844 242.233L109.524 198.855L130.603 235.602L55.2631 278.979ZM176.842 385.18L140.406 364.143L183.964 288.7L220.4 309.736L176.842 385.18ZM447.324 389.884L484.07 368.805L440.693 293.465L403.947 314.544L447.324 389.884ZM293.168 416.333L335.531 416.215L335.427 329.28L293.064 329.399L293.168 416.333ZM1.09139 132.251L0.973057 89.8884L87.9078 89.7843L88.0261 132.147L1.09139 132.251ZM464.101 -247.989C479.476 -267.69 507.56 -273.766 529.85 -260.896C554.284 -246.79 562.618 -215.687 548.511 -191.254C548.016 -190.396 547.521 -189.539 547.026 -188.682L464.348 -248.418L464.101 -247.989ZM539.976 -108.164L402.646 -206.883C392.244 -214.604 388.505 -229.908 395.188 -241.481C401.622 -252.627 415.574 -256.003 426.405 -248.034L563.734 -149.315C574.137 -141.594 577.875 -126.29 571.193 -114.717C564.758 -103.572 550.807 -100.196 539.976 -108.164ZM507.802 -52.4383L370.473 -151.158C360.071 -158.878 356.332 -174.182 363.014 -185.756C369.449 -196.901 383.401 -200.277 394.232 -192.309L531.561 -93.5894C541.964 -85.8688 545.702 -70.5651 539.02 -58.9913C532.585 -47.8462 518.634 -44.4702 507.802 -52.4383Z" fill="#F08519"/>
</svg>
