<svg width="237" height="314" viewBox="0 0 237 314" fill="none" fill-opacity="0.25" xmlns="http://www.w3.org/2000/svg">
<path fill-rule="evenodd" clip-rule="evenodd" d="M146.315 73.0717C187.383 99.5311 189.349 144.856 155.258 180.967C137.146 200.081 112.76 208.33 103.361 236.722L49.7975 216.77C55.8533 187.482 38.5046 173.65 32.3192 148.25C20.8513 99.9311 45.2168 61.6619 94.2214 59.3374C114.654 58.3166 128.865 62.1244 146.05 73.2247L146.315 73.0717ZM191.785 31.2739L204.842 44.4041L177.939 71.2421L164.882 58.1119L191.785 31.2739ZM128.437 0.188736L146.201 4.94851L136.346 41.7299L118.582 36.9701L128.437 0.188736ZM13.7032 28.803L0.57305 41.86L27.411 68.7623L40.5412 55.7053L13.7032 28.803ZM75.798 0.195406L57.9253 5.03795L67.8043 41.7314L85.6771 36.8889L75.798 0.195406ZM231.257 87.0963L236.099 104.969L199.406 114.848L194.563 96.9753L231.257 87.0963ZM78.784 300.021C74.5212 310.079 63.351 315.821 52.4838 312.909C40.5716 309.717 33.5342 297.528 36.726 285.616C36.838 285.198 36.95 284.78 37.062 284.362L78.728 300.23L78.784 300.021ZM30.9297 249.569L100.081 275.713C105.346 277.796 108.656 283.835 107.144 289.477C105.688 294.911 100.18 297.915 94.7049 295.776L25.5539 269.631C20.2883 267.548 16.9786 261.51 18.4905 255.867C19.9464 250.433 25.4551 247.43 30.9297 249.569ZM38.2093 222.401L107.36 248.545C112.626 250.628 115.936 256.667 114.424 262.309C112.968 267.743 107.459 270.747 101.985 268.608L32.8336 242.463C27.568 240.38 24.2582 234.342 25.7701 228.699C27.2261 223.265 32.7347 220.262 38.2093 222.401Z" fill="#F08519"/>
</svg>
