<svg width="32" height="32" viewBox="0 0 32 32" fill="none" xmlns="http://www.w3.org/2000/svg">
<path d="M31.309 15.1613C31.1772 14.9309 31.0003 14.7294 30.7889 14.5688C30.5775 14.4082 30.3359 14.2919 30.0786 14.2266C28.9364 13.9445 27.7534 13.8661 26.5839 13.995C26.8917 12.2934 26.7831 10.5426 26.2675 8.89202C26.1156 8.42142 25.7943 8.02398 25.3661 7.77674C24.9378 7.52949 24.433 7.45003 23.9494 7.55377C22.7904 7.81004 21.6843 8.26437 20.6798 8.89677C19.8777 7.20837 18.6846 5.73556 17.1994 4.60052C16.8537 4.33978 16.4325 4.19873 15.9996 4.19873C15.5666 4.19873 15.1454 4.33978 14.7997 4.60052C13.3145 5.73556 12.1214 7.20837 11.3193 8.89677C10.3148 8.26441 9.20876 7.81008 8.0498 7.55377C7.56623 7.44983 7.06129 7.52921 6.63293 7.77651C6.20458 8.02381 5.88334 8.4214 5.73155 8.89215C5.21598 10.5427 5.10747 12.2935 5.4153 13.995C4.24582 13.8661 3.06277 13.9446 1.92055 14.2268C1.66362 14.2929 1.42246 14.4096 1.21118 14.57C0.999907 14.7305 0.822758 14.9315 0.690107 15.1612C0.557456 15.391 0.471969 15.6449 0.438648 15.9081C0.405327 16.1713 0.424842 16.4385 0.496052 16.694C0.938427 18.2756 2.29205 21.2821 6.3883 23.6473C10.4592 25.9974 14.0567 26 15.9929 26L15.9986 26.0003H16.0006L16.0062 26C17.9424 26 21.5399 25.9974 25.6108 23.6471C29.7071 21.2821 31.0608 18.2756 31.503 16.694C31.5753 16.4386 31.5953 16.1712 31.562 15.9079C31.5286 15.6445 31.4426 15.3906 31.309 15.1611V15.1613ZM24.3653 9.50977C24.7078 10.5641 25.0428 12.4503 24.3275 14.8806C24.3124 14.9219 24.3 14.964 24.2904 15.0069C23.996 15.9487 23.5958 16.854 23.0977 17.7058C22.4923 18.7487 21.7625 19.7143 20.9244 20.5814C21.5578 19.0895 21.9995 17.2451 21.9995 15C22.0085 13.5802 21.8111 12.1666 21.4135 10.8035C22.305 10.1863 23.3073 9.74705 24.3653 9.50977ZM16.0031 6.2034C17.2047 7.10027 19.9995 9.7529 19.9995 15C19.9995 20.3178 17.1631 22.949 15.9996 23.8046C14.8361 22.949 11.9996 20.3178 11.9996 15C11.9996 9.7529 14.7944 7.10027 16.0031 6.2034ZM7.63368 9.51002C8.6917 9.74711 9.69397 10.1863 10.5854 10.8035C10.1879 12.1666 9.99055 13.5802 9.99955 15C9.99955 17.245 10.4413 19.0895 11.0746 20.5814C10.2365 19.7143 9.50679 18.7487 8.90143 17.7058C8.4027 16.8532 8.00223 15.9468 7.70768 15.004C7.69871 14.9645 7.68731 14.9256 7.67355 14.8875C6.95568 12.4538 7.29105 10.5651 7.63355 9.51002H7.63368ZM2.4173 16.164C3.57952 15.8853 4.78819 15.8607 5.9608 16.0918C6.28102 16.999 6.68567 17.8742 7.16943 18.7058C8.24601 20.5544 9.65625 22.1872 11.3286 23.5213C9.94642 23.1729 8.62006 22.6322 7.3883 21.915C3.90668 19.9048 2.78243 17.4435 2.4173 16.1638V16.164ZM24.6108 21.915C23.3791 22.6322 22.0528 23.1729 20.6707 23.5213C22.3429 22.1872 23.7531 20.5544 24.8297 18.7058C25.3135 17.8742 25.7181 16.999 26.0383 16.0918C27.2091 15.8624 28.4153 15.8842 29.577 16.1555C29.2167 17.4436 28.0924 19.9049 24.6108 21.915Z" fill="#F59E0B"/>
<path d="M12.0625 10L15.875 5.75L20.5 10L20.0625 22.4375L15.875 24.25L11.3125 19.0625L12.0625 10Z" fill="#F59E0B"/>
<path d="M6.1875 9.9375L8.6875 8L13.3125 12.25L12.875 24.6875L5.0625 22.0625L1.75 16.3125L6 14.6875L6.1875 9.9375Z" fill="#F59E0B"/>
<path d="M26.25 9.9375L23.75 8L19.125 12.25L19.5625 24.6875L27.375 22.0625L30.6875 16.3125L26.4375 14.6875L26.25 9.9375Z" fill="#F59E0B"/>
</svg>
