<svg width="32" height="32" viewBox="0 0 32 32" fill="none" xmlns="http://www.w3.org/2000/svg">
<path d="M4.3985 23.4614C4.9745 25.2374 6.72517 26.3707 8.59317 26.3707H8.6665C8.83788 27.2071 9.29276 27.9588 9.95427 28.4986C10.6158 29.0384 11.4434 29.3332 12.2972 29.3334C12.9065 29.3334 13.4758 29.18 13.9798 28.916C14.1902 28.8007 14.3652 28.6303 14.4861 28.4232C14.6071 28.216 14.6694 27.9799 14.6665 27.74V4.03603C14.6692 3.73057 14.5666 3.43349 14.376 3.19479C14.1854 2.95608 13.9183 2.79031 13.6198 2.72537C12.9509 2.59544 12.2578 2.68964 11.6478 2.99337C10.6558 3.46803 10.0745 4.52803 10.0745 5.6307V5.70403C9.33212 5.55251 8.56113 5.63231 7.86551 5.93266C7.16989 6.23301 6.58312 6.73947 6.18433 7.38372C5.78554 8.02797 5.59393 8.77903 5.63532 9.53558C5.67672 10.2921 5.94914 11.0178 6.41584 11.6147C5.37062 11.7785 4.41834 12.3104 3.73083 13.1145C3.04331 13.9187 2.66584 14.9421 2.6665 16C2.6665 17.5707 3.48117 18.948 4.71051 19.7494C4.13717 20.7774 3.94917 22.0774 4.3985 23.4614ZM25.5838 11.6147C26.0505 11.0178 26.323 10.2921 26.3644 9.53558C26.4058 8.77903 26.2141 8.02797 25.8153 7.38372C25.4166 6.73947 24.8298 6.23301 24.1342 5.93266C23.4385 5.63231 22.6676 5.55251 21.9252 5.70403V5.6307C21.9252 4.52937 21.3425 3.46803 20.3505 2.99337C19.741 2.68955 19.0483 2.59534 18.3798 2.72537C18.0815 2.79054 17.8146 2.95637 17.624 3.19503C17.4334 3.43368 17.3307 3.73063 17.3332 4.03603V27.7387C17.3332 28.2254 17.5892 28.688 18.0212 28.9147C18.5252 29.18 19.0932 29.3334 19.7025 29.3334C20.5565 29.3332 21.3842 29.0381 22.0458 28.498C22.7073 27.958 23.1621 27.206 23.3332 26.3694H23.4078C25.2745 26.3694 27.0265 25.236 27.6025 23.46C28.0518 22.076 27.8638 20.776 27.2905 19.748C27.9167 19.3434 28.4317 18.7885 28.7885 18.1338C29.1453 17.4792 29.3326 16.7456 29.3332 16C29.3338 14.9421 28.9564 13.9187 28.2689 13.1145C27.5813 12.3104 26.6291 11.7785 25.5838 11.6147Z" fill="#F59E0B"/>
</svg>
