<svg width="32" height="32" viewBox="0 0 32 32" fill="none" xmlns="http://www.w3.org/2000/svg">
<path d="M22.9281 5.00321C22.6048 4.67965 22.2155 4.42973 21.7868 4.27053C21.358 4.11132 20.8999 4.0466 20.4439 4.08078C19.9878 4.11497 19.5445 4.24725 19.1442 4.46858C18.744 4.68992 18.3963 4.99508 18.1249 5.36321C17.3173 5.21935 16.4849 5.33687 15.7487 5.69869C15.0126 6.06051 14.411 6.64775 14.0316 7.37501C13.6522 8.10227 13.5147 8.9316 13.6391 9.7424C13.7635 10.5532 14.1433 11.3032 14.7233 11.8832L16.3425 13.5024L14.6321 15.2112L16.8177 17.3968L18.5281 15.688L20.1457 17.3056C20.7257 17.8856 21.4757 18.2654 22.2865 18.3898C23.0973 18.5142 23.9266 18.3767 24.6539 17.9973C25.3811 17.6179 25.9684 17.0163 26.3302 16.2802C26.692 15.544 26.8095 14.7116 26.6657 13.904C27.0333 13.6326 27.338 13.285 27.559 12.8851C27.78 12.4851 27.9121 12.0422 27.9463 11.5866C27.9804 11.1309 27.9159 10.6732 27.757 10.2448C27.5981 9.81634 27.3487 9.42723 27.0257 9.10401L26.0689 8.14561L26.9073 7.30721C27.0541 7.16443 27.171 6.99391 27.2513 6.80555C27.3316 6.61719 27.3737 6.41475 27.3751 6.20999C27.3765 6.00523 27.3373 5.80222 27.2596 5.61277C27.1818 5.42332 27.0673 5.2512 26.9225 5.10641C26.7777 4.96162 26.6056 4.84704 26.4161 4.76933C26.2267 4.69163 26.0237 4.65234 25.8189 4.65375C25.6141 4.65517 25.4117 4.69725 25.2233 4.77757C25.035 4.85789 24.8645 4.97483 24.7217 5.12161L23.8833 5.96001L22.9265 5.00321H22.9281ZM23.3601 10.6768C23.4365 10.7506 23.4974 10.8389 23.5394 10.9365C23.5813 11.0341 23.6034 11.1391 23.6043 11.2453C23.6052 11.3515 23.585 11.4569 23.5447 11.5552C23.5045 11.6535 23.4451 11.7428 23.37 11.8179C23.2949 11.893 23.2056 11.9524 23.1072 11.9927C23.0089 12.0329 22.9036 12.0531 22.7974 12.0522C22.6911 12.0513 22.5862 12.0292 22.4886 11.9873C22.391 11.9454 22.3027 11.8844 22.2289 11.808L20.1921 9.77121C20.1157 9.69741 20.0547 9.60914 20.0128 9.51153C19.9709 9.41393 19.9488 9.30895 19.9479 9.20273C19.947 9.09651 19.9672 8.99116 20.0074 8.89285C20.0476 8.79453 20.107 8.70521 20.1822 8.63009C20.2573 8.55498 20.3466 8.49558 20.4449 8.45535C20.5432 8.41513 20.6486 8.39489 20.7548 8.39581C20.861 8.39673 20.966 8.4188 21.0636 8.46073C21.1612 8.50266 21.2495 8.5636 21.3233 8.64001L23.3601 10.6768ZM6.43208 14.7248C7.93608 13.2192 10.3777 13.2192 11.8833 14.7248L17.3057 20.1472C17.8848 20.7277 18.2637 21.4777 18.3875 22.2883C18.5113 23.0989 18.3735 23.9278 17.9941 24.6547C17.6146 25.3816 17.0134 25.9686 16.2776 26.3305C15.5418 26.6924 14.7098 26.8104 13.9025 26.6672C13.6311 27.0348 13.2835 27.3395 12.8836 27.5605C12.4836 27.7815 12.0407 27.9136 11.585 27.9478C11.1294 27.982 10.6717 27.9174 10.2432 27.7585C9.81481 27.5997 9.4257 27.3502 9.10248 27.0272L8.14408 26.0704L7.28008 26.936C7.13657 27.0796 6.96618 27.1936 6.77864 27.2713C6.59109 27.3491 6.39007 27.3892 6.18704 27.3892C5.98402 27.3893 5.78296 27.3494 5.59536 27.2718C5.40776 27.1941 5.23729 27.0803 5.09368 26.9368C4.95006 26.7933 4.83612 26.6229 4.75836 26.4354C4.6806 26.2478 4.64053 26.0468 4.64046 25.8438C4.64039 25.6407 4.6803 25.4397 4.75793 25.2521C4.83555 25.0645 4.94937 24.894 5.09288 24.7504L5.95848 23.8848L5.00168 22.928C4.6784 22.6048 4.42871 22.2156 4.26967 21.787C4.11064 21.3584 4.046 20.9005 4.08018 20.4446C4.11436 19.9888 4.24655 19.5456 4.46772 19.1455C4.68888 18.7455 4.99382 18.3978 5.36168 18.1264C5.25252 17.5151 5.29286 16.8865 5.47925 16.2942C5.66564 15.7019 5.99254 15.1634 6.43208 14.7248ZM11.1409 24.0272C11.2909 23.8772 11.3751 23.6737 11.3751 23.4616C11.3751 23.2495 11.2909 23.046 11.1409 22.896L9.10408 20.8592C9.03028 20.7828 8.94201 20.7219 8.8444 20.6799C8.7468 20.638 8.64182 20.6159 8.5356 20.615C8.42938 20.6141 8.32403 20.6343 8.22572 20.6746C8.1274 20.7148 8.03808 20.7742 7.96296 20.8493C7.88785 20.9244 7.82844 21.0137 7.78822 21.112C7.748 21.2104 7.72775 21.3157 7.72868 21.4219C7.7296 21.5282 7.75167 21.6331 7.7936 21.7307C7.83552 21.8283 7.89647 21.9166 7.97288 21.9904L10.0081 24.0272C10.0824 24.1017 10.1707 24.1608 10.2679 24.2011C10.3651 24.2415 10.4693 24.2622 10.5745 24.2622C10.6797 24.2622 10.7839 24.2415 10.8811 24.2011C10.9783 24.1608 11.0666 24.1017 11.1409 24.0272Z" fill="#F59E0B"/>
</svg>
